# .PCD v0.7 - Point Cloud Data file format
VERSION 0.7
FIELDS x y z intensity
SIZE 4 4 4 4
TYPE F F F F
COUNT 1 1 1 1
WIDTH 2688
HEIGHT 1
VIEWPOINT 0 0 0 1 0 0 0
POINTS 2688
DATA ascii
-0.800 -2.900 0.000 80.0
-0.800 -2.900 0.200 80.0
-0.800 -2.900 0.400 80.0
-0.800 -2.900 0.600 80.0
-0.800 -2.900 0.800 80.0
-0.800 -2.900 1.000 80.0
-0.800 -2.900 1.200 80.0
-0.800 -2.900 1.400 80.0
-0.800 -2.900 1.600 80.0
-0.800 -2.900 1.800 80.0
-0.800 -2.900 2.000 80.0
-0.800 -2.900 2.200 80.0
-0.800 -2.900 2.400 80.0
-0.800 -2.900 2.600 80.0
-0.800 -2.705 0.000 80.0
-0.800 -2.705 0.200 80.0
-0.800 -2.705 0.400 80.0
-0.800 -2.705 0.600 80.0
-0.800 -2.705 0.800 80.0
-0.800 -2.705 1.000 80.0
-0.800 -2.705 1.200 80.0
-0.800 -2.705 1.400 80.0
-0.800 -2.705 1.600 80.0
-0.800 -2.705 1.800 80.0
-0.800 -2.705 2.000 80.0
-0.800 -2.705 2.200 80.0
-0.800 -2.705 2.400 80.0
-0.800 -2.705 2.600 80.0
-0.800 -2.510 0.000 80.0
-0.800 -2.510 0.200 80.0
-0.800 -2.510 0.400 80.0
-0.800 -2.510 0.600 80.0
-0.800 -2.510 0.800 80.0
-0.800 -2.510 1.000 80.0
-0.800 -2.510 1.200 80.0
-0.800 -2.510 1.400 80.0
-0.800 -2.510 1.600 80.0
-0.800 -2.510 1.800 80.0
-0.800 -2.510 2.000 80.0
-0.800 -2.510 2.200 80.0
-0.800 -2.510 2.400 80.0
-0.800 -2.510 2.600 80.0
-0.800 -2.314 0.000 80.0
-0.800 -2.314 0.200 80.0
-0.800 -2.314 0.400 80.0
-0.800 -2.314 0.600 80.0
-0.800 -2.314 0.800 80.0
-0.800 -2.314 1.000 80.0
-0.800 -2.314 1.200 80.0
-0.800 -2.314 1.400 80.0
-0.800 -2.314 1.600 80.0
-0.800 -2.314 1.800 80.0
-0.800 -2.314 2.000 80.0
-0.800 -2.314 2.200 80.0
-0.800 -2.314 2.400 80.0
-0.800 -2.314 2.600 80.0
-0.800 -2.119 0.000 80.0
-0.800 -2.119 0.200 80.0
-0.800 -2.119 0.400 80.0
-0.800 -2.119 0.600 80.0
-0.800 -2.119 0.800 80.0
-0.800 -2.119 1.000 80.0
-0.800 -2.119 1.200 80.0
-0.800 -2.119 1.400 80.0
-0.800 -2.119 1.600 80.0
-0.800 -2.119 1.800 80.0
-0.800 -2.119 2.000 80.0
-0.800 -2.119 2.200 80.0
-0.800 -2.119 2.400 80.0
-0.800 -2.119 2.600 80.0
-0.800 -1.924 0.000 80.0
-0.800 -1.924 0.200 80.0
-0.800 -1.924 0.400 80.0
-0.800 -1.924 0.600 80.0
-0.800 -1.924 0.800 80.0
-0.800 -1.924 1.000 80.0
-0.800 -1.924 1.200 80.0
-0.800 -1.924 1.400 80.0
-0.800 -1.924 1.600 80.0
-0.800 -1.924 1.800 80.0
-0.800 -1.924 2.000 80.0
-0.800 -1.924 2.200 80.0
-0.800 -1.924 2.400 80.0
-0.800 -1.924 2.600 80.0
-0.800 -1.729 0.000 80.0
-0.800 -1.729 0.200 80.0
-0.800 -1.729 0.400 80.0
-0.800 -1.729 0.600 80.0
-0.800 -1.729 0.800 80.0
-0.800 -1.729 1.000 80.0
-0.800 -1.729 1.200 80.0
-0.800 -1.729 1.400 80.0
-0.800 -1.729 1.600 80.0
-0.800 -1.729 1.800 80.0
-0.800 -1.729 2.000 80.0
-0.800 -1.729 2.200 80.0
-0.800 -1.729 2.400 80.0
-0.800 -1.729 2.600 80.0
-0.800 -1.533 0.000 80.0
-0.800 -1.533 0.200 80.0
-0.800 -1.533 0.400 80.0
-0.800 -1.533 0.600 80.0
-0.800 -1.533 0.800 80.0
-0.800 -1.533 1.000 80.0
-0.800 -1.533 1.200 80.0
-0.800 -1.533 1.400 80.0
-0.800 -1.533 1.600 80.0
-0.800 -1.533 1.800 80.0
-0.800 -1.533 2.000 80.0
-0.800 -1.533 2.200 80.0
-0.800 -1.533 2.400 80.0
-0.800 -1.533 2.600 80.0
-0.800 -1.338 0.000 80.0
-0.800 -1.338 0.200 80.0
-0.800 -1.338 0.400 80.0
-0.800 -1.338 0.600 80.0
-0.800 -1.338 0.800 80.0
-0.800 -1.338 1.000 80.0
-0.800 -1.338 1.200 80.0
-0.800 -1.338 1.400 80.0
-0.800 -1.338 1.600 80.0
-0.800 -1.338 1.800 80.0
-0.800 -1.338 2.000 80.0
-0.800 -1.338 2.200 80.0
-0.800 -1.338 2.400 80.0
-0.800 -1.338 2.600 80.0
-0.800 -1.143 0.000 80.0
-0.800 -1.143 0.200 80.0
-0.800 -1.143 0.400 80.0
-0.800 -1.143 0.600 80.0
-0.800 -1.143 0.800 80.0
-0.800 -1.143 1.000 80.0
-0.800 -1.143 1.200 80.0
-0.800 -1.143 1.400 80.0
-0.800 -1.143 1.600 80.0
-0.800 -1.143 1.800 80.0
-0.800 -1.143 2.000 80.0
-0.800 -1.143 2.200 80.0
-0.800 -1.143 2.400 80.0
-0.800 -1.143 2.600 80.0
-0.800 -0.948 0.000 80.0
-0.800 -0.948 0.200 80.0
-0.800 -0.948 0.400 80.0
-0.800 -0.948 0.600 80.0
-0.800 -0.948 0.800 80.0
-0.800 -0.948 1.000 80.0
-0.800 -0.948 1.200 80.0
-0.800 -0.948 1.400 80.0
-0.800 -0.948 1.600 80.0
-0.800 -0.948 1.800 80.0
-0.800 -0.948 2.000 80.0
-0.800 -0.948 2.200 80.0
-0.800 -0.948 2.400 80.0
-0.800 -0.948 2.600 80.0
-0.800 -0.752 0.000 80.0
-0.800 -0.752 0.200 80.0
-0.800 -0.752 0.400 80.0
-0.800 -0.752 0.600 80.0
-0.800 -0.752 0.800 80.0
-0.800 -0.752 1.000 80.0
-0.800 -0.752 1.200 80.0
-0.800 -0.752 1.400 80.0
-0.800 -0.752 1.600 80.0
-0.800 -0.752 1.800 80.0
-0.800 -0.752 2.000 80.0
-0.800 -0.752 2.200 80.0
-0.800 -0.752 2.400 80.0
-0.800 -0.752 2.600 80.0
-0.800 -0.557 0.000 80.0
-0.800 -0.557 0.200 80.0
-0.800 -0.557 0.400 80.0
-0.800 -0.557 0.600 80.0
-0.800 -0.557 0.800 80.0
-0.800 -0.557 1.000 80.0
-0.800 -0.557 1.200 80.0
-0.800 -0.557 1.400 80.0
-0.800 -0.557 1.600 80.0
-0.800 -0.557 1.800 80.0
-0.800 -0.557 2.000 80.0
-0.800 -0.557 2.200 80.0
-0.800 -0.557 2.400 80.0
-0.800 -0.557 2.600 80.0
-0.800 -0.362 0.000 80.0
-0.800 -0.362 0.200 80.0
-0.800 -0.362 0.400 80.0
-0.800 -0.362 0.600 80.0
-0.800 -0.362 0.800 80.0
-0.800 -0.362 1.000 80.0
-0.800 -0.362 1.200 80.0
-0.800 -0.362 1.400 80.0
-0.800 -0.362 1.600 80.0
-0.800 -0.362 1.800 80.0
-0.800 -0.362 2.000 80.0
-0.800 -0.362 2.200 80.0
-0.800 -0.362 2.400 80.0
-0.800 -0.362 2.600 80.0
-0.800 -0.167 0.000 80.0
-0.800 -0.167 0.200 80.0
-0.800 -0.167 0.400 80.0
-0.800 -0.167 0.600 80.0
-0.800 -0.167 0.800 80.0
-0.800 -0.167 1.000 80.0
-0.800 -0.167 1.200 80.0
-0.800 -0.167 1.400 80.0
-0.800 -0.167 1.600 80.0
-0.800 -0.167 1.800 80.0
-0.800 -0.167 2.000 80.0
-0.800 -0.167 2.200 80.0
-0.800 -0.167 2.400 80.0
-0.800 -0.167 2.600 80.0
-0.800 0.029 0.000 80.0
-0.800 0.029 0.200 80.0
-0.800 0.029 0.400 80.0
-0.800 0.029 0.600 80.0
-0.800 0.029 0.800 80.0
-0.800 0.029 1.000 80.0
-0.800 0.029 1.200 80.0
-0.800 0.029 1.400 80.0
-0.800 0.029 1.600 80.0
-0.800 0.029 1.800 80.0
-0.800 0.029 2.000 80.0
-0.800 0.029 2.200 80.0
-0.800 0.029 2.400 80.0
-0.800 0.029 2.600 80.0
-0.800 0.224 0.000 80.0
-0.800 0.224 0.200 80.0
-0.800 0.224 0.400 80.0
-0.800 0.224 0.600 80.0
-0.800 0.224 0.800 80.0
-0.800 0.224 1.000 80.0
-0.800 0.224 1.200 80.0
-0.800 0.224 1.400 80.0
-0.800 0.224 1.600 80.0
-0.800 0.224 1.800 80.0
-0.800 0.224 2.000 80.0
-0.800 0.224 2.200 80.0
-0.800 0.224 2.400 80.0
-0.800 0.224 2.600 80.0
-0.800 0.419 0.000 80.0
-0.800 0.419 0.200 80.0
-0.800 0.419 0.400 80.0
-0.800 0.419 0.600 80.0
-0.800 0.419 0.800 80.0
-0.800 0.419 1.000 80.0
-0.800 0.419 1.200 80.0
-0.800 0.419 1.400 80.0
-0.800 0.419 1.600 80.0
-0.800 0.419 1.800 80.0
-0.800 0.419 2.000 80.0
-0.800 0.419 2.200 80.0
-0.800 0.419 2.400 80.0
-0.800 0.419 2.600 80.0
-0.800 0.614 0.000 80.0
-0.800 0.614 0.200 80.0
-0.800 0.614 0.400 80.0
-0.800 0.614 0.600 80.0
-0.800 0.614 0.800 80.0
-0.800 0.614 1.000 80.0
-0.800 0.614 1.200 80.0
-0.800 0.614 1.400 80.0
-0.800 0.614 1.600 80.0
-0.800 0.614 1.800 80.0
-0.800 0.614 2.000 80.0
-0.800 0.614 2.200 80.0
-0.800 0.614 2.400 80.0
-0.800 0.614 2.600 80.0
-0.800 0.810 0.000 80.0
-0.800 0.810 0.200 80.0
-0.800 0.810 0.400 80.0
-0.800 0.810 0.600 80.0
-0.800 0.810 0.800 80.0
-0.800 0.810 1.000 80.0
-0.800 0.810 1.200 80.0
-0.800 0.810 1.400 80.0
-0.800 0.810 1.600 80.0
-0.800 0.810 1.800 80.0
-0.800 0.810 2.000 80.0
-0.800 0.810 2.200 80.0
-0.800 0.810 2.400 80.0
-0.800 0.810 2.600 80.0
-0.800 1.005 0.000 80.0
-0.800 1.005 0.200 80.0
-0.800 1.005 0.400 80.0
-0.800 1.005 0.600 80.0
-0.800 1.005 0.800 80.0
-0.800 1.005 1.000 80.0
-0.800 1.005 1.200 80.0
-0.800 1.005 1.400 80.0
-0.800 1.005 1.600 80.0
-0.800 1.005 1.800 80.0
-0.800 1.005 2.000 80.0
-0.800 1.005 2.200 80.0
-0.800 1.005 2.400 80.0
-0.800 1.005 2.600 80.0
-0.800 1.200 0.000 80.0
-0.800 1.200 0.200 80.0
-0.800 1.200 0.400 80.0
-0.800 1.200 0.600 80.0
-0.800 1.200 0.800 80.0
-0.800 1.200 1.000 80.0
-0.800 1.200 1.200 80.0
-0.800 1.200 1.400 80.0
-0.800 1.200 1.600 80.0
-0.800 1.200 1.800 80.0
-0.800 1.200 2.000 80.0
-0.800 1.200 2.200 80.0
-0.800 1.200 2.400 80.0
-0.800 1.200 2.600 80.0
-0.600 -2.900 0.000 80.0
-0.600 -2.900 0.200 80.0
-0.600 -2.900 0.400 80.0
-0.600 -2.900 0.600 80.0
-0.600 -2.900 0.800 80.0
-0.600 -2.900 1.000 80.0
-0.600 -2.900 1.200 80.0
-0.600 -2.900 1.400 80.0
-0.600 -2.900 1.600 80.0
-0.600 -2.900 1.800 80.0
-0.600 -2.900 2.000 80.0
-0.600 -2.900 2.200 80.0
-0.600 -2.900 2.400 80.0
-0.600 -2.900 2.600 80.0
-0.600 -2.705 0.000 80.0
-0.600 -2.705 0.200 80.0
-0.600 -2.705 0.400 80.0
-0.600 -2.705 0.600 80.0
-0.600 -2.705 0.800 80.0
-0.600 -2.705 1.000 80.0
-0.600 -2.705 1.200 80.0
-0.600 -2.705 1.400 80.0
-0.600 -2.705 1.600 80.0
-0.600 -2.705 1.800 80.0
-0.600 -2.705 2.000 80.0
-0.600 -2.705 2.200 80.0
-0.600 -2.705 2.400 80.0
-0.600 -2.705 2.600 80.0
-0.600 -2.510 0.000 80.0
-0.600 -2.510 0.200 80.0
-0.600 -2.510 0.400 80.0
-0.600 -2.510 0.600 80.0
-0.600 -2.510 0.800 80.0
-0.600 -2.510 1.000 80.0
-0.600 -2.510 1.200 80.0
-0.600 -2.510 1.400 80.0
-0.600 -2.510 1.600 80.0
-0.600 -2.510 1.800 80.0
-0.600 -2.510 2.000 80.0
-0.600 -2.510 2.200 80.0
-0.600 -2.510 2.400 80.0
-0.600 -2.510 2.600 80.0
-0.600 -2.314 0.000 80.0
-0.600 -2.314 0.200 80.0
-0.600 -2.314 0.400 80.0
-0.600 -2.314 0.600 80.0
-0.600 -2.314 0.800 80.0
-0.600 -2.314 1.000 80.0
-0.600 -2.314 1.200 80.0
-0.600 -2.314 1.400 80.0
-0.600 -2.314 1.600 80.0
-0.600 -2.314 1.800 80.0
-0.600 -2.314 2.000 80.0
-0.600 -2.314 2.200 80.0
-0.600 -2.314 2.400 80.0
-0.600 -2.314 2.600 80.0
-0.600 -2.119 0.000 80.0
-0.600 -2.119 0.200 80.0
-0.600 -2.119 0.400 80.0
-0.600 -2.119 0.600 80.0
-0.600 -2.119 0.800 80.0
-0.600 -2.119 1.000 80.0
-0.600 -2.119 1.200 80.0
-0.600 -2.119 1.400 80.0
-0.600 -2.119 1.600 80.0
-0.600 -2.119 1.800 80.0
-0.600 -2.119 2.000 80.0
-0.600 -2.119 2.200 80.0
-0.600 -2.119 2.400 80.0
-0.600 -2.119 2.600 80.0
-0.600 -1.924 0.000 80.0
-0.600 -1.924 0.200 80.0
-0.600 -1.924 0.400 80.0
-0.600 -1.924 0.600 80.0
-0.600 -1.924 0.800 80.0
-0.600 -1.924 1.000 80.0
-0.600 -1.924 1.200 80.0
-0.600 -1.924 1.400 80.0
-0.600 -1.924 1.600 80.0
-0.600 -1.924 1.800 80.0
-0.600 -1.924 2.000 80.0
-0.600 -1.924 2.200 80.0
-0.600 -1.924 2.400 80.0
-0.600 -1.924 2.600 80.0
-0.600 -1.729 0.000 80.0
-0.600 -1.729 0.200 80.0
-0.600 -1.729 0.400 80.0
-0.600 -1.729 0.600 80.0
-0.600 -1.729 0.800 80.0
-0.600 -1.729 1.000 80.0
-0.600 -1.729 1.200 80.0
-0.600 -1.729 1.400 80.0
-0.600 -1.729 1.600 80.0
-0.600 -1.729 1.800 80.0
-0.600 -1.729 2.000 80.0
-0.600 -1.729 2.200 80.0
-0.600 -1.729 2.400 80.0
-0.600 -1.729 2.600 80.0
-0.600 -1.533 0.000 80.0
-0.600 -1.533 0.200 80.0
-0.600 -1.533 0.400 80.0
-0.600 -1.533 0.600 80.0
-0.600 -1.533 0.800 80.0
-0.600 -1.533 1.000 80.0
-0.600 -1.533 1.200 80.0
-0.600 -1.533 1.400 80.0
-0.600 -1.533 1.600 80.0
-0.600 -1.533 1.800 80.0
-0.600 -1.533 2.000 80.0
-0.600 -1.533 2.200 80.0
-0.600 -1.533 2.400 80.0
-0.600 -1.533 2.600 80.0
-0.600 -1.338 0.000 80.0
-0.600 -1.338 0.200 80.0
-0.600 -1.338 0.400 80.0
-0.600 -1.338 0.600 80.0
-0.600 -1.338 0.800 80.0
-0.600 -1.338 1.000 80.0
-0.600 -1.338 1.200 80.0
-0.600 -1.338 1.400 80.0
-0.600 -1.338 1.600 80.0
-0.600 -1.338 1.800 80.0
-0.600 -1.338 2.000 80.0
-0.600 -1.338 2.200 80.0
-0.600 -1.338 2.400 80.0
-0.600 -1.338 2.600 80.0
-0.600 -1.143 0.000 80.0
-0.600 -1.143 0.200 80.0
-0.600 -1.143 0.400 80.0
-0.600 -1.143 0.600 80.0
-0.600 -1.143 0.800 80.0
-0.600 -1.143 1.000 80.0
-0.600 -1.143 1.200 80.0
-0.600 -1.143 1.400 80.0
-0.600 -1.143 1.600 80.0
-0.600 -1.143 1.800 80.0
-0.600 -1.143 2.000 80.0
-0.600 -1.143 2.200 80.0
-0.600 -1.143 2.400 80.0
-0.600 -1.143 2.600 80.0
-0.600 -0.948 0.000 80.0
-0.600 -0.948 0.200 80.0
-0.600 -0.948 0.400 80.0
-0.600 -0.948 0.600 80.0
-0.600 -0.948 0.800 80.0
-0.600 -0.948 1.000 80.0
-0.600 -0.948 1.200 80.0
-0.600 -0.948 1.400 80.0
-0.600 -0.948 1.600 80.0
-0.600 -0.948 1.800 80.0
-0.600 -0.948 2.000 80.0
-0.600 -0.948 2.200 80.0
-0.600 -0.948 2.400 80.0
-0.600 -0.948 2.600 80.0
-0.600 -0.752 0.000 80.0
-0.600 -0.752 0.200 80.0
-0.600 -0.752 0.400 80.0
-0.600 -0.752 0.600 80.0
-0.600 -0.752 0.800 80.0
-0.600 -0.752 1.000 80.0
-0.600 -0.752 1.200 80.0
-0.600 -0.752 1.400 80.0
-0.600 -0.752 1.600 80.0
-0.600 -0.752 1.800 80.0
-0.600 -0.752 2.000 80.0
-0.600 -0.752 2.200 80.0
-0.600 -0.752 2.400 80.0
-0.600 -0.752 2.600 80.0
-0.600 -0.557 0.000 80.0
-0.600 -0.557 0.200 80.0
-0.600 -0.557 0.400 80.0
-0.600 -0.557 0.600 80.0
-0.600 -0.557 0.800 80.0
-0.600 -0.557 1.000 80.0
-0.600 -0.557 1.200 80.0
-0.600 -0.557 1.400 80.0
-0.600 -0.557 1.600 80.0
-0.600 -0.557 1.800 80.0
-0.600 -0.557 2.000 80.0
-0.600 -0.557 2.200 80.0
-0.600 -0.557 2.400 80.0
-0.600 -0.557 2.600 80.0
-0.600 -0.362 0.000 80.0
-0.600 -0.362 0.200 80.0
-0.600 -0.362 0.400 80.0
-0.600 -0.362 0.600 80.0
-0.600 -0.362 0.800 80.0
-0.600 -0.362 1.000 80.0
-0.600 -0.362 1.200 80.0
-0.600 -0.362 1.400 80.0
-0.600 -0.362 1.600 80.0
-0.600 -0.362 1.800 80.0
-0.600 -0.362 2.000 80.0
-0.600 -0.362 2.200 80.0
-0.600 -0.362 2.400 80.0
-0.600 -0.362 2.600 80.0
-0.600 -0.167 0.000 80.0
-0.600 -0.167 0.200 80.0
-0.600 -0.167 0.400 80.0
-0.600 -0.167 0.600 80.0
-0.600 -0.167 0.800 80.0
-0.600 -0.167 1.000 80.0
-0.600 -0.167 1.200 80.0
-0.600 -0.167 1.400 80.0
-0.600 -0.167 1.600 80.0
-0.600 -0.167 1.800 80.0
-0.600 -0.167 2.000 80.0
-0.600 -0.167 2.200 80.0
-0.600 -0.167 2.400 80.0
-0.600 -0.167 2.600 80.0
-0.600 0.029 0.000 80.0
-0.600 0.029 0.200 80.0
-0.600 0.029 0.400 80.0
-0.600 0.029 0.600 80.0
-0.600 0.029 0.800 80.0
-0.600 0.029 1.000 80.0
-0.600 0.029 1.200 80.0
-0.600 0.029 1.400 80.0
-0.600 0.029 1.600 80.0
-0.600 0.029 1.800 80.0
-0.600 0.029 2.000 80.0
-0.600 0.029 2.200 80.0
-0.600 0.029 2.400 80.0
-0.600 0.029 2.600 80.0
-0.600 0.224 0.000 80.0
-0.600 0.224 0.200 80.0
-0.600 0.224 0.400 80.0
-0.600 0.224 0.600 80.0
-0.600 0.224 0.800 80.0
-0.600 0.224 1.000 80.0
-0.600 0.224 1.200 80.0
-0.600 0.224 1.400 80.0
-0.600 0.224 1.600 80.0
-0.600 0.224 1.800 80.0
-0.600 0.224 2.000 80.0
-0.600 0.224 2.200 80.0
-0.600 0.224 2.400 80.0
-0.600 0.224 2.600 80.0
-0.600 0.419 0.000 80.0
-0.600 0.419 0.200 80.0
-0.600 0.419 0.400 80.0
-0.600 0.419 0.600 80.0
-0.600 0.419 0.800 80.0
-0.600 0.419 1.000 80.0
-0.600 0.419 1.200 80.0
-0.600 0.419 1.400 80.0
-0.600 0.419 1.600 80.0
-0.600 0.419 1.800 80.0
-0.600 0.419 2.000 80.0
-0.600 0.419 2.200 80.0
-0.600 0.419 2.400 80.0
-0.600 0.419 2.600 80.0
-0.600 0.614 0.000 80.0
-0.600 0.614 0.200 80.0
-0.600 0.614 0.400 80.0
-0.600 0.614 0.600 80.0
-0.600 0.614 0.800 80.0
-0.600 0.614 1.000 80.0
-0.600 0.614 1.200 80.0
-0.600 0.614 1.400 80.0
-0.600 0.614 1.600 80.0
-0.600 0.614 1.800 80.0
-0.600 0.614 2.000 80.0
-0.600 0.614 2.200 80.0
-0.600 0.614 2.400 80.0
-0.600 0.614 2.600 80.0
-0.600 0.810 0.000 80.0
-0.600 0.810 0.200 80.0
-0.600 0.810 0.400 80.0
-0.600 0.810 0.600 80.0
-0.600 0.810 0.800 80.0
-0.600 0.810 1.000 80.0
-0.600 0.810 1.200 80.0
-0.600 0.810 1.400 80.0
-0.600 0.810 1.600 80.0
-0.600 0.810 1.800 80.0
-0.600 0.810 2.000 80.0
-0.600 0.810 2.200 80.0
-0.600 0.810 2.400 80.0
-0.600 0.810 2.600 80.0
-0.600 1.005 0.000 80.0
-0.600 1.005 0.200 80.0
-0.600 1.005 0.400 80.0
-0.600 1.005 0.600 80.0
-0.600 1.005 0.800 80.0
-0.600 1.005 1.000 80.0
-0.600 1.005 1.200 80.0
-0.600 1.005 1.400 80.0
-0.600 1.005 1.600 80.0
-0.600 1.005 1.800 80.0
-0.600 1.005 2.000 80.0
-0.600 1.005 2.200 80.0
-0.600 1.005 2.400 80.0
-0.600 1.005 2.600 80.0
-0.600 1.200 0.000 80.0
-0.600 1.200 0.200 80.0
-0.600 1.200 0.400 80.0
-0.600 1.200 0.600 80.0
-0.600 1.200 0.800 80.0
-0.600 1.200 1.000 80.0
-0.600 1.200 1.200 80.0
-0.600 1.200 1.400 80.0
-0.600 1.200 1.600 80.0
-0.600 1.200 1.800 80.0
-0.600 1.200 2.000 80.0
-0.600 1.200 2.200 80.0
-0.600 1.200 2.400 80.0
-0.600 1.200 2.600 80.0
1.100 -0.800 0.000 80.0
1.100 -0.800 0.200 80.0
1.100 -0.800 0.400 80.0
1.100 -0.800 0.600 80.0
1.100 -0.800 0.800 80.0
1.100 -0.800 1.000 80.0
1.100 -0.800 1.200 80.0
1.100 -0.800 1.400 80.0
1.100 -0.800 1.600 80.0
1.100 -0.800 1.800 80.0
1.100 -0.800 2.000 80.0
1.100 -0.800 2.200 80.0
1.100 -0.800 2.400 80.0
1.100 -0.800 2.600 80.0
1.100 -0.600 0.000 80.0
1.100 -0.600 0.200 80.0
1.100 -0.600 0.400 80.0
1.100 -0.600 0.600 80.0
1.100 -0.600 0.800 80.0
1.100 -0.600 1.000 80.0
1.100 -0.600 1.200 80.0
1.100 -0.600 1.400 80.0
1.100 -0.600 1.600 80.0
1.100 -0.600 1.800 80.0
1.100 -0.600 2.000 80.0
1.100 -0.600 2.200 80.0
1.100 -0.600 2.400 80.0
1.100 -0.600 2.600 80.0
1.100 -0.400 0.000 80.0
1.100 -0.400 0.200 80.0
1.100 -0.400 0.400 80.0
1.100 -0.400 0.600 80.0
1.100 -0.400 0.800 80.0
1.100 -0.400 1.000 80.0
1.100 -0.400 1.200 80.0
1.100 -0.400 1.400 80.0
1.100 -0.400 1.600 80.0
1.100 -0.400 1.800 80.0
1.100 -0.400 2.000 80.0
1.100 -0.400 2.200 80.0
1.100 -0.400 2.400 80.0
1.100 -0.400 2.600 80.0
1.100 -0.200 0.000 80.0
1.100 -0.200 0.200 80.0
1.100 -0.200 0.400 80.0
1.100 -0.200 0.600 80.0
1.100 -0.200 0.800 80.0
1.100 -0.200 1.000 80.0
1.100 -0.200 1.200 80.0
1.100 -0.200 1.400 80.0
1.100 -0.200 1.600 80.0
1.100 -0.200 1.800 80.0
1.100 -0.200 2.000 80.0
1.100 -0.200 2.200 80.0
1.100 -0.200 2.400 80.0
1.100 -0.200 2.600 80.0
1.100 -0.000 0.000 80.0
1.100 -0.000 0.200 80.0
1.100 -0.000 0.400 80.0
1.100 -0.000 0.600 80.0
1.100 -0.000 0.800 80.0
1.100 -0.000 1.000 80.0
1.100 -0.000 1.200 80.0
1.100 -0.000 1.400 80.0
1.100 -0.000 1.600 80.0
1.100 -0.000 1.800 80.0
1.100 -0.000 2.000 80.0
1.100 -0.000 2.200 80.0
1.100 -0.000 2.400 80.0
1.100 -0.000 2.600 80.0
1.100 0.200 0.000 80.0
1.100 0.200 0.200 80.0
1.100 0.200 0.400 80.0
1.100 0.200 0.600 80.0
1.100 0.200 0.800 80.0
1.100 0.200 1.000 80.0
1.100 0.200 1.200 80.0
1.100 0.200 1.400 80.0
1.100 0.200 1.600 80.0
1.100 0.200 1.800 80.0
1.100 0.200 2.000 80.0
1.100 0.200 2.200 80.0
1.100 0.200 2.400 80.0
1.100 0.200 2.600 80.0
1.100 0.400 0.000 80.0
1.100 0.400 0.200 80.0
1.100 0.400 0.400 80.0
1.100 0.400 0.600 80.0
1.100 0.400 0.800 80.0
1.100 0.400 1.000 80.0
1.100 0.400 1.200 80.0
1.100 0.400 1.400 80.0
1.100 0.400 1.600 80.0
1.100 0.400 1.800 80.0
1.100 0.400 2.000 80.0
1.100 0.400 2.200 80.0
1.100 0.400 2.400 80.0
1.100 0.400 2.600 80.0
1.100 0.600 0.000 80.0
1.100 0.600 0.200 80.0
1.100 0.600 0.400 80.0
1.100 0.600 0.600 80.0
1.100 0.600 0.800 80.0
1.100 0.600 1.000 80.0
1.100 0.600 1.200 80.0
1.100 0.600 1.400 80.0
1.100 0.600 1.600 80.0
1.100 0.600 1.800 80.0
1.100 0.600 2.000 80.0
1.100 0.600 2.200 80.0
1.100 0.600 2.400 80.0
1.100 0.600 2.600 80.0
1.100 0.800 0.000 80.0
1.100 0.800 0.200 80.0
1.100 0.800 0.400 80.0
1.100 0.800 0.600 80.0
1.100 0.800 0.800 80.0
1.100 0.800 1.000 80.0
1.100 0.800 1.200 80.0
1.100 0.800 1.400 80.0
1.100 0.800 1.600 80.0
1.100 0.800 1.800 80.0
1.100 0.800 2.000 80.0
1.100 0.800 2.200 80.0
1.100 0.800 2.400 80.0
1.100 0.800 2.600 80.0
1.100 1.000 0.000 80.0
1.100 1.000 0.200 80.0
1.100 1.000 0.400 80.0
1.100 1.000 0.600 80.0
1.100 1.000 0.800 80.0
1.100 1.000 1.000 80.0
1.100 1.000 1.200 80.0
1.100 1.000 1.400 80.0
1.100 1.000 1.600 80.0
1.100 1.000 1.800 80.0
1.100 1.000 2.000 80.0
1.100 1.000 2.200 80.0
1.100 1.000 2.400 80.0
1.100 1.000 2.600 80.0
1.100 1.200 0.000 80.0
1.100 1.200 0.200 80.0
1.100 1.200 0.400 80.0
1.100 1.200 0.600 80.0
1.100 1.200 0.800 80.0
1.100 1.200 1.000 80.0
1.100 1.200 1.200 80.0
1.100 1.200 1.400 80.0
1.100 1.200 1.600 80.0
1.100 1.200 1.800 80.0
1.100 1.200 2.000 80.0
1.100 1.200 2.200 80.0
1.100 1.200 2.400 80.0
1.100 1.200 2.600 80.0
1.100 1.400 0.000 80.0
1.100 1.400 0.200 80.0
1.100 1.400 0.400 80.0
1.100 1.400 0.600 80.0
1.100 1.400 0.800 80.0
1.100 1.400 1.000 80.0
1.100 1.400 1.200 80.0
1.100 1.400 1.400 80.0
1.100 1.400 1.600 80.0
1.100 1.400 1.800 80.0
1.100 1.400 2.000 80.0
1.100 1.400 2.200 80.0
1.100 1.400 2.400 80.0
1.100 1.400 2.600 80.0
1.100 1.600 0.000 80.0
1.100 1.600 0.200 80.0
1.100 1.600 0.400 80.0
1.100 1.600 0.600 80.0
1.100 1.600 0.800 80.0
1.100 1.600 1.000 80.0
1.100 1.600 1.200 80.0
1.100 1.600 1.400 80.0
1.100 1.600 1.600 80.0
1.100 1.600 1.800 80.0
1.100 1.600 2.000 80.0
1.100 1.600 2.200 80.0
1.100 1.600 2.400 80.0
1.100 1.600 2.600 80.0
1.100 1.800 0.000 80.0
1.100 1.800 0.200 80.0
1.100 1.800 0.400 80.0
1.100 1.800 0.600 80.0
1.100 1.800 0.800 80.0
1.100 1.800 1.000 80.0
1.100 1.800 1.200 80.0
1.100 1.800 1.400 80.0
1.100 1.800 1.600 80.0
1.100 1.800 1.800 80.0
1.100 1.800 2.000 80.0
1.100 1.800 2.200 80.0
1.100 1.800 2.400 80.0
1.100 1.800 2.600 80.0
1.100 2.000 0.000 80.0
1.100 2.000 0.200 80.0
1.100 2.000 0.400 80.0
1.100 2.000 0.600 80.0
1.100 2.000 0.800 80.0
1.100 2.000 1.000 80.0
1.100 2.000 1.200 80.0
1.100 2.000 1.400 80.0
1.100 2.000 1.600 80.0
1.100 2.000 1.800 80.0
1.100 2.000 2.000 80.0
1.100 2.000 2.200 80.0
1.100 2.000 2.400 80.0
1.100 2.000 2.600 80.0
1.100 2.200 0.000 80.0
1.100 2.200 0.200 80.0
1.100 2.200 0.400 80.0
1.100 2.200 0.600 80.0
1.100 2.200 0.800 80.0
1.100 2.200 1.000 80.0
1.100 2.200 1.200 80.0
1.100 2.200 1.400 80.0
1.100 2.200 1.600 80.0
1.100 2.200 1.800 80.0
1.100 2.200 2.000 80.0
1.100 2.200 2.200 80.0
1.100 2.200 2.400 80.0
1.100 2.200 2.600 80.0
1.100 2.400 0.000 80.0
1.100 2.400 0.200 80.0
1.100 2.400 0.400 80.0
1.100 2.400 0.600 80.0
1.100 2.400 0.800 80.0
1.100 2.400 1.000 80.0
1.100 2.400 1.200 80.0
1.100 2.400 1.400 80.0
1.100 2.400 1.600 80.0
1.100 2.400 1.800 80.0
1.100 2.400 2.000 80.0
1.100 2.400 2.200 80.0
1.100 2.400 2.400 80.0
1.100 2.400 2.600 80.0
1.100 2.600 0.000 80.0
1.100 2.600 0.200 80.0
1.100 2.600 0.400 80.0
1.100 2.600 0.600 80.0
1.100 2.600 0.800 80.0
1.100 2.600 1.000 80.0
1.100 2.600 1.200 80.0
1.100 2.600 1.400 80.0
1.100 2.600 1.600 80.0
1.100 2.600 1.800 80.0
1.100 2.600 2.000 80.0
1.100 2.600 2.200 80.0
1.100 2.600 2.400 80.0
1.100 2.600 2.600 80.0
1.100 2.800 0.000 80.0
1.100 2.800 0.200 80.0
1.100 2.800 0.400 80.0
1.100 2.800 0.600 80.0
1.100 2.800 0.800 80.0
1.100 2.800 1.000 80.0
1.100 2.800 1.200 80.0
1.100 2.800 1.400 80.0
1.100 2.800 1.600 80.0
1.100 2.800 1.800 80.0
1.100 2.800 2.000 80.0
1.100 2.800 2.200 80.0
1.100 2.800 2.400 80.0
1.100 2.800 2.600 80.0
1.100 3.000 0.000 80.0
1.100 3.000 0.200 80.0
1.100 3.000 0.400 80.0
1.100 3.000 0.600 80.0
1.100 3.000 0.800 80.0
1.100 3.000 1.000 80.0
1.100 3.000 1.200 80.0
1.100 3.000 1.400 80.0
1.100 3.000 1.600 80.0
1.100 3.000 1.800 80.0
1.100 3.000 2.000 80.0
1.100 3.000 2.200 80.0
1.100 3.000 2.400 80.0
1.100 3.000 2.600 80.0
1.200 -0.800 0.000 80.0
1.200 -0.800 0.200 80.0
1.200 -0.800 0.400 80.0
1.200 -0.800 0.600 80.0
1.200 -0.800 0.800 80.0
1.200 -0.800 1.000 80.0
1.200 -0.800 1.200 80.0
1.200 -0.800 1.400 80.0
1.200 -0.800 1.600 80.0
1.200 -0.800 1.800 80.0
1.200 -0.800 2.000 80.0
1.200 -0.800 2.200 80.0
1.200 -0.800 2.400 80.0
1.200 -0.800 2.600 80.0
1.200 -0.600 0.000 80.0
1.200 -0.600 0.200 80.0
1.200 -0.600 0.400 80.0
1.200 -0.600 0.600 80.0
1.200 -0.600 0.800 80.0
1.200 -0.600 1.000 80.0
1.200 -0.600 1.200 80.0
1.200 -0.600 1.400 80.0
1.200 -0.600 1.600 80.0
1.200 -0.600 1.800 80.0
1.200 -0.600 2.000 80.0
1.200 -0.600 2.200 80.0
1.200 -0.600 2.400 80.0
1.200 -0.600 2.600 80.0
1.200 -0.400 0.000 80.0
1.200 -0.400 0.200 80.0
1.200 -0.400 0.400 80.0
1.200 -0.400 0.600 80.0
1.200 -0.400 0.800 80.0
1.200 -0.400 1.000 80.0
1.200 -0.400 1.200 80.0
1.200 -0.400 1.400 80.0
1.200 -0.400 1.600 80.0
1.200 -0.400 1.800 80.0
1.200 -0.400 2.000 80.0
1.200 -0.400 2.200 80.0
1.200 -0.400 2.400 80.0
1.200 -0.400 2.600 80.0
1.200 -0.200 0.000 80.0
1.200 -0.200 0.200 80.0
1.200 -0.200 0.400 80.0
1.200 -0.200 0.600 80.0
1.200 -0.200 0.800 80.0
1.200 -0.200 1.000 80.0
1.200 -0.200 1.200 80.0
1.200 -0.200 1.400 80.0
1.200 -0.200 1.600 80.0
1.200 -0.200 1.800 80.0
1.200 -0.200 2.000 80.0
1.200 -0.200 2.200 80.0
1.200 -0.200 2.400 80.0
1.200 -0.200 2.600 80.0
1.200 -0.000 0.000 80.0
1.200 -0.000 0.200 80.0
1.200 -0.000 0.400 80.0
1.200 -0.000 0.600 80.0
1.200 -0.000 0.800 80.0
1.200 -0.000 1.000 80.0
1.200 -0.000 1.200 80.0
1.200 -0.000 1.400 80.0
1.200 -0.000 1.600 80.0
1.200 -0.000 1.800 80.0
1.200 -0.000 2.000 80.0
1.200 -0.000 2.200 80.0
1.200 -0.000 2.400 80.0
1.200 -0.000 2.600 80.0
1.200 0.200 0.000 80.0
1.200 0.200 0.200 80.0
1.200 0.200 0.400 80.0
1.200 0.200 0.600 80.0
1.200 0.200 0.800 80.0
1.200 0.200 1.000 80.0
1.200 0.200 1.200 80.0
1.200 0.200 1.400 80.0
1.200 0.200 1.600 80.0
1.200 0.200 1.800 80.0
1.200 0.200 2.000 80.0
1.200 0.200 2.200 80.0
1.200 0.200 2.400 80.0
1.200 0.200 2.600 80.0
1.200 0.400 0.000 80.0
1.200 0.400 0.200 80.0
1.200 0.400 0.400 80.0
1.200 0.400 0.600 80.0
1.200 0.400 0.800 80.0
1.200 0.400 1.000 80.0
1.200 0.400 1.200 80.0
1.200 0.400 1.400 80.0
1.200 0.400 1.600 80.0
1.200 0.400 1.800 80.0
1.200 0.400 2.000 80.0
1.200 0.400 2.200 80.0
1.200 0.400 2.400 80.0
1.200 0.400 2.600 80.0
1.200 0.600 0.000 80.0
1.200 0.600 0.200 80.0
1.200 0.600 0.400 80.0
1.200 0.600 0.600 80.0
1.200 0.600 0.800 80.0
1.200 0.600 1.000 80.0
1.200 0.600 1.200 80.0
1.200 0.600 1.400 80.0
1.200 0.600 1.600 80.0
1.200 0.600 1.800 80.0
1.200 0.600 2.000 80.0
1.200 0.600 2.200 80.0
1.200 0.600 2.400 80.0
1.200 0.600 2.600 80.0
1.200 0.800 0.000 80.0
1.200 0.800 0.200 80.0
1.200 0.800 0.400 80.0
1.200 0.800 0.600 80.0
1.200 0.800 0.800 80.0
1.200 0.800 1.000 80.0
1.200 0.800 1.200 80.0
1.200 0.800 1.400 80.0
1.200 0.800 1.600 80.0
1.200 0.800 1.800 80.0
1.200 0.800 2.000 80.0
1.200 0.800 2.200 80.0
1.200 0.800 2.400 80.0
1.200 0.800 2.600 80.0
1.200 1.000 0.000 80.0
1.200 1.000 0.200 80.0
1.200 1.000 0.400 80.0
1.200 1.000 0.600 80.0
1.200 1.000 0.800 80.0
1.200 1.000 1.000 80.0
1.200 1.000 1.200 80.0
1.200 1.000 1.400 80.0
1.200 1.000 1.600 80.0
1.200 1.000 1.800 80.0
1.200 1.000 2.000 80.0
1.200 1.000 2.200 80.0
1.200 1.000 2.400 80.0
1.200 1.000 2.600 80.0
1.200 1.200 0.000 80.0
1.200 1.200 0.200 80.0
1.200 1.200 0.400 80.0
1.200 1.200 0.600 80.0
1.200 1.200 0.800 80.0
1.200 1.200 1.000 80.0
1.200 1.200 1.200 80.0
1.200 1.200 1.400 80.0
1.200 1.200 1.600 80.0
1.200 1.200 1.800 80.0
1.200 1.200 2.000 80.0
1.200 1.200 2.200 80.0
1.200 1.200 2.400 80.0
1.200 1.200 2.600 80.0
1.200 1.400 0.000 80.0
1.200 1.400 0.200 80.0
1.200 1.400 0.400 80.0
1.200 1.400 0.600 80.0
1.200 1.400 0.800 80.0
1.200 1.400 1.000 80.0
1.200 1.400 1.200 80.0
1.200 1.400 1.400 80.0
1.200 1.400 1.600 80.0
1.200 1.400 1.800 80.0
1.200 1.400 2.000 80.0
1.200 1.400 2.200 80.0
1.200 1.400 2.400 80.0
1.200 1.400 2.600 80.0
1.200 1.600 0.000 80.0
1.200 1.600 0.200 80.0
1.200 1.600 0.400 80.0
1.200 1.600 0.600 80.0
1.200 1.600 0.800 80.0
1.200 1.600 1.000 80.0
1.200 1.600 1.200 80.0
1.200 1.600 1.400 80.0
1.200 1.600 1.600 80.0
1.200 1.600 1.800 80.0
1.200 1.600 2.000 80.0
1.200 1.600 2.200 80.0
1.200 1.600 2.400 80.0
1.200 1.600 2.600 80.0
1.200 1.800 0.000 80.0
1.200 1.800 0.200 80.0
1.200 1.800 0.400 80.0
1.200 1.800 0.600 80.0
1.200 1.800 0.800 80.0
1.200 1.800 1.000 80.0
1.200 1.800 1.200 80.0
1.200 1.800 1.400 80.0
1.200 1.800 1.600 80.0
1.200 1.800 1.800 80.0
1.200 1.800 2.000 80.0
1.200 1.800 2.200 80.0
1.200 1.800 2.400 80.0
1.200 1.800 2.600 80.0
1.200 2.000 0.000 80.0
1.200 2.000 0.200 80.0
1.200 2.000 0.400 80.0
1.200 2.000 0.600 80.0
1.200 2.000 0.800 80.0
1.200 2.000 1.000 80.0
1.200 2.000 1.200 80.0
1.200 2.000 1.400 80.0
1.200 2.000 1.600 80.0
1.200 2.000 1.800 80.0
1.200 2.000 2.000 80.0
1.200 2.000 2.200 80.0
1.200 2.000 2.400 80.0
1.200 2.000 2.600 80.0
1.200 2.200 0.000 80.0
1.200 2.200 0.200 80.0
1.200 2.200 0.400 80.0
1.200 2.200 0.600 80.0
1.200 2.200 0.800 80.0
1.200 2.200 1.000 80.0
1.200 2.200 1.200 80.0
1.200 2.200 1.400 80.0
1.200 2.200 1.600 80.0
1.200 2.200 1.800 80.0
1.200 2.200 2.000 80.0
1.200 2.200 2.200 80.0
1.200 2.200 2.400 80.0
1.200 2.200 2.600 80.0
1.200 2.400 0.000 80.0
1.200 2.400 0.200 80.0
1.200 2.400 0.400 80.0
1.200 2.400 0.600 80.0
1.200 2.400 0.800 80.0
1.200 2.400 1.000 80.0
1.200 2.400 1.200 80.0
1.200 2.400 1.400 80.0
1.200 2.400 1.600 80.0
1.200 2.400 1.800 80.0
1.200 2.400 2.000 80.0
1.200 2.400 2.200 80.0
1.200 2.400 2.400 80.0
1.200 2.400 2.600 80.0
1.200 2.600 0.000 80.0
1.200 2.600 0.200 80.0
1.200 2.600 0.400 80.0
1.200 2.600 0.600 80.0
1.200 2.600 0.800 80.0
1.200 2.600 1.000 80.0
1.200 2.600 1.200 80.0
1.200 2.600 1.400 80.0
1.200 2.600 1.600 80.0
1.200 2.600 1.800 80.0
1.200 2.600 2.000 80.0
1.200 2.600 2.200 80.0
1.200 2.600 2.400 80.0
1.200 2.600 2.600 80.0
1.200 2.800 0.000 80.0
1.200 2.800 0.200 80.0
1.200 2.800 0.400 80.0
1.200 2.800 0.600 80.0
1.200 2.800 0.800 80.0
1.200 2.800 1.000 80.0
1.200 2.800 1.200 80.0
1.200 2.800 1.400 80.0
1.200 2.800 1.600 80.0
1.200 2.800 1.800 80.0
1.200 2.800 2.000 80.0
1.200 2.800 2.200 80.0
1.200 2.800 2.400 80.0
1.200 2.800 2.600 80.0
1.200 3.000 0.000 80.0
1.200 3.000 0.200 80.0
1.200 3.000 0.400 80.0
1.200 3.000 0.600 80.0
1.200 3.000 0.800 80.0
1.200 3.000 1.000 80.0
1.200 3.000 1.200 80.0
1.200 3.000 1.400 80.0
1.200 3.000 1.600 80.0
1.200 3.000 1.800 80.0
1.200 3.000 2.000 80.0
1.200 3.000 2.200 80.0
1.200 3.000 2.400 80.0
1.200 3.000 2.600 80.0
1.300 -0.800 0.000 80.0
1.300 -0.800 0.200 80.0
1.300 -0.800 0.400 80.0
1.300 -0.800 0.600 80.0
1.300 -0.800 0.800 80.0
1.300 -0.800 1.000 80.0
1.300 -0.800 1.200 80.0
1.300 -0.800 1.400 80.0
1.300 -0.800 1.600 80.0
1.300 -0.800 1.800 80.0
1.300 -0.800 2.000 80.0
1.300 -0.800 2.200 80.0
1.300 -0.800 2.400 80.0
1.300 -0.800 2.600 80.0
1.300 -0.600 0.000 80.0
1.300 -0.600 0.200 80.0
1.300 -0.600 0.400 80.0
1.300 -0.600 0.600 80.0
1.300 -0.600 0.800 80.0
1.300 -0.600 1.000 80.0
1.300 -0.600 1.200 80.0
1.300 -0.600 1.400 80.0
1.300 -0.600 1.600 80.0
1.300 -0.600 1.800 80.0
1.300 -0.600 2.000 80.0
1.300 -0.600 2.200 80.0
1.300 -0.600 2.400 80.0
1.300 -0.600 2.600 80.0
1.300 -0.400 0.000 80.0
1.300 -0.400 0.200 80.0
1.300 -0.400 0.400 80.0
1.300 -0.400 0.600 80.0
1.300 -0.400 0.800 80.0
1.300 -0.400 1.000 80.0
1.300 -0.400 1.200 80.0
1.300 -0.400 1.400 80.0
1.300 -0.400 1.600 80.0
1.300 -0.400 1.800 80.0
1.300 -0.400 2.000 80.0
1.300 -0.400 2.200 80.0
1.300 -0.400 2.400 80.0
1.300 -0.400 2.600 80.0
1.300 -0.200 0.000 80.0
1.300 -0.200 0.200 80.0
1.300 -0.200 0.400 80.0
1.300 -0.200 0.600 80.0
1.300 -0.200 0.800 80.0
1.300 -0.200 1.000 80.0
1.300 -0.200 1.200 80.0
1.300 -0.200 1.400 80.0
1.300 -0.200 1.600 80.0
1.300 -0.200 1.800 80.0
1.300 -0.200 2.000 80.0
1.300 -0.200 2.200 80.0
1.300 -0.200 2.400 80.0
1.300 -0.200 2.600 80.0
1.300 -0.000 0.000 80.0
1.300 -0.000 0.200 80.0
1.300 -0.000 0.400 80.0
1.300 -0.000 0.600 80.0
1.300 -0.000 0.800 80.0
1.300 -0.000 1.000 80.0
1.300 -0.000 1.200 80.0
1.300 -0.000 1.400 80.0
1.300 -0.000 1.600 80.0
1.300 -0.000 1.800 80.0
1.300 -0.000 2.000 80.0
1.300 -0.000 2.200 80.0
1.300 -0.000 2.400 80.0
1.300 -0.000 2.600 80.0
1.300 0.200 0.000 80.0
1.300 0.200 0.200 80.0
1.300 0.200 0.400 80.0
1.300 0.200 0.600 80.0
1.300 0.200 0.800 80.0
1.300 0.200 1.000 80.0
1.300 0.200 1.200 80.0
1.300 0.200 1.400 80.0
1.300 0.200 1.600 80.0
1.300 0.200 1.800 80.0
1.300 0.200 2.000 80.0
1.300 0.200 2.200 80.0
1.300 0.200 2.400 80.0
1.300 0.200 2.600 80.0
1.300 0.400 0.000 80.0
1.300 0.400 0.200 80.0
1.300 0.400 0.400 80.0
1.300 0.400 0.600 80.0
1.300 0.400 0.800 80.0
1.300 0.400 1.000 80.0
1.300 0.400 1.200 80.0
1.300 0.400 1.400 80.0
1.300 0.400 1.600 80.0
1.300 0.400 1.800 80.0
1.300 0.400 2.000 80.0
1.300 0.400 2.200 80.0
1.300 0.400 2.400 80.0
1.300 0.400 2.600 80.0
1.300 0.600 0.000 80.0
1.300 0.600 0.200 80.0
1.300 0.600 0.400 80.0
1.300 0.600 0.600 80.0
1.300 0.600 0.800 80.0
1.300 0.600 1.000 80.0
1.300 0.600 1.200 80.0
1.300 0.600 1.400 80.0
1.300 0.600 1.600 80.0
1.300 0.600 1.800 80.0
1.300 0.600 2.000 80.0
1.300 0.600 2.200 80.0
1.300 0.600 2.400 80.0
1.300 0.600 2.600 80.0
1.300 0.800 0.000 80.0
1.300 0.800 0.200 80.0
1.300 0.800 0.400 80.0
1.300 0.800 0.600 80.0
1.300 0.800 0.800 80.0
1.300 0.800 1.000 80.0
1.300 0.800 1.200 80.0
1.300 0.800 1.400 80.0
1.300 0.800 1.600 80.0
1.300 0.800 1.800 80.0
1.300 0.800 2.000 80.0
1.300 0.800 2.200 80.0
1.300 0.800 2.400 80.0
1.300 0.800 2.600 80.0
1.300 1.000 0.000 80.0
1.300 1.000 0.200 80.0
1.300 1.000 0.400 80.0
1.300 1.000 0.600 80.0
1.300 1.000 0.800 80.0
1.300 1.000 1.000 80.0
1.300 1.000 1.200 80.0
1.300 1.000 1.400 80.0
1.300 1.000 1.600 80.0
1.300 1.000 1.800 80.0
1.300 1.000 2.000 80.0
1.300 1.000 2.200 80.0
1.300 1.000 2.400 80.0
1.300 1.000 2.600 80.0
1.300 1.200 0.000 80.0
1.300 1.200 0.200 80.0
1.300 1.200 0.400 80.0
1.300 1.200 0.600 80.0
1.300 1.200 0.800 80.0
1.300 1.200 1.000 80.0
1.300 1.200 1.200 80.0
1.300 1.200 1.400 80.0
1.300 1.200 1.600 80.0
1.300 1.200 1.800 80.0
1.300 1.200 2.000 80.0
1.300 1.200 2.200 80.0
1.300 1.200 2.400 80.0
1.300 1.200 2.600 80.0
1.300 1.400 0.000 80.0
1.300 1.400 0.200 80.0
1.300 1.400 0.400 80.0
1.300 1.400 0.600 80.0
1.300 1.400 0.800 80.0
1.300 1.400 1.000 80.0
1.300 1.400 1.200 80.0
1.300 1.400 1.400 80.0
1.300 1.400 1.600 80.0
1.300 1.400 1.800 80.0
1.300 1.400 2.000 80.0
1.300 1.400 2.200 80.0
1.300 1.400 2.400 80.0
1.300 1.400 2.600 80.0
1.300 1.600 0.000 80.0
1.300 1.600 0.200 80.0
1.300 1.600 0.400 80.0
1.300 1.600 0.600 80.0
1.300 1.600 0.800 80.0
1.300 1.600 1.000 80.0
1.300 1.600 1.200 80.0
1.300 1.600 1.400 80.0
1.300 1.600 1.600 80.0
1.300 1.600 1.800 80.0
1.300 1.600 2.000 80.0
1.300 1.600 2.200 80.0
1.300 1.600 2.400 80.0
1.300 1.600 2.600 80.0
1.300 1.800 0.000 80.0
1.300 1.800 0.200 80.0
1.300 1.800 0.400 80.0
1.300 1.800 0.600 80.0
1.300 1.800 0.800 80.0
1.300 1.800 1.000 80.0
1.300 1.800 1.200 80.0
1.300 1.800 1.400 80.0
1.300 1.800 1.600 80.0
1.300 1.800 1.800 80.0
1.300 1.800 2.000 80.0
1.300 1.800 2.200 80.0
1.300 1.800 2.400 80.0
1.300 1.800 2.600 80.0
1.300 2.000 0.000 80.0
1.300 2.000 0.200 80.0
1.300 2.000 0.400 80.0
1.300 2.000 0.600 80.0
1.300 2.000 0.800 80.0
1.300 2.000 1.000 80.0
1.300 2.000 1.200 80.0
1.300 2.000 1.400 80.0
1.300 2.000 1.600 80.0
1.300 2.000 1.800 80.0
1.300 2.000 2.000 80.0
1.300 2.000 2.200 80.0
1.300 2.000 2.400 80.0
1.300 2.000 2.600 80.0
1.300 2.200 0.000 80.0
1.300 2.200 0.200 80.0
1.300 2.200 0.400 80.0
1.300 2.200 0.600 80.0
1.300 2.200 0.800 80.0
1.300 2.200 1.000 80.0
1.300 2.200 1.200 80.0
1.300 2.200 1.400 80.0
1.300 2.200 1.600 80.0
1.300 2.200 1.800 80.0
1.300 2.200 2.000 80.0
1.300 2.200 2.200 80.0
1.300 2.200 2.400 80.0
1.300 2.200 2.600 80.0
1.300 2.400 0.000 80.0
1.300 2.400 0.200 80.0
1.300 2.400 0.400 80.0
1.300 2.400 0.600 80.0
1.300 2.400 0.800 80.0
1.300 2.400 1.000 80.0
1.300 2.400 1.200 80.0
1.300 2.400 1.400 80.0
1.300 2.400 1.600 80.0
1.300 2.400 1.800 80.0
1.300 2.400 2.000 80.0
1.300 2.400 2.200 80.0
1.300 2.400 2.400 80.0
1.300 2.400 2.600 80.0
1.300 2.600 0.000 80.0
1.300 2.600 0.200 80.0
1.300 2.600 0.400 80.0
1.300 2.600 0.600 80.0
1.300 2.600 0.800 80.0
1.300 2.600 1.000 80.0
1.300 2.600 1.200 80.0
1.300 2.600 1.400 80.0
1.300 2.600 1.600 80.0
1.300 2.600 1.800 80.0
1.300 2.600 2.000 80.0
1.300 2.600 2.200 80.0
1.300 2.600 2.400 80.0
1.300 2.600 2.600 80.0
1.300 2.800 0.000 80.0
1.300 2.800 0.200 80.0
1.300 2.800 0.400 80.0
1.300 2.800 0.600 80.0
1.300 2.800 0.800 80.0
1.300 2.800 1.000 80.0
1.300 2.800 1.200 80.0
1.300 2.800 1.400 80.0
1.300 2.800 1.600 80.0
1.300 2.800 1.800 80.0
1.300 2.800 2.000 80.0
1.300 2.800 2.200 80.0
1.300 2.800 2.400 80.0
1.300 2.800 2.600 80.0
1.300 3.000 0.000 80.0
1.300 3.000 0.200 80.0
1.300 3.000 0.400 80.0
1.300 3.000 0.600 80.0
1.300 3.000 0.800 80.0
1.300 3.000 1.000 80.0
1.300 3.000 1.200 80.0
1.300 3.000 1.400 80.0
1.300 3.000 1.600 80.0
1.300 3.000 1.800 80.0
1.300 3.000 2.000 80.0
1.300 3.000 2.200 80.0
1.300 3.000 2.400 80.0
1.300 3.000 2.600 80.0
2.360 -1.200 0.000 80.0
2.360 -1.200 0.160 80.0
2.360 -1.200 0.320 80.0
2.360 -1.200 0.480 80.0
2.360 -1.200 0.640 80.0
2.360 -1.200 0.800 80.0
2.360 -1.200 0.960 80.0
2.360 -1.200 1.120 80.0
2.360 -1.200 1.280 80.0
2.360 -1.200 1.440 80.0
2.360 -1.200 1.600 80.0
2.360 -1.200 1.760 80.0
2.360 -1.200 1.920 80.0
2.360 -1.200 2.080 80.0
2.360 -1.200 2.240 80.0
2.360 -1.200 2.400 80.0
2.367 -1.271 0.000 80.0
2.367 -1.271 0.160 80.0
2.367 -1.271 0.320 80.0
2.367 -1.271 0.480 80.0
2.367 -1.271 0.640 80.0
2.367 -1.271 0.800 80.0
2.367 -1.271 0.960 80.0
2.367 -1.271 1.120 80.0
2.367 -1.271 1.280 80.0
2.367 -1.271 1.440 80.0
2.367 -1.271 1.600 80.0
2.367 -1.271 1.760 80.0
2.367 -1.271 1.920 80.0
2.367 -1.271 2.080 80.0
2.367 -1.271 2.240 80.0
2.367 -1.271 2.400 80.0
2.367 -1.129 0.000 80.0
2.367 -1.129 0.160 80.0
2.367 -1.129 0.320 80.0
2.367 -1.129 0.480 80.0
2.367 -1.129 0.640 80.0
2.367 -1.129 0.800 80.0
2.367 -1.129 0.960 80.0
2.367 -1.129 1.120 80.0
2.367 -1.129 1.280 80.0
2.367 -1.129 1.440 80.0
2.367 -1.129 1.600 80.0
2.367 -1.129 1.760 80.0
2.367 -1.129 1.920 80.0
2.367 -1.129 2.080 80.0
2.367 -1.129 2.240 80.0
2.367 -1.129 2.400 80.0
2.389 -1.338 0.000 80.0
2.389 -1.338 0.160 80.0
2.389 -1.338 0.320 80.0
2.389 -1.338 0.480 80.0
2.389 -1.338 0.640 80.0
2.389 -1.338 0.800 80.0
2.389 -1.338 0.960 80.0
2.389 -1.338 1.120 80.0
2.389 -1.338 1.280 80.0
2.389 -1.338 1.440 80.0
2.389 -1.338 1.600 80.0
2.389 -1.338 1.760 80.0
2.389 -1.338 1.920 80.0
2.389 -1.338 2.080 80.0
2.389 -1.338 2.240 80.0
2.389 -1.338 2.400 80.0
2.389 -1.062 0.000 80.0
2.389 -1.062 0.160 80.0
2.389 -1.062 0.320 80.0
2.389 -1.062 0.480 80.0
2.389 -1.062 0.640 80.0
2.389 -1.062 0.800 80.0
2.389 -1.062 0.960 80.0
2.389 -1.062 1.120 80.0
2.389 -1.062 1.280 80.0
2.389 -1.062 1.440 80.0
2.389 -1.062 1.600 80.0
2.389 -1.062 1.760 80.0
2.389 -1.062 1.920 80.0
2.389 -1.062 2.080 80.0
2.389 -1.062 2.240 80.0
2.389 -1.062 2.400 80.0
2.425 -1.400 0.000 80.0
2.425 -1.400 0.160 80.0
2.425 -1.400 0.320 80.0
2.425 -1.400 0.480 80.0
2.425 -1.400 0.640 80.0
2.425 -1.400 0.800 80.0
2.425 -1.400 0.960 80.0
2.425 -1.400 1.120 80.0
2.425 -1.400 1.280 80.0
2.425 -1.400 1.440 80.0
2.425 -1.400 1.600 80.0
2.425 -1.400 1.760 80.0
2.425 -1.400 1.920 80.0
2.425 -1.400 2.080 80.0
2.425 -1.400 2.240 80.0
2.425 -1.400 2.400 80.0
2.425 -1.000 0.000 80.0
2.425 -1.000 0.160 80.0
2.425 -1.000 0.320 80.0
2.425 -1.000 0.480 80.0
2.425 -1.000 0.640 80.0
2.425 -1.000 0.800 80.0
2.425 -1.000 0.960 80.0
2.425 -1.000 1.120 80.0
2.425 -1.000 1.280 80.0
2.425 -1.000 1.440 80.0
2.425 -1.000 1.600 80.0
2.425 -1.000 1.760 80.0
2.425 -1.000 1.920 80.0
2.425 -1.000 2.080 80.0
2.425 -1.000 2.240 80.0
2.425 -1.000 2.400 80.0
2.472 -1.453 0.000 80.0
2.472 -1.453 0.160 80.0
2.472 -1.453 0.320 80.0
2.472 -1.453 0.480 80.0
2.472 -1.453 0.640 80.0
2.472 -1.453 0.800 80.0
2.472 -1.453 0.960 80.0
2.472 -1.453 1.120 80.0
2.472 -1.453 1.280 80.0
2.472 -1.453 1.440 80.0
2.472 -1.453 1.600 80.0
2.472 -1.453 1.760 80.0
2.472 -1.453 1.920 80.0
2.472 -1.453 2.080 80.0
2.472 -1.453 2.240 80.0
2.472 -1.453 2.400 80.0
2.472 -0.947 0.000 80.0
2.472 -0.947 0.160 80.0
2.472 -0.947 0.320 80.0
2.472 -0.947 0.480 80.0
2.472 -0.947 0.640 80.0
2.472 -0.947 0.800 80.0
2.472 -0.947 0.960 80.0
2.472 -0.947 1.120 80.0
2.472 -0.947 1.280 80.0
2.472 -0.947 1.440 80.0
2.472 -0.947 1.600 80.0
2.472 -0.947 1.760 80.0
2.472 -0.947 1.920 80.0
2.472 -0.947 2.080 80.0
2.472 -0.947 2.240 80.0
2.472 -0.947 2.400 80.0
2.530 -1.494 0.000 80.0
2.530 -1.494 0.160 80.0
2.530 -1.494 0.320 80.0
2.530 -1.494 0.480 80.0
2.530 -1.494 0.640 80.0
2.530 -1.494 0.800 80.0
2.530 -1.494 0.960 80.0
2.530 -1.494 1.120 80.0
2.530 -1.494 1.280 80.0
2.530 -1.494 1.440 80.0
2.530 -1.494 1.600 80.0
2.530 -1.494 1.760 80.0
2.530 -1.494 1.920 80.0
2.530 -1.494 2.080 80.0
2.530 -1.494 2.240 80.0
2.530 -1.494 2.400 80.0
2.530 -0.906 0.000 80.0
2.530 -0.906 0.160 80.0
2.530 -0.906 0.320 80.0
2.530 -0.906 0.480 80.0
2.530 -0.906 0.640 80.0
2.530 -0.906 0.800 80.0
2.530 -0.906 0.960 80.0
2.530 -0.906 1.120 80.0
2.530 -0.906 1.280 80.0
2.530 -0.906 1.440 80.0
2.530 -0.906 1.600 80.0
2.530 -0.906 1.760 80.0
2.530 -0.906 1.920 80.0
2.530 -0.906 2.080 80.0
2.530 -0.906 2.240 80.0
2.530 -0.906 2.400 80.0
2.595 -1.523 0.000 80.0
2.595 -1.523 0.160 80.0
2.595 -1.523 0.320 80.0
2.595 -1.523 0.480 80.0
2.595 -1.523 0.640 80.0
2.595 -1.523 0.800 80.0
2.595 -1.523 0.960 80.0
2.595 -1.523 1.120 80.0
2.595 -1.523 1.280 80.0
2.595 -1.523 1.440 80.0
2.595 -1.523 1.600 80.0
2.595 -1.523 1.760 80.0
2.595 -1.523 1.920 80.0
2.595 -1.523 2.080 80.0
2.595 -1.523 2.240 80.0
2.595 -1.523 2.400 80.0
2.595 -0.877 0.000 80.0
2.595 -0.877 0.160 80.0
2.595 -0.877 0.320 80.0
2.595 -0.877 0.480 80.0
2.595 -0.877 0.640 80.0
2.595 -0.877 0.800 80.0
2.595 -0.877 0.960 80.0
2.595 -0.877 1.120 80.0
2.595 -0.877 1.280 80.0
2.595 -0.877 1.440 80.0
2.595 -0.877 1.600 80.0
2.595 -0.877 1.760 80.0
2.595 -0.877 1.920 80.0
2.595 -0.877 2.080 80.0
2.595 -0.877 2.240 80.0
2.595 -0.877 2.400 80.0
2.664 -1.538 0.000 80.0
2.664 -1.538 0.160 80.0
2.664 -1.538 0.320 80.0
2.664 -1.538 0.480 80.0
2.664 -1.538 0.640 80.0
2.664 -1.538 0.800 80.0
2.664 -1.538 0.960 80.0
2.664 -1.538 1.120 80.0
2.664 -1.538 1.280 80.0
2.664 -1.538 1.440 80.0
2.664 -1.538 1.600 80.0
2.664 -1.538 1.760 80.0
2.664 -1.538 1.920 80.0
2.664 -1.538 2.080 80.0
2.664 -1.538 2.240 80.0
2.664 -1.538 2.400 80.0
2.664 -0.862 0.000 80.0
2.664 -0.862 0.160 80.0
2.664 -0.862 0.320 80.0
2.664 -0.862 0.480 80.0
2.664 -0.862 0.640 80.0
2.664 -0.862 0.800 80.0
2.664 -0.862 0.960 80.0
2.664 -0.862 1.120 80.0
2.664 -0.862 1.280 80.0
2.664 -0.862 1.440 80.0
2.664 -0.862 1.600 80.0
2.664 -0.862 1.760 80.0
2.664 -0.862 1.920 80.0
2.664 -0.862 2.080 80.0
2.664 -0.862 2.240 80.0
2.664 -0.862 2.400 80.0
2.736 -1.538 0.000 80.0
2.736 -1.538 0.160 80.0
2.736 -1.538 0.320 80.0
2.736 -1.538 0.480 80.0
2.736 -1.538 0.640 80.0
2.736 -1.538 0.800 80.0
2.736 -1.538 0.960 80.0
2.736 -1.538 1.120 80.0
2.736 -1.538 1.280 80.0
2.736 -1.538 1.440 80.0
2.736 -1.538 1.600 80.0
2.736 -1.538 1.760 80.0
2.736 -1.538 1.920 80.0
2.736 -1.538 2.080 80.0
2.736 -1.538 2.240 80.0
2.736 -1.538 2.400 80.0
2.736 -0.862 0.000 80.0
2.736 -0.862 0.160 80.0
2.736 -0.862 0.320 80.0
2.736 -0.862 0.480 80.0
2.736 -0.862 0.640 80.0
2.736 -0.862 0.800 80.0
2.736 -0.862 0.960 80.0
2.736 -0.862 1.120 80.0
2.736 -0.862 1.280 80.0
2.736 -0.862 1.440 80.0
2.736 -0.862 1.600 80.0
2.736 -0.862 1.760 80.0
2.736 -0.862 1.920 80.0
2.736 -0.862 2.080 80.0
2.736 -0.862 2.240 80.0
2.736 -0.862 2.400 80.0
2.805 -1.523 0.000 80.0
2.805 -1.523 0.160 80.0
2.805 -1.523 0.320 80.0
2.805 -1.523 0.480 80.0
2.805 -1.523 0.640 80.0
2.805 -1.523 0.800 80.0
2.805 -1.523 0.960 80.0
2.805 -1.523 1.120 80.0
2.805 -1.523 1.280 80.0
2.805 -1.523 1.440 80.0
2.805 -1.523 1.600 80.0
2.805 -1.523 1.760 80.0
2.805 -1.523 1.920 80.0
2.805 -1.523 2.080 80.0
2.805 -1.523 2.240 80.0
2.805 -1.523 2.400 80.0
2.805 -0.877 0.000 80.0
2.805 -0.877 0.160 80.0
2.805 -0.877 0.320 80.0
2.805 -0.877 0.480 80.0
2.805 -0.877 0.640 80.0
2.805 -0.877 0.800 80.0
2.805 -0.877 0.960 80.0
2.805 -0.877 1.120 80.0
2.805 -0.877 1.280 80.0
2.805 -0.877 1.440 80.0
2.805 -0.877 1.600 80.0
2.805 -0.877 1.760 80.0
2.805 -0.877 1.920 80.0
2.805 -0.877 2.080 80.0
2.805 -0.877 2.240 80.0
2.805 -0.877 2.400 80.0
2.870 -1.494 0.000 80.0
2.870 -1.494 0.160 80.0
2.870 -1.494 0.320 80.0
2.870 -1.494 0.480 80.0
2.870 -1.494 0.640 80.0
2.870 -1.494 0.800 80.0
2.870 -1.494 0.960 80.0
2.870 -1.494 1.120 80.0
2.870 -1.494 1.280 80.0
2.870 -1.494 1.440 80.0
2.870 -1.494 1.600 80.0
2.870 -1.494 1.760 80.0
2.870 -1.494 1.920 80.0
2.870 -1.494 2.080 80.0
2.870 -1.494 2.240 80.0
2.870 -1.494 2.400 80.0
2.870 -0.906 0.000 80.0
2.870 -0.906 0.160 80.0
2.870 -0.906 0.320 80.0
2.870 -0.906 0.480 80.0
2.870 -0.906 0.640 80.0
2.870 -0.906 0.800 80.0
2.870 -0.906 0.960 80.0
2.870 -0.906 1.120 80.0
2.870 -0.906 1.280 80.0
2.870 -0.906 1.440 80.0
2.870 -0.906 1.600 80.0
2.870 -0.906 1.760 80.0
2.870 -0.906 1.920 80.0
2.870 -0.906 2.080 80.0
2.870 -0.906 2.240 80.0
2.870 -0.906 2.400 80.0
2.928 -1.453 0.000 80.0
2.928 -1.453 0.160 80.0
2.928 -1.453 0.320 80.0
2.928 -1.453 0.480 80.0
2.928 -1.453 0.640 80.0
2.928 -1.453 0.800 80.0
2.928 -1.453 0.960 80.0
2.928 -1.453 1.120 80.0
2.928 -1.453 1.280 80.0
2.928 -1.453 1.440 80.0
2.928 -1.453 1.600 80.0
2.928 -1.453 1.760 80.0
2.928 -1.453 1.920 80.0
2.928 -1.453 2.080 80.0
2.928 -1.453 2.240 80.0
2.928 -1.453 2.400 80.0
2.928 -0.947 0.000 80.0
2.928 -0.947 0.160 80.0
2.928 -0.947 0.320 80.0
2.928 -0.947 0.480 80.0
2.928 -0.947 0.640 80.0
2.928 -0.947 0.800 80.0
2.928 -0.947 0.960 80.0
2.928 -0.947 1.120 80.0
2.928 -0.947 1.280 80.0
2.928 -0.947 1.440 80.0
2.928 -0.947 1.600 80.0
2.928 -0.947 1.760 80.0
2.928 -0.947 1.920 80.0
2.928 -0.947 2.080 80.0
2.928 -0.947 2.240 80.0
2.928 -0.947 2.400 80.0
2.975 -1.400 0.000 80.0
2.975 -1.400 0.160 80.0
2.975 -1.400 0.320 80.0
2.975 -1.400 0.480 80.0
2.975 -1.400 0.640 80.0
2.975 -1.400 0.800 80.0
2.975 -1.400 0.960 80.0
2.975 -1.400 1.120 80.0
2.975 -1.400 1.280 80.0
2.975 -1.400 1.440 80.0
2.975 -1.400 1.600 80.0
2.975 -1.400 1.760 80.0
2.975 -1.400 1.920 80.0
2.975 -1.400 2.080 80.0
2.975 -1.400 2.240 80.0
2.975 -1.400 2.400 80.0
2.975 -1.000 0.000 80.0
2.975 -1.000 0.160 80.0
2.975 -1.000 0.320 80.0
2.975 -1.000 0.480 80.0
2.975 -1.000 0.640 80.0
2.975 -1.000 0.800 80.0
2.975 -1.000 0.960 80.0
2.975 -1.000 1.120 80.0
2.975 -1.000 1.280 80.0
2.975 -1.000 1.440 80.0
2.975 -1.000 1.600 80.0
2.975 -1.000 1.760 80.0
2.975 -1.000 1.920 80.0
2.975 -1.000 2.080 80.0
2.975 -1.000 2.240 80.0
2.975 -1.000 2.400 80.0
3.011 -1.338 0.000 80.0
3.011 -1.338 0.160 80.0
3.011 -1.338 0.320 80.0
3.011 -1.338 0.480 80.0
3.011 -1.338 0.640 80.0
3.011 -1.338 0.800 80.0
3.011 -1.338 0.960 80.0
3.011 -1.338 1.120 80.0
3.011 -1.338 1.280 80.0
3.011 -1.338 1.440 80.0
3.011 -1.338 1.600 80.0
3.011 -1.338 1.760 80.0
3.011 -1.338 1.920 80.0
3.011 -1.338 2.080 80.0
3.011 -1.338 2.240 80.0
3.011 -1.338 2.400 80.0
3.011 -1.062 0.000 80.0
3.011 -1.062 0.160 80.0
3.011 -1.062 0.320 80.0
3.011 -1.062 0.480 80.0
3.011 -1.062 0.640 80.0
3.011 -1.062 0.800 80.0
3.011 -1.062 0.960 80.0
3.011 -1.062 1.120 80.0
3.011 -1.062 1.280 80.0
3.011 -1.062 1.440 80.0
3.011 -1.062 1.600 80.0
3.011 -1.062 1.760 80.0
3.011 -1.062 1.920 80.0
3.011 -1.062 2.080 80.0
3.011 -1.062 2.240 80.0
3.011 -1.062 2.400 80.0
3.033 -1.271 0.000 80.0
3.033 -1.271 0.160 80.0
3.033 -1.271 0.320 80.0
3.033 -1.271 0.480 80.0
3.033 -1.271 0.640 80.0
3.033 -1.271 0.800 80.0
3.033 -1.271 0.960 80.0
3.033 -1.271 1.120 80.0
3.033 -1.271 1.280 80.0
3.033 -1.271 1.440 80.0
3.033 -1.271 1.600 80.0
3.033 -1.271 1.760 80.0
3.033 -1.271 1.920 80.0
3.033 -1.271 2.080 80.0
3.033 -1.271 2.240 80.0
3.033 -1.271 2.400 80.0
3.033 -1.129 0.000 80.0
3.033 -1.129 0.160 80.0
3.033 -1.129 0.320 80.0
3.033 -1.129 0.480 80.0
3.033 -1.129 0.640 80.0
3.033 -1.129 0.800 80.0
3.033 -1.129 0.960 80.0
3.033 -1.129 1.120 80.0
3.033 -1.129 1.280 80.0
3.033 -1.129 1.440 80.0
3.033 -1.129 1.600 80.0
3.033 -1.129 1.760 80.0
3.033 -1.129 1.920 80.0
3.033 -1.129 2.080 80.0
3.033 -1.129 2.240 80.0
3.033 -1.129 2.400 80.0
3.040 -1.200 0.000 80.0
3.040 -1.200 0.160 80.0
3.040 -1.200 0.320 80.0
3.040 -1.200 0.480 80.0
3.040 -1.200 0.640 80.0
3.040 -1.200 0.800 80.0
3.040 -1.200 0.960 80.0
3.040 -1.200 1.120 80.0
3.040 -1.200 1.280 80.0
3.040 -1.200 1.440 80.0
3.040 -1.200 1.600 80.0
3.040 -1.200 1.760 80.0
3.040 -1.200 1.920 80.0
3.040 -1.200 2.080 80.0
3.040 -1.200 2.240 80.0
3.040 -1.200 2.400 80.0
3.100 1.300 0.000 80.0
3.100 1.300 0.157 80.0
3.100 1.300 0.314 80.0
3.100 1.300 0.471 80.0
3.100 1.300 0.629 80.0
3.100 1.300 0.786 80.0
3.100 1.300 0.943 80.0
3.100 1.300 1.100 80.0
3.100 1.300 1.257 80.0
3.100 1.300 1.414 80.0
3.100 1.300 1.571 80.0
3.100 1.300 1.729 80.0
3.100 1.300 1.886 80.0
3.100 1.300 2.043 80.0
3.100 1.300 2.200 80.0
3.107 1.238 0.000 80.0
3.107 1.238 0.157 80.0
3.107 1.238 0.314 80.0
3.107 1.238 0.471 80.0
3.107 1.238 0.629 80.0
3.107 1.238 0.786 80.0
3.107 1.238 0.943 80.0
3.107 1.238 1.100 80.0
3.107 1.238 1.257 80.0
3.107 1.238 1.414 80.0
3.107 1.238 1.571 80.0
3.107 1.238 1.729 80.0
3.107 1.238 1.886 80.0
3.107 1.238 2.043 80.0
3.107 1.238 2.200 80.0
3.107 1.362 0.000 80.0
3.107 1.362 0.157 80.0
3.107 1.362 0.314 80.0
3.107 1.362 0.471 80.0
3.107 1.362 0.629 80.0
3.107 1.362 0.786 80.0
3.107 1.362 0.943 80.0
3.107 1.362 1.100 80.0
3.107 1.362 1.257 80.0
3.107 1.362 1.414 80.0
3.107 1.362 1.571 80.0
3.107 1.362 1.729 80.0
3.107 1.362 1.886 80.0
3.107 1.362 2.043 80.0
3.107 1.362 2.200 80.0
3.126 1.178 0.000 80.0
3.126 1.178 0.157 80.0
3.126 1.178 0.314 80.0
3.126 1.178 0.471 80.0
3.126 1.178 0.629 80.0
3.126 1.178 0.786 80.0
3.126 1.178 0.943 80.0
3.126 1.178 1.100 80.0
3.126 1.178 1.257 80.0
3.126 1.178 1.414 80.0
3.126 1.178 1.571 80.0
3.126 1.178 1.729 80.0
3.126 1.178 1.886 80.0
3.126 1.178 2.043 80.0
3.126 1.178 2.200 80.0
3.126 1.422 0.000 80.0
3.126 1.422 0.157 80.0
3.126 1.422 0.314 80.0
3.126 1.422 0.471 80.0
3.126 1.422 0.629 80.0
3.126 1.422 0.786 80.0
3.126 1.422 0.943 80.0
3.126 1.422 1.100 80.0
3.126 1.422 1.257 80.0
3.126 1.422 1.414 80.0
3.126 1.422 1.571 80.0
3.126 1.422 1.729 80.0
3.126 1.422 1.886 80.0
3.126 1.422 2.043 80.0
3.126 1.422 2.200 80.0
3.157 1.124 0.000 80.0
3.157 1.124 0.157 80.0
3.157 1.124 0.314 80.0
3.157 1.124 0.471 80.0
3.157 1.124 0.629 80.0
3.157 1.124 0.786 80.0
3.157 1.124 0.943 80.0
3.157 1.124 1.100 80.0
3.157 1.124 1.257 80.0
3.157 1.124 1.414 80.0
3.157 1.124 1.571 80.0
3.157 1.124 1.729 80.0
3.157 1.124 1.886 80.0
3.157 1.124 2.043 80.0
3.157 1.124 2.200 80.0
3.157 1.476 0.000 80.0
3.157 1.476 0.157 80.0
3.157 1.476 0.314 80.0
3.157 1.476 0.471 80.0
3.157 1.476 0.629 80.0
3.157 1.476 0.786 80.0
3.157 1.476 0.943 80.0
3.157 1.476 1.100 80.0
3.157 1.476 1.257 80.0
3.157 1.476 1.414 80.0
3.157 1.476 1.571 80.0
3.157 1.476 1.729 80.0
3.157 1.476 1.886 80.0
3.157 1.476 2.043 80.0
3.157 1.476 2.200 80.0
3.199 1.077 0.000 80.0
3.199 1.077 0.157 80.0
3.199 1.077 0.314 80.0
3.199 1.077 0.471 80.0
3.199 1.077 0.629 80.0
3.199 1.077 0.786 80.0
3.199 1.077 0.943 80.0
3.199 1.077 1.100 80.0
3.199 1.077 1.257 80.0
3.199 1.077 1.414 80.0
3.199 1.077 1.571 80.0
3.199 1.077 1.729 80.0
3.199 1.077 1.886 80.0
3.199 1.077 2.043 80.0
3.199 1.077 2.200 80.0
3.199 1.523 0.000 80.0
3.199 1.523 0.157 80.0
3.199 1.523 0.314 80.0
3.199 1.523 0.471 80.0
3.199 1.523 0.629 80.0
3.199 1.523 0.786 80.0
3.199 1.523 0.943 80.0
3.199 1.523 1.100 80.0
3.199 1.523 1.257 80.0
3.199 1.523 1.414 80.0
3.199 1.523 1.571 80.0
3.199 1.523 1.729 80.0
3.199 1.523 1.886 80.0
3.199 1.523 2.043 80.0
3.199 1.523 2.200 80.0
3.250 1.040 0.000 80.0
3.250 1.040 0.157 80.0
3.250 1.040 0.314 80.0
3.250 1.040 0.471 80.0
3.250 1.040 0.629 80.0
3.250 1.040 0.786 80.0
3.250 1.040 0.943 80.0
3.250 1.040 1.100 80.0
3.250 1.040 1.257 80.0
3.250 1.040 1.414 80.0
3.250 1.040 1.571 80.0
3.250 1.040 1.729 80.0
3.250 1.040 1.886 80.0
3.250 1.040 2.043 80.0
3.250 1.040 2.200 80.0
3.250 1.560 0.000 80.0
3.250 1.560 0.157 80.0
3.250 1.560 0.314 80.0
3.250 1.560 0.471 80.0
3.250 1.560 0.629 80.0
3.250 1.560 0.786 80.0
3.250 1.560 0.943 80.0
3.250 1.560 1.100 80.0
3.250 1.560 1.257 80.0
3.250 1.560 1.414 80.0
3.250 1.560 1.571 80.0
3.250 1.560 1.729 80.0
3.250 1.560 1.886 80.0
3.250 1.560 2.043 80.0
3.250 1.560 2.200 80.0
3.307 1.015 0.000 80.0
3.307 1.015 0.157 80.0
3.307 1.015 0.314 80.0
3.307 1.015 0.471 80.0
3.307 1.015 0.629 80.0
3.307 1.015 0.786 80.0
3.307 1.015 0.943 80.0
3.307 1.015 1.100 80.0
3.307 1.015 1.257 80.0
3.307 1.015 1.414 80.0
3.307 1.015 1.571 80.0
3.307 1.015 1.729 80.0
3.307 1.015 1.886 80.0
3.307 1.015 2.043 80.0
3.307 1.015 2.200 80.0
3.307 1.585 0.000 80.0
3.307 1.585 0.157 80.0
3.307 1.585 0.314 80.0
3.307 1.585 0.471 80.0
3.307 1.585 0.629 80.0
3.307 1.585 0.786 80.0
3.307 1.585 0.943 80.0
3.307 1.585 1.100 80.0
3.307 1.585 1.257 80.0
3.307 1.585 1.414 80.0
3.307 1.585 1.571 80.0
3.307 1.585 1.729 80.0
3.307 1.585 1.886 80.0
3.307 1.585 2.043 80.0
3.307 1.585 2.200 80.0
3.369 1.002 0.000 80.0
3.369 1.002 0.157 80.0
3.369 1.002 0.314 80.0
3.369 1.002 0.471 80.0
3.369 1.002 0.629 80.0
3.369 1.002 0.786 80.0
3.369 1.002 0.943 80.0
3.369 1.002 1.100 80.0
3.369 1.002 1.257 80.0
3.369 1.002 1.414 80.0
3.369 1.002 1.571 80.0
3.369 1.002 1.729 80.0
3.369 1.002 1.886 80.0
3.369 1.002 2.043 80.0
3.369 1.002 2.200 80.0
3.369 1.598 0.000 80.0
3.369 1.598 0.157 80.0
3.369 1.598 0.314 80.0
3.369 1.598 0.471 80.0
3.369 1.598 0.629 80.0
3.369 1.598 0.786 80.0
3.369 1.598 0.943 80.0
3.369 1.598 1.100 80.0
3.369 1.598 1.257 80.0
3.369 1.598 1.414 80.0
3.369 1.598 1.571 80.0
3.369 1.598 1.729 80.0
3.369 1.598 1.886 80.0
3.369 1.598 2.043 80.0
3.369 1.598 2.200 80.0
3.431 1.002 0.000 80.0
3.431 1.002 0.157 80.0
3.431 1.002 0.314 80.0
3.431 1.002 0.471 80.0
3.431 1.002 0.629 80.0
3.431 1.002 0.786 80.0
3.431 1.002 0.943 80.0
3.431 1.002 1.100 80.0
3.431 1.002 1.257 80.0
3.431 1.002 1.414 80.0
3.431 1.002 1.571 80.0
3.431 1.002 1.729 80.0
3.431 1.002 1.886 80.0
3.431 1.002 2.043 80.0
3.431 1.002 2.200 80.0
3.431 1.598 0.000 80.0
3.431 1.598 0.157 80.0
3.431 1.598 0.314 80.0
3.431 1.598 0.471 80.0
3.431 1.598 0.629 80.0
3.431 1.598 0.786 80.0
3.431 1.598 0.943 80.0
3.431 1.598 1.100 80.0
3.431 1.598 1.257 80.0
3.431 1.598 1.414 80.0
3.431 1.598 1.571 80.0
3.431 1.598 1.729 80.0
3.431 1.598 1.886 80.0
3.431 1.598 2.043 80.0
3.431 1.598 2.200 80.0
3.493 1.015 0.000 80.0
3.493 1.015 0.157 80.0
3.493 1.015 0.314 80.0
3.493 1.015 0.471 80.0
3.493 1.015 0.629 80.0
3.493 1.015 0.786 80.0
3.493 1.015 0.943 80.0
3.493 1.015 1.100 80.0
3.493 1.015 1.257 80.0
3.493 1.015 1.414 80.0
3.493 1.015 1.571 80.0
3.493 1.015 1.729 80.0
3.493 1.015 1.886 80.0
3.493 1.015 2.043 80.0
3.493 1.015 2.200 80.0
3.493 1.585 0.000 80.0
3.493 1.585 0.157 80.0
3.493 1.585 0.314 80.0
3.493 1.585 0.471 80.0
3.493 1.585 0.629 80.0
3.493 1.585 0.786 80.0
3.493 1.585 0.943 80.0
3.493 1.585 1.100 80.0
3.493 1.585 1.257 80.0
3.493 1.585 1.414 80.0
3.493 1.585 1.571 80.0
3.493 1.585 1.729 80.0
3.493 1.585 1.886 80.0
3.493 1.585 2.043 80.0
3.493 1.585 2.200 80.0
3.550 1.040 0.000 80.0
3.550 1.040 0.157 80.0
3.550 1.040 0.314 80.0
3.550 1.040 0.471 80.0
3.550 1.040 0.629 80.0
3.550 1.040 0.786 80.0
3.550 1.040 0.943 80.0
3.550 1.040 1.100 80.0
3.550 1.040 1.257 80.0
3.550 1.040 1.414 80.0
3.550 1.040 1.571 80.0
3.550 1.040 1.729 80.0
3.550 1.040 1.886 80.0
3.550 1.040 2.043 80.0
3.550 1.040 2.200 80.0
3.550 1.560 0.000 80.0
3.550 1.560 0.157 80.0
3.550 1.560 0.314 80.0
3.550 1.560 0.471 80.0
3.550 1.560 0.629 80.0
3.550 1.560 0.786 80.0
3.550 1.560 0.943 80.0
3.550 1.560 1.100 80.0
3.550 1.560 1.257 80.0
3.550 1.560 1.414 80.0
3.550 1.560 1.571 80.0
3.550 1.560 1.729 80.0
3.550 1.560 1.886 80.0
3.550 1.560 2.043 80.0
3.550 1.560 2.200 80.0
3.601 1.077 0.000 80.0
3.601 1.077 0.157 80.0
3.601 1.077 0.314 80.0
3.601 1.077 0.471 80.0
3.601 1.077 0.629 80.0
3.601 1.077 0.786 80.0
3.601 1.077 0.943 80.0
3.601 1.077 1.100 80.0
3.601 1.077 1.257 80.0
3.601 1.077 1.414 80.0
3.601 1.077 1.571 80.0
3.601 1.077 1.729 80.0
3.601 1.077 1.886 80.0
3.601 1.077 2.043 80.0
3.601 1.077 2.200 80.0
3.601 1.523 0.000 80.0
3.601 1.523 0.157 80.0
3.601 1.523 0.314 80.0
3.601 1.523 0.471 80.0
3.601 1.523 0.629 80.0
3.601 1.523 0.786 80.0
3.601 1.523 0.943 80.0
3.601 1.523 1.100 80.0
3.601 1.523 1.257 80.0
3.601 1.523 1.414 80.0
3.601 1.523 1.571 80.0
3.601 1.523 1.729 80.0
3.601 1.523 1.886 80.0
3.601 1.523 2.043 80.0
3.601 1.523 2.200 80.0
3.643 1.124 0.000 80.0
3.643 1.124 0.157 80.0
3.643 1.124 0.314 80.0
3.643 1.124 0.471 80.0
3.643 1.124 0.629 80.0
3.643 1.124 0.786 80.0
3.643 1.124 0.943 80.0
3.643 1.124 1.100 80.0
3.643 1.124 1.257 80.0
3.643 1.124 1.414 80.0
3.643 1.124 1.571 80.0
3.643 1.124 1.729 80.0
3.643 1.124 1.886 80.0
3.643 1.124 2.043 80.0
3.643 1.124 2.200 80.0
3.643 1.476 0.000 80.0
3.643 1.476 0.157 80.0
3.643 1.476 0.314 80.0
3.643 1.476 0.471 80.0
3.643 1.476 0.629 80.0
3.643 1.476 0.786 80.0
3.643 1.476 0.943 80.0
3.643 1.476 1.100 80.0
3.643 1.476 1.257 80.0
3.643 1.476 1.414 80.0
3.643 1.476 1.571 80.0
3.643 1.476 1.729 80.0
3.643 1.476 1.886 80.0
3.643 1.476 2.043 80.0
3.643 1.476 2.200 80.0
3.674 1.178 0.000 80.0
3.674 1.178 0.157 80.0
3.674 1.178 0.314 80.0
3.674 1.178 0.471 80.0
3.674 1.178 0.629 80.0
3.674 1.178 0.786 80.0
3.674 1.178 0.943 80.0
3.674 1.178 1.100 80.0
3.674 1.178 1.257 80.0
3.674 1.178 1.414 80.0
3.674 1.178 1.571 80.0
3.674 1.178 1.729 80.0
3.674 1.178 1.886 80.0
3.674 1.178 2.043 80.0
3.674 1.178 2.200 80.0
3.674 1.422 0.000 80.0
3.674 1.422 0.157 80.0
3.674 1.422 0.314 80.0
3.674 1.422 0.471 80.0
3.674 1.422 0.629 80.0
3.674 1.422 0.786 80.0
3.674 1.422 0.943 80.0
3.674 1.422 1.100 80.0
3.674 1.422 1.257 80.0
3.674 1.422 1.414 80.0
3.674 1.422 1.571 80.0
3.674 1.422 1.729 80.0
3.674 1.422 1.886 80.0
3.674 1.422 2.043 80.0
3.674 1.422 2.200 80.0
3.693 1.238 0.000 80.0
3.693 1.238 0.157 80.0
3.693 1.238 0.314 80.0
3.693 1.238 0.471 80.0
3.693 1.238 0.629 80.0
3.693 1.238 0.786 80.0
3.693 1.238 0.943 80.0
3.693 1.238 1.100 80.0
3.693 1.238 1.257 80.0
3.693 1.238 1.414 80.0
3.693 1.238 1.571 80.0
3.693 1.238 1.729 80.0
3.693 1.238 1.886 80.0
3.693 1.238 2.043 80.0
3.693 1.238 2.200 80.0
3.693 1.362 0.000 80.0
3.693 1.362 0.157 80.0
3.693 1.362 0.314 80.0
3.693 1.362 0.471 80.0
3.693 1.362 0.629 80.0
3.693 1.362 0.786 80.0
3.693 1.362 0.943 80.0
3.693 1.362 1.100 80.0
3.693 1.362 1.257 80.0
3.693 1.362 1.414 80.0
3.693 1.362 1.571 80.0
3.693 1.362 1.729 80.0
3.693 1.362 1.886 80.0
3.693 1.362 2.043 80.0
3.693 1.362 2.200 80.0
3.700 1.300 0.000 80.0
3.700 1.300 0.157 80.0
3.700 1.300 0.314 80.0
3.700 1.300 0.471 80.0
3.700 1.300 0.629 80.0
3.700 1.300 0.786 80.0
3.700 1.300 0.943 80.0
3.700 1.300 1.100 80.0
3.700 1.300 1.257 80.0
3.700 1.300 1.414 80.0
3.700 1.300 1.571 80.0
3.700 1.300 1.729 80.0
3.700 1.300 1.886 80.0
3.700 1.300 2.043 80.0
3.700 1.300 2.200 80.0
4.500 -2.600 0.000 80.0
4.500 -2.600 0.175 80.0
4.500 -2.600 0.350 80.0
4.500 -2.600 0.525 80.0
4.500 -2.600 0.700 80.0
4.500 -2.600 0.875 80.0
4.500 -2.600 1.050 80.0
4.500 -2.600 1.225 80.0
4.500 -2.600 1.400 80.0
4.500 -2.600 1.575 80.0
4.500 -2.600 1.750 80.0
4.500 -2.600 1.925 80.0
4.500 -2.600 2.100 80.0
4.500 -2.433 0.000 80.0
4.500 -2.433 0.175 80.0
4.500 -2.433 0.350 80.0
4.500 -2.433 0.525 80.0
4.500 -2.433 0.700 80.0
4.500 -2.433 0.875 80.0
4.500 -2.433 1.050 80.0
4.500 -2.433 1.225 80.0
4.500 -2.433 1.400 80.0
4.500 -2.433 1.575 80.0
4.500 -2.433 1.750 80.0
4.500 -2.433 1.925 80.0
4.500 -2.433 2.100 80.0
4.500 -2.267 0.000 80.0
4.500 -2.267 0.175 80.0
4.500 -2.267 0.350 80.0
4.500 -2.267 0.525 80.0
4.500 -2.267 0.700 80.0
4.500 -2.267 0.875 80.0
4.500 -2.267 1.050 80.0
4.500 -2.267 1.225 80.0
4.500 -2.267 1.400 80.0
4.500 -2.267 1.575 80.0
4.500 -2.267 1.750 80.0
4.500 -2.267 1.925 80.0
4.500 -2.267 2.100 80.0
4.500 -2.100 0.000 80.0
4.500 -2.100 0.175 80.0
4.500 -2.100 0.350 80.0
4.500 -2.100 0.525 80.0
4.500 -2.100 0.700 80.0
4.500 -2.100 0.875 80.0
4.500 -2.100 1.050 80.0
4.500 -2.100 1.225 80.0
4.500 -2.100 1.400 80.0
4.500 -2.100 1.575 80.0
4.500 -2.100 1.750 80.0
4.500 -2.100 1.925 80.0
4.500 -2.100 2.100 80.0
4.500 -1.933 0.000 80.0
4.500 -1.933 0.175 80.0
4.500 -1.933 0.350 80.0
4.500 -1.933 0.525 80.0
4.500 -1.933 0.700 80.0
4.500 -1.933 0.875 80.0
4.500 -1.933 1.050 80.0
4.500 -1.933 1.225 80.0
4.500 -1.933 1.400 80.0
4.500 -1.933 1.575 80.0
4.500 -1.933 1.750 80.0
4.500 -1.933 1.925 80.0
4.500 -1.933 2.100 80.0
4.500 -1.767 0.000 80.0
4.500 -1.767 0.175 80.0
4.500 -1.767 0.350 80.0
4.500 -1.767 0.525 80.0
4.500 -1.767 0.700 80.0
4.500 -1.767 0.875 80.0
4.500 -1.767 1.050 80.0
4.500 -1.767 1.225 80.0
4.500 -1.767 1.400 80.0
4.500 -1.767 1.575 80.0
4.500 -1.767 1.750 80.0
4.500 -1.767 1.925 80.0
4.500 -1.767 2.100 80.0
4.500 -1.600 0.000 80.0
4.500 -1.600 0.175 80.0
4.500 -1.600 0.350 80.0
4.500 -1.600 0.525 80.0
4.500 -1.600 0.700 80.0
4.500 -1.600 0.875 80.0
4.500 -1.600 1.050 80.0
4.500 -1.600 1.225 80.0
4.500 -1.600 1.400 80.0
4.500 -1.600 1.575 80.0
4.500 -1.600 1.750 80.0
4.500 -1.600 1.925 80.0
4.500 -1.600 2.100 80.0
4.500 -1.433 0.000 80.0
4.500 -1.433 0.175 80.0
4.500 -1.433 0.350 80.0
4.500 -1.433 0.525 80.0
4.500 -1.433 0.700 80.0
4.500 -1.433 0.875 80.0
4.500 -1.433 1.050 80.0
4.500 -1.433 1.225 80.0
4.500 -1.433 1.400 80.0
4.500 -1.433 1.575 80.0
4.500 -1.433 1.750 80.0
4.500 -1.433 1.925 80.0
4.500 -1.433 2.100 80.0
4.500 -1.267 0.000 80.0
4.500 -1.267 0.175 80.0
4.500 -1.267 0.350 80.0
4.500 -1.267 0.525 80.0
4.500 -1.267 0.700 80.0
4.500 -1.267 0.875 80.0
4.500 -1.267 1.050 80.0
4.500 -1.267 1.225 80.0
4.500 -1.267 1.400 80.0
4.500 -1.267 1.575 80.0
4.500 -1.267 1.750 80.0
4.500 -1.267 1.925 80.0
4.500 -1.267 2.100 80.0
4.500 -1.100 0.000 80.0
4.500 -1.100 0.175 80.0
4.500 -1.100 0.350 80.0
4.500 -1.100 0.525 80.0
4.500 -1.100 0.700 80.0
4.500 -1.100 0.875 80.0
4.500 -1.100 1.050 80.0
4.500 -1.100 1.225 80.0
4.500 -1.100 1.400 80.0
4.500 -1.100 1.575 80.0
4.500 -1.100 1.750 80.0
4.500 -1.100 1.925 80.0
4.500 -1.100 2.100 80.0
4.650 -2.600 0.000 80.0
4.650 -2.600 0.175 80.0
4.650 -2.600 0.350 80.0
4.650 -2.600 0.525 80.0
4.650 -2.600 0.700 80.0
4.650 -2.600 0.875 80.0
4.650 -2.600 1.050 80.0
4.650 -2.600 1.225 80.0
4.650 -2.600 1.400 80.0
4.650 -2.600 1.575 80.0
4.650 -2.600 1.750 80.0
4.650 -2.600 1.925 80.0
4.650 -2.600 2.100 80.0
4.650 -2.433 0.000 80.0
4.650 -2.433 2.100 80.0
4.650 -2.267 0.000 80.0
4.650 -2.267 2.100 80.0
4.650 -2.100 0.000 80.0
4.650 -2.100 2.100 80.0
4.650 -1.933 0.000 80.0
4.650 -1.933 2.100 80.0
4.650 -1.767 0.000 80.0
4.650 -1.767 2.100 80.0
4.650 -1.600 0.000 80.0
4.650 -1.600 2.100 80.0
4.650 -1.433 0.000 80.0
4.650 -1.433 2.100 80.0
4.650 -1.267 0.000 80.0
4.650 -1.267 2.100 80.0
4.650 -1.100 0.000 80.0
4.650 -1.100 0.175 80.0
4.650 -1.100 0.350 80.0
4.650 -1.100 0.525 80.0
4.650 -1.100 0.700 80.0
4.650 -1.100 0.875 80.0
4.650 -1.100 1.050 80.0
4.650 -1.100 1.225 80.0
4.650 -1.100 1.400 80.0
4.650 -1.100 1.575 80.0
4.650 -1.100 1.750 80.0
4.650 -1.100 1.925 80.0
4.650 -1.100 2.100 80.0
4.800 -2.600 0.000 80.0
4.800 -2.600 0.175 80.0
4.800 -2.600 0.350 80.0
4.800 -2.600 0.525 80.0
4.800 -2.600 0.700 80.0
4.800 -2.600 0.875 80.0
4.800 -2.600 1.050 80.0
4.800 -2.600 1.225 80.0
4.800 -2.600 1.400 80.0
4.800 -2.600 1.575 80.0
4.800 -2.600 1.750 80.0
4.800 -2.600 1.925 80.0
4.800 -2.600 2.100 80.0
4.800 -2.433 0.000 80.0
4.800 -2.433 0.175 80.0
4.800 -2.433 0.350 80.0
4.800 -2.433 0.525 80.0
4.800 -2.433 0.700 80.0
4.800 -2.433 0.875 80.0
4.800 -2.433 1.050 80.0
4.800 -2.433 1.225 80.0
4.800 -2.433 1.400 80.0
4.800 -2.433 1.575 80.0
4.800 -2.433 1.750 80.0
4.800 -2.433 1.925 80.0
4.800 -2.433 2.100 80.0
4.800 -2.267 0.000 80.0
4.800 -2.267 0.175 80.0
4.800 -2.267 0.350 80.0
4.800 -2.267 0.525 80.0
4.800 -2.267 0.700 80.0
4.800 -2.267 0.875 80.0
4.800 -2.267 1.050 80.0
4.800 -2.267 1.225 80.0
4.800 -2.267 1.400 80.0
4.800 -2.267 1.575 80.0
4.800 -2.267 1.750 80.0
4.800 -2.267 1.925 80.0
4.800 -2.267 2.100 80.0
4.800 -2.100 0.000 80.0
4.800 -2.100 0.175 80.0
4.800 -2.100 0.350 80.0
4.800 -2.100 0.525 80.0
4.800 -2.100 0.700 80.0
4.800 -2.100 0.875 80.0
4.800 -2.100 1.050 80.0
4.800 -2.100 1.225 80.0
4.800 -2.100 1.400 80.0
4.800 -2.100 1.575 80.0
4.800 -2.100 1.750 80.0
4.800 -2.100 1.925 80.0
4.800 -2.100 2.100 80.0
4.800 -1.933 0.000 80.0
4.800 -1.933 0.175 80.0
4.800 -1.933 0.350 80.0
4.800 -1.933 0.525 80.0
4.800 -1.933 0.700 80.0
4.800 -1.933 0.875 80.0
4.800 -1.933 1.050 80.0
4.800 -1.933 1.225 80.0
4.800 -1.933 1.400 80.0
4.800 -1.933 1.575 80.0
4.800 -1.933 1.750 80.0
4.800 -1.933 1.925 80.0
4.800 -1.933 2.100 80.0
4.800 -1.767 0.000 80.0
4.800 -1.767 0.175 80.0
4.800 -1.767 0.350 80.0
4.800 -1.767 0.525 80.0
4.800 -1.767 0.700 80.0
4.800 -1.767 0.875 80.0
4.800 -1.767 1.050 80.0
4.800 -1.767 1.225 80.0
4.800 -1.767 1.400 80.0
4.800 -1.767 1.575 80.0
4.800 -1.767 1.750 80.0
4.800 -1.767 1.925 80.0
4.800 -1.767 2.100 80.0
4.800 -1.600 0.000 80.0
4.800 -1.600 0.175 80.0
4.800 -1.600 0.350 80.0
4.800 -1.600 0.525 80.0
4.800 -1.600 0.700 80.0
4.800 -1.600 0.875 80.0
4.800 -1.600 1.050 80.0
4.800 -1.600 1.225 80.0
4.800 -1.600 1.400 80.0
4.800 -1.600 1.575 80.0
4.800 -1.600 1.750 80.0
4.800 -1.600 1.925 80.0
4.800 -1.600 2.100 80.0
4.800 -1.433 0.000 80.0
4.800 -1.433 0.175 80.0
4.800 -1.433 0.350 80.0
4.800 -1.433 0.525 80.0
4.800 -1.433 0.700 80.0
4.800 -1.433 0.875 80.0
4.800 -1.433 1.050 80.0
4.800 -1.433 1.225 80.0
4.800 -1.433 1.400 80.0
4.800 -1.433 1.575 80.0
4.800 -1.433 1.750 80.0
4.800 -1.433 1.925 80.0
4.800 -1.433 2.100 80.0
4.800 -1.267 0.000 80.0
4.800 -1.267 0.175 80.0
4.800 -1.267 0.350 80.0
4.800 -1.267 0.525 80.0
4.800 -1.267 0.700 80.0
4.800 -1.267 0.875 80.0
4.800 -1.267 1.050 80.0
4.800 -1.267 1.225 80.0
4.800 -1.267 1.400 80.0
4.800 -1.267 1.575 80.0
4.800 -1.267 1.750 80.0
4.800 -1.267 1.925 80.0
4.800 -1.267 2.100 80.0
4.800 -1.100 0.000 80.0
4.800 -1.100 0.175 80.0
4.800 -1.100 0.350 80.0
4.800 -1.100 0.525 80.0
4.800 -1.100 0.700 80.0
4.800 -1.100 0.875 80.0
4.800 -1.100 1.050 80.0
4.800 -1.100 1.225 80.0
4.800 -1.100 1.400 80.0
4.800 -1.100 1.575 80.0
4.800 -1.100 1.750 80.0
4.800 -1.100 1.925 80.0
4.800 -1.100 2.100 80.0
