# .PCD v0.7 - Point Cloud Data file format
VERSION 0.7
FIELDS x y z intensity
SIZE 4 4 4 4
TYPE F F F F
COUNT 1 1 1 1
WIDTH 1658
HEIGHT 1
VIEWPOINT 0 0 0 1 0 0 0
POINTS 1658
DATA ascii
0.800 0.820 0.000 80.0
0.800 0.820 0.167 80.0
0.800 0.820 0.333 80.0
0.800 0.820 0.500 80.0
0.800 0.820 0.667 80.0
0.800 0.820 0.833 80.0
0.800 0.820 1.000 80.0
0.800 0.820 1.167 80.0
0.800 0.820 1.333 80.0
0.800 0.820 1.500 80.0
0.800 0.820 1.667 80.0
0.800 0.820 1.833 80.0
0.800 0.820 2.000 80.0
0.800 0.980 0.000 80.0
0.800 0.980 0.167 80.0
0.800 0.980 0.333 80.0
0.800 0.980 0.500 80.0
0.800 0.980 0.667 80.0
0.800 0.980 0.833 80.0
0.800 0.980 1.000 80.0
0.800 0.980 1.167 80.0
0.800 0.980 1.333 80.0
0.800 0.980 1.500 80.0
0.800 0.980 1.667 80.0
0.800 0.980 1.833 80.0
0.800 0.980 2.000 80.0
0.978 0.820 0.000 80.0
0.978 0.820 0.167 80.0
0.978 0.820 0.333 80.0
0.978 0.820 0.500 80.0
0.978 0.820 0.667 80.0
0.978 0.820 0.833 80.0
0.978 0.820 1.000 80.0
0.978 0.820 1.167 80.0
0.978 0.820 1.333 80.0
0.978 0.820 1.500 80.0
0.978 0.820 1.667 80.0
0.978 0.820 1.833 80.0
0.978 0.820 2.000 80.0
0.978 0.980 0.000 80.0
0.978 0.980 0.167 80.0
0.978 0.980 0.333 80.0
0.978 0.980 0.500 80.0
0.978 0.980 0.667 80.0
0.978 0.980 0.833 80.0
0.978 0.980 1.000 80.0
0.978 0.980 1.167 80.0
0.978 0.980 1.333 80.0
0.978 0.980 1.500 80.0
0.978 0.980 1.667 80.0
0.978 0.980 1.833 80.0
0.978 0.980 2.000 80.0
1.156 0.820 0.000 80.0
1.156 0.820 0.167 80.0
1.156 0.820 0.333 80.0
1.156 0.820 0.500 80.0
1.156 0.820 0.667 80.0
1.156 0.820 0.833 80.0
1.156 0.820 1.000 80.0
1.156 0.820 1.167 80.0
1.156 0.820 1.333 80.0
1.156 0.820 1.500 80.0
1.156 0.820 1.667 80.0
1.156 0.820 1.833 80.0
1.156 0.820 2.000 80.0
1.156 0.980 0.000 80.0
1.156 0.980 0.167 80.0
1.156 0.980 0.333 80.0
1.156 0.980 0.500 80.0
1.156 0.980 0.667 80.0
1.156 0.980 0.833 80.0
1.156 0.980 1.000 80.0
1.156 0.980 1.167 80.0
1.156 0.980 1.333 80.0
1.156 0.980 1.500 80.0
1.156 0.980 1.667 80.0
1.156 0.980 1.833 80.0
1.156 0.980 2.000 80.0
1.250 -1.000 0.000 80.0
1.250 -1.000 0.156 80.0
1.250 -1.000 0.312 80.0
1.250 -1.000 0.469 80.0
1.250 -1.000 0.625 80.0
1.250 -1.000 0.781 80.0
1.250 -1.000 0.938 80.0
1.250 -1.000 1.094 80.0
1.250 -1.000 1.250 80.0
1.250 -1.000 1.406 80.0
1.250 -1.000 1.562 80.0
1.250 -1.000 1.719 80.0
1.250 -1.000 1.875 80.0
1.250 -1.000 2.031 80.0
1.250 -1.000 2.188 80.0
1.250 -1.000 2.344 80.0
1.250 -1.000 2.500 80.0
1.258 -1.073 0.000 80.0
1.258 -1.073 0.156 80.0
1.258 -1.073 0.312 80.0
1.258 -1.073 0.469 80.0
1.258 -1.073 0.625 80.0
1.258 -1.073 0.781 80.0
1.258 -1.073 0.938 80.0
1.258 -1.073 1.094 80.0
1.258 -1.073 1.250 80.0
1.258 -1.073 1.406 80.0
1.258 -1.073 1.562 80.0
1.258 -1.073 1.719 80.0
1.258 -1.073 1.875 80.0
1.258 -1.073 2.031 80.0
1.258 -1.073 2.188 80.0
1.258 -1.073 2.344 80.0
1.258 -1.073 2.500 80.0
1.258 -0.927 0.000 80.0
1.258 -0.927 0.156 80.0
1.258 -0.927 0.312 80.0
1.258 -0.927 0.469 80.0
1.258 -0.927 0.625 80.0
1.258 -0.927 0.781 80.0
1.258 -0.927 0.938 80.0
1.258 -0.927 1.094 80.0
1.258 -0.927 1.250 80.0
1.258 -0.927 1.406 80.0
1.258 -0.927 1.562 80.0
1.258 -0.927 1.719 80.0
1.258 -0.927 1.875 80.0
1.258 -0.927 2.031 80.0
1.258 -0.927 2.188 80.0
1.258 -0.927 2.344 80.0
1.258 -0.927 2.500 80.0
1.280 -1.142 0.000 80.0
1.280 -1.142 0.156 80.0
1.280 -1.142 0.312 80.0
1.280 -1.142 0.469 80.0
1.280 -1.142 0.625 80.0
1.280 -1.142 0.781 80.0
1.280 -1.142 0.938 80.0
1.280 -1.142 1.094 80.0
1.280 -1.142 1.250 80.0
1.280 -1.142 1.406 80.0
1.280 -1.142 1.562 80.0
1.280 -1.142 1.719 80.0
1.280 -1.142 1.875 80.0
1.280 -1.142 2.031 80.0
1.280 -1.142 2.188 80.0
1.280 -1.142 2.344 80.0
1.280 -1.142 2.500 80.0
1.280 -0.858 0.000 80.0
1.280 -0.858 0.156 80.0
1.280 -0.858 0.312 80.0
1.280 -0.858 0.469 80.0
1.280 -0.858 0.625 80.0
1.280 -0.858 0.781 80.0
1.280 -0.858 0.938 80.0
1.280 -0.858 1.094 80.0
1.280 -0.858 1.250 80.0
1.280 -0.858 1.406 80.0
1.280 -0.858 1.562 80.0
1.280 -0.858 1.719 80.0
1.280 -0.858 1.875 80.0
1.280 -0.858 2.031 80.0
1.280 -0.858 2.188 80.0
1.280 -0.858 2.344 80.0
1.280 -0.858 2.500 80.0
1.317 -1.206 0.000 80.0
1.317 -1.206 0.156 80.0
1.317 -1.206 0.312 80.0
1.317 -1.206 0.469 80.0
1.317 -1.206 0.625 80.0
1.317 -1.206 0.781 80.0
1.317 -1.206 0.938 80.0
1.317 -1.206 1.094 80.0
1.317 -1.206 1.250 80.0
1.317 -1.206 1.406 80.0
1.317 -1.206 1.562 80.0
1.317 -1.206 1.719 80.0
1.317 -1.206 1.875 80.0
1.317 -1.206 2.031 80.0
1.317 -1.206 2.188 80.0
1.317 -1.206 2.344 80.0
1.317 -1.206 2.500 80.0
1.317 -0.794 0.000 80.0
1.317 -0.794 0.156 80.0
1.317 -0.794 0.312 80.0
1.317 -0.794 0.469 80.0
1.317 -0.794 0.625 80.0
1.317 -0.794 0.781 80.0
1.317 -0.794 0.938 80.0
1.317 -0.794 1.094 80.0
1.317 -0.794 1.250 80.0
1.317 -0.794 1.406 80.0
1.317 -0.794 1.562 80.0
1.317 -0.794 1.719 80.0
1.317 -0.794 1.875 80.0
1.317 -0.794 2.031 80.0
1.317 -0.794 2.188 80.0
1.317 -0.794 2.344 80.0
1.317 -0.794 2.500 80.0
1.333 0.820 0.000 80.0
1.333 0.820 0.167 80.0
1.333 0.820 0.333 80.0
1.333 0.820 0.500 80.0
1.333 0.820 0.667 80.0
1.333 0.820 0.833 80.0
1.333 0.820 1.000 80.0
1.333 0.820 1.167 80.0
1.333 0.820 1.333 80.0
1.333 0.820 1.500 80.0
1.333 0.820 1.667 80.0
1.333 0.820 1.833 80.0
1.333 0.820 2.000 80.0
1.333 0.980 0.000 80.0
1.333 0.980 0.167 80.0
1.333 0.980 0.333 80.0
1.333 0.980 0.500 80.0
1.333 0.980 0.667 80.0
1.333 0.980 0.833 80.0
1.333 0.980 1.000 80.0
1.333 0.980 1.167 80.0
1.333 0.980 1.333 80.0
1.333 0.980 1.500 80.0
1.333 0.980 1.667 80.0
1.333 0.980 1.833 80.0
1.333 0.980 2.000 80.0
1.366 -1.260 0.000 80.0
1.366 -1.260 0.156 80.0
1.366 -1.260 0.312 80.0
1.366 -1.260 0.469 80.0
1.366 -1.260 0.625 80.0
1.366 -1.260 0.781 80.0
1.366 -1.260 0.938 80.0
1.366 -1.260 1.094 80.0
1.366 -1.260 1.250 80.0
1.366 -1.260 1.406 80.0
1.366 -1.260 1.562 80.0
1.366 -1.260 1.719 80.0
1.366 -1.260 1.875 80.0
1.366 -1.260 2.031 80.0
1.366 -1.260 2.188 80.0
1.366 -1.260 2.344 80.0
1.366 -1.260 2.500 80.0
1.366 -0.740 0.000 80.0
1.366 -0.740 0.156 80.0
1.366 -0.740 0.312 80.0
1.366 -0.740 0.469 80.0
1.366 -0.740 0.625 80.0
1.366 -0.740 0.781 80.0
1.366 -0.740 0.938 80.0
1.366 -0.740 1.094 80.0
1.366 -0.740 1.250 80.0
1.366 -0.740 1.406 80.0
1.366 -0.740 1.562 80.0
1.366 -0.740 1.719 80.0
1.366 -0.740 1.875 80.0
1.366 -0.740 2.031 80.0
1.366 -0.740 2.188 80.0
1.366 -0.740 2.344 80.0
1.366 -0.740 2.500 80.0
1.425 -1.303 0.000 80.0
1.425 -1.303 0.156 80.0
1.425 -1.303 0.312 80.0
1.425 -1.303 0.469 80.0
1.425 -1.303 0.625 80.0
1.425 -1.303 0.781 80.0
1.425 -1.303 0.938 80.0
1.425 -1.303 1.094 80.0
1.425 -1.303 1.250 80.0
1.425 -1.303 1.406 80.0
1.425 -1.303 1.562 80.0
1.425 -1.303 1.719 80.0
1.425 -1.303 1.875 80.0
1.425 -1.303 2.031 80.0
1.425 -1.303 2.188 80.0
1.425 -1.303 2.344 80.0
1.425 -1.303 2.500 80.0
1.425 -0.697 0.000 80.0
1.425 -0.697 0.156 80.0
1.425 -0.697 0.312 80.0
1.425 -0.697 0.469 80.0
1.425 -0.697 0.625 80.0
1.425 -0.697 0.781 80.0
1.425 -0.697 0.938 80.0
1.425 -0.697 1.094 80.0
1.425 -0.697 1.250 80.0
1.425 -0.697 1.406 80.0
1.425 -0.697 1.562 80.0
1.425 -0.697 1.719 80.0
1.425 -0.697 1.875 80.0
1.425 -0.697 2.031 80.0
1.425 -0.697 2.188 80.0
1.425 -0.697 2.344 80.0
1.425 -0.697 2.500 80.0
1.492 -1.333 0.000 80.0
1.492 -1.333 0.156 80.0
1.492 -1.333 0.312 80.0
1.492 -1.333 0.469 80.0
1.492 -1.333 0.625 80.0
1.492 -1.333 0.781 80.0
1.492 -1.333 0.938 80.0
1.492 -1.333 1.094 80.0
1.492 -1.333 1.250 80.0
1.492 -1.333 1.406 80.0
1.492 -1.333 1.562 80.0
1.492 -1.333 1.719 80.0
1.492 -1.333 1.875 80.0
1.492 -1.333 2.031 80.0
1.492 -1.333 2.188 80.0
1.492 -1.333 2.344 80.0
1.492 -1.333 2.500 80.0
1.492 -0.667 0.000 80.0
1.492 -0.667 0.156 80.0
1.492 -0.667 0.312 80.0
1.492 -0.667 0.469 80.0
1.492 -0.667 0.625 80.0
1.492 -0.667 0.781 80.0
1.492 -0.667 0.938 80.0
1.492 -0.667 1.094 80.0
1.492 -0.667 1.250 80.0
1.492 -0.667 1.406 80.0
1.492 -0.667 1.562 80.0
1.492 -0.667 1.719 80.0
1.492 -0.667 1.875 80.0
1.492 -0.667 2.031 80.0
1.492 -0.667 2.188 80.0
1.492 -0.667 2.344 80.0
1.492 -0.667 2.500 80.0
1.511 0.820 0.000 80.0
1.511 0.820 0.167 80.0
1.511 0.820 0.333 80.0
1.511 0.820 0.500 80.0
1.511 0.820 0.667 80.0
1.511 0.820 0.833 80.0
1.511 0.820 1.000 80.0
1.511 0.820 1.167 80.0
1.511 0.820 1.333 80.0
1.511 0.820 1.500 80.0
1.511 0.820 1.667 80.0
1.511 0.820 1.833 80.0
1.511 0.820 2.000 80.0
1.511 0.980 0.000 80.0
1.511 0.980 0.167 80.0
1.511 0.980 0.333 80.0
1.511 0.980 0.500 80.0
1.511 0.980 0.667 80.0
1.511 0.980 0.833 80.0
1.511 0.980 1.000 80.0
1.511 0.980 1.167 80.0
1.511 0.980 1.333 80.0
1.511 0.980 1.500 80.0
1.511 0.980 1.667 80.0
1.511 0.980 1.833 80.0
1.511 0.980 2.000 80.0
1.563 -1.348 0.000 80.0
1.563 -1.348 0.156 80.0
1.563 -1.348 0.312 80.0
1.563 -1.348 0.469 80.0
1.563 -1.348 0.625 80.0
1.563 -1.348 0.781 80.0
1.563 -1.348 0.938 80.0
1.563 -1.348 1.094 80.0
1.563 -1.348 1.250 80.0
1.563 -1.348 1.406 80.0
1.563 -1.348 1.562 80.0
1.563 -1.348 1.719 80.0
1.563 -1.348 1.875 80.0
1.563 -1.348 2.031 80.0
1.563 -1.348 2.188 80.0
1.563 -1.348 2.344 80.0
1.563 -1.348 2.500 80.0
1.563 -0.652 0.000 80.0
1.563 -0.652 0.156 80.0
1.563 -0.652 0.312 80.0
1.563 -0.652 0.469 80.0
1.563 -0.652 0.625 80.0
1.563 -0.652 0.781 80.0
1.563 -0.652 0.938 80.0
1.563 -0.652 1.094 80.0
1.563 -0.652 1.250 80.0
1.563 -0.652 1.406 80.0
1.563 -0.652 1.562 80.0
1.563 -0.652 1.719 80.0
1.563 -0.652 1.875 80.0
1.563 -0.652 2.031 80.0
1.563 -0.652 2.188 80.0
1.563 -0.652 2.344 80.0
1.563 -0.652 2.500 80.0
1.637 -1.348 0.000 80.0
1.637 -1.348 0.156 80.0
1.637 -1.348 0.312 80.0
1.637 -1.348 0.469 80.0
1.637 -1.348 0.625 80.0
1.637 -1.348 0.781 80.0
1.637 -1.348 0.938 80.0
1.637 -1.348 1.094 80.0
1.637 -1.348 1.250 80.0
1.637 -1.348 1.406 80.0
1.637 -1.348 1.562 80.0
1.637 -1.348 1.719 80.0
1.637 -1.348 1.875 80.0
1.637 -1.348 2.031 80.0
1.637 -1.348 2.188 80.0
1.637 -1.348 2.344 80.0
1.637 -1.348 2.500 80.0
1.637 -0.652 0.000 80.0
1.637 -0.652 0.156 80.0
1.637 -0.652 0.312 80.0
1.637 -0.652 0.469 80.0
1.637 -0.652 0.625 80.0
1.637 -0.652 0.781 80.0
1.637 -0.652 0.938 80.0
1.637 -0.652 1.094 80.0
1.637 -0.652 1.250 80.0
1.637 -0.652 1.406 80.0
1.637 -0.652 1.562 80.0
1.637 -0.652 1.719 80.0
1.637 -0.652 1.875 80.0
1.637 -0.652 2.031 80.0
1.637 -0.652 2.188 80.0
1.637 -0.652 2.344 80.0
1.637 -0.652 2.500 80.0
1.689 0.820 0.000 80.0
1.689 0.820 0.167 80.0
1.689 0.820 0.333 80.0
1.689 0.820 0.500 80.0
1.689 0.820 0.667 80.0
1.689 0.820 0.833 80.0
1.689 0.820 1.000 80.0
1.689 0.820 1.167 80.0
1.689 0.820 1.333 80.0
1.689 0.820 1.500 80.0
1.689 0.820 1.667 80.0
1.689 0.820 1.833 80.0
1.689 0.820 2.000 80.0
1.689 0.980 0.000 80.0
1.689 0.980 0.167 80.0
1.689 0.980 0.333 80.0
1.689 0.980 0.500 80.0
1.689 0.980 0.667 80.0
1.689 0.980 0.833 80.0
1.689 0.980 1.000 80.0
1.689 0.980 1.167 80.0
1.689 0.980 1.333 80.0
1.689 0.980 1.500 80.0
1.689 0.980 1.667 80.0
1.689 0.980 1.833 80.0
1.689 0.980 2.000 80.0
1.708 -1.333 0.000 80.0
1.708 -1.333 0.156 80.0
1.708 -1.333 0.312 80.0
1.708 -1.333 0.469 80.0
1.708 -1.333 0.625 80.0
1.708 -1.333 0.781 80.0
1.708 -1.333 0.938 80.0
1.708 -1.333 1.094 80.0
1.708 -1.333 1.250 80.0
1.708 -1.333 1.406 80.0
1.708 -1.333 1.562 80.0
1.708 -1.333 1.719 80.0
1.708 -1.333 1.875 80.0
1.708 -1.333 2.031 80.0
1.708 -1.333 2.188 80.0
1.708 -1.333 2.344 80.0
1.708 -1.333 2.500 80.0
1.708 -0.667 0.000 80.0
1.708 -0.667 0.156 80.0
1.708 -0.667 0.312 80.0
1.708 -0.667 0.469 80.0
1.708 -0.667 0.625 80.0
1.708 -0.667 0.781 80.0
1.708 -0.667 0.938 80.0
1.708 -0.667 1.094 80.0
1.708 -0.667 1.250 80.0
1.708 -0.667 1.406 80.0
1.708 -0.667 1.562 80.0
1.708 -0.667 1.719 80.0
1.708 -0.667 1.875 80.0
1.708 -0.667 2.031 80.0
1.708 -0.667 2.188 80.0
1.708 -0.667 2.344 80.0
1.708 -0.667 2.500 80.0
1.775 -1.303 0.000 80.0
1.775 -1.303 0.156 80.0
1.775 -1.303 0.312 80.0
1.775 -1.303 0.469 80.0
1.775 -1.303 0.625 80.0
1.775 -1.303 0.781 80.0
1.775 -1.303 0.938 80.0
1.775 -1.303 1.094 80.0
1.775 -1.303 1.250 80.0
1.775 -1.303 1.406 80.0
1.775 -1.303 1.562 80.0
1.775 -1.303 1.719 80.0
1.775 -1.303 1.875 80.0
1.775 -1.303 2.031 80.0
1.775 -1.303 2.188 80.0
1.775 -1.303 2.344 80.0
1.775 -1.303 2.500 80.0
1.775 -0.697 0.000 80.0
1.775 -0.697 0.156 80.0
1.775 -0.697 0.312 80.0
1.775 -0.697 0.469 80.0
1.775 -0.697 0.625 80.0
1.775 -0.697 0.781 80.0
1.775 -0.697 0.938 80.0
1.775 -0.697 1.094 80.0
1.775 -0.697 1.250 80.0
1.775 -0.697 1.406 80.0
1.775 -0.697 1.562 80.0
1.775 -0.697 1.719 80.0
1.775 -0.697 1.875 80.0
1.775 -0.697 2.031 80.0
1.775 -0.697 2.188 80.0
1.775 -0.697 2.344 80.0
1.775 -0.697 2.500 80.0
1.834 -1.260 0.000 80.0
1.834 -1.260 0.156 80.0
1.834 -1.260 0.312 80.0
1.834 -1.260 0.469 80.0
1.834 -1.260 0.625 80.0
1.834 -1.260 0.781 80.0
1.834 -1.260 0.938 80.0
1.834 -1.260 1.094 80.0
1.834 -1.260 1.250 80.0
1.834 -1.260 1.406 80.0
1.834 -1.260 1.562 80.0
1.834 -1.260 1.719 80.0
1.834 -1.260 1.875 80.0
1.834 -1.260 2.031 80.0
1.834 -1.260 2.188 80.0
1.834 -1.260 2.344 80.0
1.834 -1.260 2.500 80.0
1.834 -0.740 0.000 80.0
1.834 -0.740 0.156 80.0
1.834 -0.740 0.312 80.0
1.834 -0.740 0.469 80.0
1.834 -0.740 0.625 80.0
1.834 -0.740 0.781 80.0
1.834 -0.740 0.938 80.0
1.834 -0.740 1.094 80.0
1.834 -0.740 1.250 80.0
1.834 -0.740 1.406 80.0
1.834 -0.740 1.562 80.0
1.834 -0.740 1.719 80.0
1.834 -0.740 1.875 80.0
1.834 -0.740 2.031 80.0
1.834 -0.740 2.188 80.0
1.834 -0.740 2.344 80.0
1.834 -0.740 2.500 80.0
1.867 0.820 0.000 80.0
1.867 0.820 0.167 80.0
1.867 0.820 0.333 80.0
1.867 0.820 0.500 80.0
1.867 0.820 0.667 80.0
1.867 0.820 0.833 80.0
1.867 0.820 1.000 80.0
1.867 0.820 1.167 80.0
1.867 0.820 1.333 80.0
1.867 0.820 1.500 80.0
1.867 0.820 1.667 80.0
1.867 0.820 1.833 80.0
1.867 0.820 2.000 80.0
1.867 0.980 0.000 80.0
1.867 0.980 0.167 80.0
1.867 0.980 0.333 80.0
1.867 0.980 0.500 80.0
1.867 0.980 0.667 80.0
1.867 0.980 0.833 80.0
1.867 0.980 1.000 80.0
1.867 0.980 1.167 80.0
1.867 0.980 1.333 80.0
1.867 0.980 1.500 80.0
1.867 0.980 1.667 80.0
1.867 0.980 1.833 80.0
1.867 0.980 2.000 80.0
1.883 -1.206 0.000 80.0
1.883 -1.206 0.156 80.0
1.883 -1.206 0.312 80.0
1.883 -1.206 0.469 80.0
1.883 -1.206 0.625 80.0
1.883 -1.206 0.781 80.0
1.883 -1.206 0.938 80.0
1.883 -1.206 1.094 80.0
1.883 -1.206 1.250 80.0
1.883 -1.206 1.406 80.0
1.883 -1.206 1.562 80.0
1.883 -1.206 1.719 80.0
1.883 -1.206 1.875 80.0
1.883 -1.206 2.031 80.0
1.883 -1.206 2.188 80.0
1.883 -1.206 2.344 80.0
1.883 -1.206 2.500 80.0
1.883 -0.794 0.000 80.0
1.883 -0.794 0.156 80.0
1.883 -0.794 0.312 80.0
1.883 -0.794 0.469 80.0
1.883 -0.794 0.625 80.0
1.883 -0.794 0.781 80.0
1.883 -0.794 0.938 80.0
1.883 -0.794 1.094 80.0
1.883 -0.794 1.250 80.0
1.883 -0.794 1.406 80.0
1.883 -0.794 1.562 80.0
1.883 -0.794 1.719 80.0
1.883 -0.794 1.875 80.0
1.883 -0.794 2.031 80.0
1.883 -0.794 2.188 80.0
1.883 -0.794 2.344 80.0
1.883 -0.794 2.500 80.0
1.920 -1.142 0.000 80.0
1.920 -1.142 0.156 80.0
1.920 -1.142 0.312 80.0
1.920 -1.142 0.469 80.0
1.920 -1.142 0.625 80.0
1.920 -1.142 0.781 80.0
1.920 -1.142 0.938 80.0
1.920 -1.142 1.094 80.0
1.920 -1.142 1.250 80.0
1.920 -1.142 1.406 80.0
1.920 -1.142 1.562 80.0
1.920 -1.142 1.719 80.0
1.920 -1.142 1.875 80.0
1.920 -1.142 2.031 80.0
1.920 -1.142 2.188 80.0
1.920 -1.142 2.344 80.0
1.920 -1.142 2.500 80.0
1.920 -0.858 0.000 80.0
1.920 -0.858 0.156 80.0
1.920 -0.858 0.312 80.0
1.920 -0.858 0.469 80.0
1.920 -0.858 0.625 80.0
1.920 -0.858 0.781 80.0
1.920 -0.858 0.938 80.0
1.920 -0.858 1.094 80.0
1.920 -0.858 1.250 80.0
1.920 -0.858 1.406 80.0
1.920 -0.858 1.562 80.0
1.920 -0.858 1.719 80.0
1.920 -0.858 1.875 80.0
1.920 -0.858 2.031 80.0
1.920 -0.858 2.188 80.0
1.920 -0.858 2.344 80.0
1.920 -0.858 2.500 80.0
1.942 -1.073 0.000 80.0
1.942 -1.073 0.156 80.0
1.942 -1.073 0.312 80.0
1.942 -1.073 0.469 80.0
1.942 -1.073 0.625 80.0
1.942 -1.073 0.781 80.0
1.942 -1.073 0.938 80.0
1.942 -1.073 1.094 80.0
1.942 -1.073 1.250 80.0
1.942 -1.073 1.406 80.0
1.942 -1.073 1.562 80.0
1.942 -1.073 1.719 80.0
1.942 -1.073 1.875 80.0
1.942 -1.073 2.031 80.0
1.942 -1.073 2.188 80.0
1.942 -1.073 2.344 80.0
1.942 -1.073 2.500 80.0
1.942 -0.927 0.000 80.0
1.942 -0.927 0.156 80.0
1.942 -0.927 0.312 80.0
1.942 -0.927 0.469 80.0
1.942 -0.927 0.625 80.0
1.942 -0.927 0.781 80.0
1.942 -0.927 0.938 80.0
1.942 -0.927 1.094 80.0
1.942 -0.927 1.250 80.0
1.942 -0.927 1.406 80.0
1.942 -0.927 1.562 80.0
1.942 -0.927 1.719 80.0
1.942 -0.927 1.875 80.0
1.942 -0.927 2.031 80.0
1.942 -0.927 2.188 80.0
1.942 -0.927 2.344 80.0
1.942 -0.927 2.500 80.0
1.950 -1.000 0.000 80.0
1.950 -1.000 0.156 80.0
1.950 -1.000 0.312 80.0
1.950 -1.000 0.469 80.0
1.950 -1.000 0.625 80.0
1.950 -1.000 0.781 80.0
1.950 -1.000 0.938 80.0
1.950 -1.000 1.094 80.0
1.950 -1.000 1.250 80.0
1.950 -1.000 1.406 80.0
1.950 -1.000 1.562 80.0
1.950 -1.000 1.719 80.0
1.950 -1.000 1.875 80.0
1.950 -1.000 2.031 80.0
1.950 -1.000 2.188 80.0
1.950 -1.000 2.344 80.0
1.950 -1.000 2.500 80.0
2.044 0.820 0.000 80.0
2.044 0.820 0.167 80.0
2.044 0.820 0.333 80.0
2.044 0.820 0.500 80.0
2.044 0.820 0.667 80.0
2.044 0.820 0.833 80.0
2.044 0.820 1.000 80.0
2.044 0.820 1.167 80.0
2.044 0.820 1.333 80.0
2.044 0.820 1.500 80.0
2.044 0.820 1.667 80.0
2.044 0.820 1.833 80.0
2.044 0.820 2.000 80.0
2.044 0.980 0.000 80.0
2.044 0.980 0.167 80.0
2.044 0.980 0.333 80.0
2.044 0.980 0.500 80.0
2.044 0.980 0.667 80.0
2.044 0.980 0.833 80.0
2.044 0.980 1.000 80.0
2.044 0.980 1.167 80.0
2.044 0.980 1.333 80.0
2.044 0.980 1.500 80.0
2.044 0.980 1.667 80.0
2.044 0.980 1.833 80.0
2.044 0.980 2.000 80.0
2.200 1.400 0.000 80.0
2.200 1.400 0.157 80.0
2.200 1.400 0.314 80.0
2.200 1.400 0.471 80.0
2.200 1.400 0.629 80.0
2.200 1.400 0.786 80.0
2.200 1.400 0.943 80.0
2.200 1.400 1.100 80.0
2.200 1.400 1.257 80.0
2.200 1.400 1.414 80.0
2.200 1.400 1.571 80.0
2.200 1.400 1.729 80.0
2.200 1.400 1.886 80.0
2.200 1.400 2.043 80.0
2.200 1.400 2.200 80.0
2.207 1.338 0.000 80.0
2.207 1.338 0.157 80.0
2.207 1.338 0.314 80.0
2.207 1.338 0.471 80.0
2.207 1.338 0.629 80.0
2.207 1.338 0.786 80.0
2.207 1.338 0.943 80.0
2.207 1.338 1.100 80.0
2.207 1.338 1.257 80.0
2.207 1.338 1.414 80.0
2.207 1.338 1.571 80.0
2.207 1.338 1.729 80.0
2.207 1.338 1.886 80.0
2.207 1.338 2.043 80.0
2.207 1.338 2.200 80.0
2.207 1.462 0.000 80.0
2.207 1.462 0.157 80.0
2.207 1.462 0.314 80.0
2.207 1.462 0.471 80.0
2.207 1.462 0.629 80.0
2.207 1.462 0.786 80.0
2.207 1.462 0.943 80.0
2.207 1.462 1.100 80.0
2.207 1.462 1.257 80.0
2.207 1.462 1.414 80.0
2.207 1.462 1.571 80.0
2.207 1.462 1.729 80.0
2.207 1.462 1.886 80.0
2.207 1.462 2.043 80.0
2.207 1.462 2.200 80.0
2.222 0.820 0.000 80.0
2.222 0.820 0.167 80.0
2.222 0.820 0.333 80.0
2.222 0.820 0.500 80.0
2.222 0.820 0.667 80.0
2.222 0.820 0.833 80.0
2.222 0.820 1.000 80.0
2.222 0.820 1.167 80.0
2.222 0.820 1.333 80.0
2.222 0.820 1.500 80.0
2.222 0.820 1.667 80.0
2.222 0.820 1.833 80.0
2.222 0.820 2.000 80.0
2.222 0.980 0.000 80.0
2.222 0.980 0.167 80.0
2.222 0.980 0.333 80.0
2.222 0.980 0.500 80.0
2.222 0.980 0.667 80.0
2.222 0.980 0.833 80.0
2.222 0.980 1.000 80.0
2.222 0.980 1.167 80.0
2.222 0.980 1.333 80.0
2.222 0.980 1.500 80.0
2.222 0.980 1.667 80.0
2.222 0.980 1.833 80.0
2.222 0.980 2.000 80.0
2.226 1.278 0.000 80.0
2.226 1.278 0.157 80.0
2.226 1.278 0.314 80.0
2.226 1.278 0.471 80.0
2.226 1.278 0.629 80.0
2.226 1.278 0.786 80.0
2.226 1.278 0.943 80.0
2.226 1.278 1.100 80.0
2.226 1.278 1.257 80.0
2.226 1.278 1.414 80.0
2.226 1.278 1.571 80.0
2.226 1.278 1.729 80.0
2.226 1.278 1.886 80.0
2.226 1.278 2.043 80.0
2.226 1.278 2.200 80.0
2.226 1.522 0.000 80.0
2.226 1.522 0.157 80.0
2.226 1.522 0.314 80.0
2.226 1.522 0.471 80.0
2.226 1.522 0.629 80.0
2.226 1.522 0.786 80.0
2.226 1.522 0.943 80.0
2.226 1.522 1.100 80.0
2.226 1.522 1.257 80.0
2.226 1.522 1.414 80.0
2.226 1.522 1.571 80.0
2.226 1.522 1.729 80.0
2.226 1.522 1.886 80.0
2.226 1.522 2.043 80.0
2.226 1.522 2.200 80.0
2.257 1.224 0.000 80.0
2.257 1.224 0.157 80.0
2.257 1.224 0.314 80.0
2.257 1.224 0.471 80.0
2.257 1.224 0.629 80.0
2.257 1.224 0.786 80.0
2.257 1.224 0.943 80.0
2.257 1.224 1.100 80.0
2.257 1.224 1.257 80.0
2.257 1.224 1.414 80.0
2.257 1.224 1.571 80.0
2.257 1.224 1.729 80.0
2.257 1.224 1.886 80.0
2.257 1.224 2.043 80.0
2.257 1.224 2.200 80.0
2.257 1.576 0.000 80.0
2.257 1.576 0.157 80.0
2.257 1.576 0.314 80.0
2.257 1.576 0.471 80.0
2.257 1.576 0.629 80.0
2.257 1.576 0.786 80.0
2.257 1.576 0.943 80.0
2.257 1.576 1.100 80.0
2.257 1.576 1.257 80.0
2.257 1.576 1.414 80.0
2.257 1.576 1.571 80.0
2.257 1.576 1.729 80.0
2.257 1.576 1.886 80.0
2.257 1.576 2.043 80.0
2.257 1.576 2.200 80.0
2.299 1.177 0.000 80.0
2.299 1.177 0.157 80.0
2.299 1.177 0.314 80.0
2.299 1.177 0.471 80.0
2.299 1.177 0.629 80.0
2.299 1.177 0.786 80.0
2.299 1.177 0.943 80.0
2.299 1.177 1.100 80.0
2.299 1.177 1.257 80.0
2.299 1.177 1.414 80.0
2.299 1.177 1.571 80.0
2.299 1.177 1.729 80.0
2.299 1.177 1.886 80.0
2.299 1.177 2.043 80.0
2.299 1.177 2.200 80.0
2.299 1.623 0.000 80.0
2.299 1.623 0.157 80.0
2.299 1.623 0.314 80.0
2.299 1.623 0.471 80.0
2.299 1.623 0.629 80.0
2.299 1.623 0.786 80.0
2.299 1.623 0.943 80.0
2.299 1.623 1.100 80.0
2.299 1.623 1.257 80.0
2.299 1.623 1.414 80.0
2.299 1.623 1.571 80.0
2.299 1.623 1.729 80.0
2.299 1.623 1.886 80.0
2.299 1.623 2.043 80.0
2.299 1.623 2.200 80.0
2.350 1.140 0.000 80.0
2.350 1.140 0.157 80.0
2.350 1.140 0.314 80.0
2.350 1.140 0.471 80.0
2.350 1.140 0.629 80.0
2.350 1.140 0.786 80.0
2.350 1.140 0.943 80.0
2.350 1.140 1.100 80.0
2.350 1.140 1.257 80.0
2.350 1.140 1.414 80.0
2.350 1.140 1.571 80.0
2.350 1.140 1.729 80.0
2.350 1.140 1.886 80.0
2.350 1.140 2.043 80.0
2.350 1.140 2.200 80.0
2.350 1.660 0.000 80.0
2.350 1.660 0.157 80.0
2.350 1.660 0.314 80.0
2.350 1.660 0.471 80.0
2.350 1.660 0.629 80.0
2.350 1.660 0.786 80.0
2.350 1.660 0.943 80.0
2.350 1.660 1.100 80.0
2.350 1.660 1.257 80.0
2.350 1.660 1.414 80.0
2.350 1.660 1.571 80.0
2.350 1.660 1.729 80.0
2.350 1.660 1.886 80.0
2.350 1.660 2.043 80.0
2.350 1.660 2.200 80.0
2.400 0.820 0.000 80.0
2.400 0.820 0.167 80.0
2.400 0.820 0.333 80.0
2.400 0.820 0.500 80.0
2.400 0.820 0.667 80.0
2.400 0.820 0.833 80.0
2.400 0.820 1.000 80.0
2.400 0.820 1.167 80.0
2.400 0.820 1.333 80.0
2.400 0.820 1.500 80.0
2.400 0.820 1.667 80.0
2.400 0.820 1.833 80.0
2.400 0.820 2.000 80.0
2.400 0.980 0.000 80.0
2.400 0.980 0.167 80.0
2.400 0.980 0.333 80.0
2.400 0.980 0.500 80.0
2.400 0.980 0.667 80.0
2.400 0.980 0.833 80.0
2.400 0.980 1.000 80.0
2.400 0.980 1.167 80.0
2.400 0.980 1.333 80.0
2.400 0.980 1.500 80.0
2.400 0.980 1.667 80.0
2.400 0.980 1.833 80.0
2.400 0.980 2.000 80.0
2.407 1.115 0.000 80.0
2.407 1.115 0.157 80.0
2.407 1.115 0.314 80.0
2.407 1.115 0.471 80.0
2.407 1.115 0.629 80.0
2.407 1.115 0.786 80.0
2.407 1.115 0.943 80.0
2.407 1.115 1.100 80.0
2.407 1.115 1.257 80.0
2.407 1.115 1.414 80.0
2.407 1.115 1.571 80.0
2.407 1.115 1.729 80.0
2.407 1.115 1.886 80.0
2.407 1.115 2.043 80.0
2.407 1.115 2.200 80.0
2.407 1.685 0.000 80.0
2.407 1.685 0.157 80.0
2.407 1.685 0.314 80.0
2.407 1.685 0.471 80.0
2.407 1.685 0.629 80.0
2.407 1.685 0.786 80.0
2.407 1.685 0.943 80.0
2.407 1.685 1.100 80.0
2.407 1.685 1.257 80.0
2.407 1.685 1.414 80.0
2.407 1.685 1.571 80.0
2.407 1.685 1.729 80.0
2.407 1.685 1.886 80.0
2.407 1.685 2.043 80.0
2.407 1.685 2.200 80.0
2.469 1.102 0.000 80.0
2.469 1.102 0.157 80.0
2.469 1.102 0.314 80.0
2.469 1.102 0.471 80.0
2.469 1.102 0.629 80.0
2.469 1.102 0.786 80.0
2.469 1.102 0.943 80.0
2.469 1.102 1.100 80.0
2.469 1.102 1.257 80.0
2.469 1.102 1.414 80.0
2.469 1.102 1.571 80.0
2.469 1.102 1.729 80.0
2.469 1.102 1.886 80.0
2.469 1.102 2.043 80.0
2.469 1.102 2.200 80.0
2.469 1.698 0.000 80.0
2.469 1.698 0.157 80.0
2.469 1.698 0.314 80.0
2.469 1.698 0.471 80.0
2.469 1.698 0.629 80.0
2.469 1.698 0.786 80.0
2.469 1.698 0.943 80.0
2.469 1.698 1.100 80.0
2.469 1.698 1.257 80.0
2.469 1.698 1.414 80.0
2.469 1.698 1.571 80.0
2.469 1.698 1.729 80.0
2.469 1.698 1.886 80.0
2.469 1.698 2.043 80.0
2.469 1.698 2.200 80.0
2.531 1.102 0.000 80.0
2.531 1.102 0.157 80.0
2.531 1.102 0.314 80.0
2.531 1.102 0.471 80.0
2.531 1.102 0.629 80.0
2.531 1.102 0.786 80.0
2.531 1.102 0.943 80.0
2.531 1.102 1.100 80.0
2.531 1.102 1.257 80.0
2.531 1.102 1.414 80.0
2.531 1.102 1.571 80.0
2.531 1.102 1.729 80.0
2.531 1.102 1.886 80.0
2.531 1.102 2.043 80.0
2.531 1.102 2.200 80.0
2.531 1.698 0.000 80.0
2.531 1.698 0.157 80.0
2.531 1.698 0.314 80.0
2.531 1.698 0.471 80.0
2.531 1.698 0.629 80.0
2.531 1.698 0.786 80.0
2.531 1.698 0.943 80.0
2.531 1.698 1.100 80.0
2.531 1.698 1.257 80.0
2.531 1.698 1.414 80.0
2.531 1.698 1.571 80.0
2.531 1.698 1.729 80.0
2.531 1.698 1.886 80.0
2.531 1.698 2.043 80.0
2.531 1.698 2.200 80.0
2.593 1.115 0.000 80.0
2.593 1.115 0.157 80.0
2.593 1.115 0.314 80.0
2.593 1.115 0.471 80.0
2.593 1.115 0.629 80.0
2.593 1.115 0.786 80.0
2.593 1.115 0.943 80.0
2.593 1.115 1.100 80.0
2.593 1.115 1.257 80.0
2.593 1.115 1.414 80.0
2.593 1.115 1.571 80.0
2.593 1.115 1.729 80.0
2.593 1.115 1.886 80.0
2.593 1.115 2.043 80.0
2.593 1.115 2.200 80.0
2.593 1.685 0.000 80.0
2.593 1.685 0.157 80.0
2.593 1.685 0.314 80.0
2.593 1.685 0.471 80.0
2.593 1.685 0.629 80.0
2.593 1.685 0.786 80.0
2.593 1.685 0.943 80.0
2.593 1.685 1.100 80.0
2.593 1.685 1.257 80.0
2.593 1.685 1.414 80.0
2.593 1.685 1.571 80.0
2.593 1.685 1.729 80.0
2.593 1.685 1.886 80.0
2.593 1.685 2.043 80.0
2.593 1.685 2.200 80.0
2.650 1.140 0.000 80.0
2.650 1.140 0.157 80.0
2.650 1.140 0.314 80.0
2.650 1.140 0.471 80.0
2.650 1.140 0.629 80.0
2.650 1.140 0.786 80.0
2.650 1.140 0.943 80.0
2.650 1.140 1.100 80.0
2.650 1.140 1.257 80.0
2.650 1.140 1.414 80.0
2.650 1.140 1.571 80.0
2.650 1.140 1.729 80.0
2.650 1.140 1.886 80.0
2.650 1.140 2.043 80.0
2.650 1.140 2.200 80.0
2.650 1.660 0.000 80.0
2.650 1.660 0.157 80.0
2.650 1.660 0.314 80.0
2.650 1.660 0.471 80.0
2.650 1.660 0.629 80.0
2.650 1.660 0.786 80.0
2.650 1.660 0.943 80.0
2.650 1.660 1.100 80.0
2.650 1.660 1.257 80.0
2.650 1.660 1.414 80.0
2.650 1.660 1.571 80.0
2.650 1.660 1.729 80.0
2.650 1.660 1.886 80.0
2.650 1.660 2.043 80.0
2.650 1.660 2.200 80.0
2.701 1.177 0.000 80.0
2.701 1.177 0.157 80.0
2.701 1.177 0.314 80.0
2.701 1.177 0.471 80.0
2.701 1.177 0.629 80.0
2.701 1.177 0.786 80.0
2.701 1.177 0.943 80.0
2.701 1.177 1.100 80.0
2.701 1.177 1.257 80.0
2.701 1.177 1.414 80.0
2.701 1.177 1.571 80.0
2.701 1.177 1.729 80.0
2.701 1.177 1.886 80.0
2.701 1.177 2.043 80.0
2.701 1.177 2.200 80.0
2.701 1.623 0.000 80.0
2.701 1.623 0.157 80.0
2.701 1.623 0.314 80.0
2.701 1.623 0.471 80.0
2.701 1.623 0.629 80.0
2.701 1.623 0.786 80.0
2.701 1.623 0.943 80.0
2.701 1.623 1.100 80.0
2.701 1.623 1.257 80.0
2.701 1.623 1.414 80.0
2.701 1.623 1.571 80.0
2.701 1.623 1.729 80.0
2.701 1.623 1.886 80.0
2.701 1.623 2.043 80.0
2.701 1.623 2.200 80.0
2.743 1.224 0.000 80.0
2.743 1.224 0.157 80.0
2.743 1.224 0.314 80.0
2.743 1.224 0.471 80.0
2.743 1.224 0.629 80.0
2.743 1.224 0.786 80.0
2.743 1.224 0.943 80.0
2.743 1.224 1.100 80.0
2.743 1.224 1.257 80.0
2.743 1.224 1.414 80.0
2.743 1.224 1.571 80.0
2.743 1.224 1.729 80.0
2.743 1.224 1.886 80.0
2.743 1.224 2.043 80.0
2.743 1.224 2.200 80.0
2.743 1.576 0.000 80.0
2.743 1.576 0.157 80.0
2.743 1.576 0.314 80.0
2.743 1.576 0.471 80.0
2.743 1.576 0.629 80.0
2.743 1.576 0.786 80.0
2.743 1.576 0.943 80.0
2.743 1.576 1.100 80.0
2.743 1.576 1.257 80.0
2.743 1.576 1.414 80.0
2.743 1.576 1.571 80.0
2.743 1.576 1.729 80.0
2.743 1.576 1.886 80.0
2.743 1.576 2.043 80.0
2.743 1.576 2.200 80.0
2.774 1.278 0.000 80.0
2.774 1.278 0.157 80.0
2.774 1.278 0.314 80.0
2.774 1.278 0.471 80.0
2.774 1.278 0.629 80.0
2.774 1.278 0.786 80.0
2.774 1.278 0.943 80.0
2.774 1.278 1.100 80.0
2.774 1.278 1.257 80.0
2.774 1.278 1.414 80.0
2.774 1.278 1.571 80.0
2.774 1.278 1.729 80.0
2.774 1.278 1.886 80.0
2.774 1.278 2.043 80.0
2.774 1.278 2.200 80.0
2.774 1.522 0.000 80.0
2.774 1.522 0.157 80.0
2.774 1.522 0.314 80.0
2.774 1.522 0.471 80.0
2.774 1.522 0.629 80.0
2.774 1.522 0.786 80.0
2.774 1.522 0.943 80.0
2.774 1.522 1.100 80.0
2.774 1.522 1.257 80.0
2.774 1.522 1.414 80.0
2.774 1.522 1.571 80.0
2.774 1.522 1.729 80.0
2.774 1.522 1.886 80.0
2.774 1.522 2.043 80.0
2.774 1.522 2.200 80.0
2.793 1.338 0.000 80.0
2.793 1.338 0.157 80.0
2.793 1.338 0.314 80.0
2.793 1.338 0.471 80.0
2.793 1.338 0.629 80.0
2.793 1.338 0.786 80.0
2.793 1.338 0.943 80.0
2.793 1.338 1.100 80.0
2.793 1.338 1.257 80.0
2.793 1.338 1.414 80.0
2.793 1.338 1.571 80.0
2.793 1.338 1.729 80.0
2.793 1.338 1.886 80.0
2.793 1.338 2.043 80.0
2.793 1.338 2.200 80.0
2.793 1.462 0.000 80.0
2.793 1.462 0.157 80.0
2.793 1.462 0.314 80.0
2.793 1.462 0.471 80.0
2.793 1.462 0.629 80.0
2.793 1.462 0.786 80.0
2.793 1.462 0.943 80.0
2.793 1.462 1.100 80.0
2.793 1.462 1.257 80.0
2.793 1.462 1.414 80.0
2.793 1.462 1.571 80.0
2.793 1.462 1.729 80.0
2.793 1.462 1.886 80.0
2.793 1.462 2.043 80.0
2.793 1.462 2.200 80.0
2.800 1.400 0.000 80.0
2.800 1.400 0.157 80.0
2.800 1.400 0.314 80.0
2.800 1.400 0.471 80.0
2.800 1.400 0.629 80.0
2.800 1.400 0.786 80.0
2.800 1.400 0.943 80.0
2.800 1.400 1.100 80.0
2.800 1.400 1.257 80.0
2.800 1.400 1.414 80.0
2.800 1.400 1.571 80.0
2.800 1.400 1.729 80.0
2.800 1.400 1.886 80.0
2.800 1.400 2.043 80.0
2.800 1.400 2.200 80.0
3.150 -0.050 0.000 80.0
3.150 -0.050 0.075 80.0
3.150 -0.050 0.150 80.0
3.150 0.079 0.000 80.0
3.150 0.079 0.075 80.0
3.150 0.079 0.150 80.0
3.150 0.207 0.000 80.0
3.150 0.207 0.075 80.0
3.150 0.207 0.150 80.0
3.150 0.336 0.000 80.0
3.150 0.336 0.075 80.0
3.150 0.336 0.150 80.0
3.150 0.464 0.000 80.0
3.150 0.464 0.075 80.0
3.150 0.464 0.150 80.0
3.150 0.593 0.000 80.0
3.150 0.593 0.075 80.0
3.150 0.593 0.150 80.0
3.150 0.721 0.000 80.0
3.150 0.721 0.075 80.0
3.150 0.721 0.150 80.0
3.150 0.850 0.000 80.0
3.150 0.850 0.075 80.0
3.150 0.850 0.150 80.0
3.200 0.000 0.860 80.0
3.200 0.000 0.910 80.0
3.200 0.000 0.960 80.0
3.200 0.080 0.860 80.0
3.200 0.080 0.910 80.0
3.200 0.080 0.960 80.0
3.200 0.160 0.860 80.0
3.200 0.160 0.910 80.0
3.200 0.160 0.960 80.0
3.200 0.240 0.860 80.0
3.200 0.240 0.910 80.0
3.200 0.240 0.960 80.0
3.200 0.320 0.860 80.0
3.200 0.320 0.910 80.0
3.200 0.320 0.960 80.0
3.200 0.400 0.860 80.0
3.200 0.400 0.910 80.0
3.200 0.400 0.960 80.0
3.200 0.480 0.860 80.0
3.200 0.480 0.910 80.0
3.200 0.480 0.960 80.0
3.200 0.560 0.860 80.0
3.200 0.560 0.910 80.0
3.200 0.560 0.960 80.0
3.200 0.640 0.860 80.0
3.200 0.640 0.910 80.0
3.200 0.640 0.960 80.0
3.200 0.720 0.860 80.0
3.200 0.720 0.910 80.0
3.200 0.720 0.960 80.0
3.200 0.800 0.860 80.0
3.200 0.800 0.910 80.0
3.200 0.800 0.960 80.0
3.279 -0.050 0.000 80.0
3.279 -0.050 0.075 80.0
3.279 -0.050 0.150 80.0
3.279 0.079 0.000 80.0
3.279 0.079 0.150 80.0
3.279 0.207 0.000 80.0
3.279 0.207 0.150 80.0
3.279 0.336 0.000 80.0
3.279 0.336 0.150 80.0
3.279 0.464 0.000 80.0
3.279 0.464 0.150 80.0
3.279 0.593 0.000 80.0
3.279 0.593 0.150 80.0
3.279 0.721 0.000 80.0
3.279 0.721 0.150 80.0
3.279 0.850 0.000 80.0
3.279 0.850 0.075 80.0
3.279 0.850 0.150 80.0
3.280 0.000 0.860 80.0
3.280 0.000 0.910 80.0
3.280 0.000 0.960 80.0
3.280 0.080 0.860 80.0
3.280 0.080 0.960 80.0
3.280 0.160 0.860 80.0
3.280 0.160 0.960 80.0
3.280 0.240 0.860 80.0
3.280 0.240 0.960 80.0
3.280 0.320 0.860 80.0
3.280 0.320 0.960 80.0
3.280 0.400 0.860 80.0
3.280 0.400 0.960 80.0
3.280 0.480 0.860 80.0
3.280 0.480 0.960 80.0
3.280 0.560 0.860 80.0
3.280 0.560 0.960 80.0
3.280 0.640 0.860 80.0
3.280 0.640 0.960 80.0
3.280 0.720 0.860 80.0
3.280 0.720 0.960 80.0
3.280 0.800 0.860 80.0
3.280 0.800 0.910 80.0
3.280 0.800 0.960 80.0
3.360 0.000 0.860 80.0
3.360 0.000 0.910 80.0
3.360 0.000 0.960 80.0
3.360 0.080 0.860 80.0
3.360 0.080 0.960 80.0
3.360 0.160 0.860 80.0
3.360 0.160 0.960 80.0
3.360 0.240 0.860 80.0
3.360 0.240 0.960 80.0
3.360 0.320 0.860 80.0
3.360 0.320 0.960 80.0
3.360 0.400 0.860 80.0
3.360 0.400 0.960 80.0
3.360 0.480 0.860 80.0
3.360 0.480 0.960 80.0
3.360 0.560 0.860 80.0
3.360 0.560 0.960 80.0
3.360 0.640 0.860 80.0
3.360 0.640 0.960 80.0
3.360 0.720 0.860 80.0
3.360 0.720 0.960 80.0
3.360 0.800 0.860 80.0
3.360 0.800 0.910 80.0
3.360 0.800 0.960 80.0
3.407 -0.050 0.000 80.0
3.407 -0.050 0.075 80.0
3.407 -0.050 0.150 80.0
3.407 0.079 0.000 80.0
3.407 0.079 0.150 80.0
3.407 0.207 0.000 80.0
3.407 0.207 0.150 80.0
3.407 0.336 0.000 80.0
3.407 0.336 0.150 80.0
3.407 0.464 0.000 80.0
3.407 0.464 0.150 80.0
3.407 0.593 0.000 80.0
3.407 0.593 0.150 80.0
3.407 0.721 0.000 80.0
3.407 0.721 0.150 80.0
3.407 0.850 0.000 80.0
3.407 0.850 0.075 80.0
3.407 0.850 0.150 80.0
3.440 0.000 0.860 80.0
3.440 0.000 0.910 80.0
3.440 0.000 0.960 80.0
3.440 0.080 0.860 80.0
3.440 0.080 0.960 80.0
3.440 0.160 0.860 80.0
3.440 0.160 0.960 80.0
3.440 0.240 0.860 80.0
3.440 0.240 0.960 80.0
3.440 0.320 0.860 80.0
3.440 0.320 0.960 80.0
3.440 0.400 0.860 80.0
3.440 0.400 0.960 80.0
3.440 0.480 0.860 80.0
3.440 0.480 0.960 80.0
3.440 0.560 0.860 80.0
3.440 0.560 0.960 80.0
3.440 0.640 0.860 80.0
3.440 0.640 0.960 80.0
3.440 0.720 0.860 80.0
3.440 0.720 0.960 80.0
3.440 0.800 0.860 80.0
3.440 0.800 0.910 80.0
3.440 0.800 0.960 80.0
3.520 0.000 0.860 80.0
3.520 0.000 0.910 80.0
3.520 0.000 0.960 80.0
3.520 0.080 0.860 80.0
3.520 0.080 0.960 80.0
3.520 0.160 0.860 80.0
3.520 0.160 0.960 80.0
3.520 0.240 0.860 80.0
3.520 0.240 0.960 80.0
3.520 0.320 0.860 80.0
3.520 0.320 0.960 80.0
3.520 0.400 0.860 80.0
3.520 0.400 0.960 80.0
3.520 0.480 0.860 80.0
3.520 0.480 0.960 80.0
3.520 0.560 0.860 80.0
3.520 0.560 0.960 80.0
3.520 0.640 0.860 80.0
3.520 0.640 0.960 80.0
3.520 0.720 0.860 80.0
3.520 0.720 0.960 80.0
3.520 0.800 0.860 80.0
3.520 0.800 0.910 80.0
3.520 0.800 0.960 80.0
3.536 -0.050 0.000 80.0
3.536 -0.050 0.075 80.0
3.536 -0.050 0.150 80.0
3.536 0.079 0.000 80.0
3.536 0.079 0.150 80.0
3.536 0.207 0.000 80.0
3.536 0.207 0.150 80.0
3.536 0.336 0.000 80.0
3.536 0.336 0.150 80.0
3.536 0.464 0.000 80.0
3.536 0.464 0.150 80.0
3.536 0.593 0.000 80.0
3.536 0.593 0.150 80.0
3.536 0.721 0.000 80.0
3.536 0.721 0.150 80.0
3.536 0.850 0.000 80.0
3.536 0.850 0.075 80.0
3.536 0.850 0.150 80.0
3.600 0.000 0.860 80.0
3.600 0.000 0.910 80.0
3.600 0.000 0.960 80.0
3.600 0.080 0.860 80.0
3.600 0.080 0.960 80.0
3.600 0.160 0.860 80.0
3.600 0.160 0.960 80.0
3.600 0.240 0.860 80.0
3.600 0.240 0.960 80.0
3.600 0.320 0.860 80.0
3.600 0.320 0.960 80.0
3.600 0.400 0.860 80.0
3.600 0.400 0.960 80.0
3.600 0.480 0.860 80.0
3.600 0.480 0.960 80.0
3.600 0.560 0.860 80.0
3.600 0.560 0.960 80.0
3.600 0.640 0.860 80.0
3.600 0.640 0.960 80.0
3.600 0.720 0.860 80.0
3.600 0.720 0.960 80.0
3.600 0.800 0.860 80.0
3.600 0.800 0.910 80.0
3.600 0.800 0.960 80.0
3.664 -0.050 0.000 80.0
3.664 -0.050 0.075 80.0
3.664 -0.050 0.150 80.0
3.664 0.079 0.000 80.0
3.664 0.079 0.150 80.0
3.664 0.207 0.000 80.0
3.664 0.207 0.150 80.0
3.664 0.336 0.000 80.0
3.664 0.336 0.150 80.0
3.664 0.464 0.000 80.0
3.664 0.464 0.150 80.0
3.664 0.593 0.000 80.0
3.664 0.593 0.150 80.0
3.664 0.721 0.000 80.0
3.664 0.721 0.150 80.0
3.664 0.850 0.000 80.0
3.664 0.850 0.075 80.0
3.664 0.850 0.150 80.0
3.680 0.000 0.860 80.0
3.680 0.000 0.910 80.0
3.680 0.000 0.960 80.0
3.680 0.080 0.860 80.0
3.680 0.080 0.960 80.0
3.680 0.160 0.860 80.0
3.680 0.160 0.960 80.0
3.680 0.240 0.860 80.0
3.680 0.240 0.960 80.0
3.680 0.320 0.860 80.0
3.680 0.320 0.960 80.0
3.680 0.400 0.860 80.0
3.680 0.400 0.960 80.0
3.680 0.480 0.860 80.0
3.680 0.480 0.960 80.0
3.680 0.560 0.860 80.0
3.680 0.560 0.960 80.0
3.680 0.640 0.860 80.0
3.680 0.640 0.960 80.0
3.680 0.720 0.860 80.0
3.680 0.720 0.960 80.0
3.680 0.800 0.860 80.0
3.680 0.800 0.910 80.0
3.680 0.800 0.960 80.0
3.760 0.000 0.860 80.0
3.760 0.000 0.910 80.0
3.760 0.000 0.960 80.0
3.760 0.080 0.860 80.0
3.760 0.080 0.960 80.0
3.760 0.160 0.860 80.0
3.760 0.160 0.960 80.0
3.760 0.240 0.860 80.0
3.760 0.240 0.960 80.0
3.760 0.320 0.860 80.0
3.760 0.320 0.960 80.0
3.760 0.400 0.860 80.0
3.760 0.400 0.960 80.0
3.760 0.480 0.860 80.0
3.760 0.480 0.960 80.0
3.760 0.560 0.860 80.0
3.760 0.560 0.960 80.0
3.760 0.640 0.860 80.0
3.760 0.640 0.960 80.0
3.760 0.720 0.860 80.0
3.760 0.720 0.960 80.0
3.760 0.800 0.860 80.0
3.760 0.800 0.910 80.0
3.760 0.800 0.960 80.0
3.793 -0.050 0.000 80.0
3.793 -0.050 0.075 80.0
3.793 -0.050 0.150 80.0
3.793 0.079 0.000 80.0
3.793 0.079 0.150 80.0
3.793 0.207 0.000 80.0
3.793 0.207 0.150 80.0
3.793 0.336 0.000 80.0
3.793 0.336 0.150 80.0
3.793 0.464 0.000 80.0
3.793 0.464 0.150 80.0
3.793 0.593 0.000 80.0
3.793 0.593 0.150 80.0
3.793 0.721 0.000 80.0
3.793 0.721 0.150 80.0
3.793 0.850 0.000 80.0
3.793 0.850 0.075 80.0
3.793 0.850 0.150 80.0
3.840 0.000 0.860 80.0
3.840 0.000 0.910 80.0
3.840 0.000 0.960 80.0
3.840 0.080 0.860 80.0
3.840 0.080 0.960 80.0
3.840 0.160 0.860 80.0
3.840 0.160 0.960 80.0
3.840 0.240 0.860 80.0
3.840 0.240 0.960 80.0
3.840 0.320 0.860 80.0
3.840 0.320 0.960 80.0
3.840 0.400 0.860 80.0
3.840 0.400 0.960 80.0
3.840 0.480 0.860 80.0
3.840 0.480 0.960 80.0
3.840 0.560 0.860 80.0
3.840 0.560 0.960 80.0
3.840 0.640 0.860 80.0
3.840 0.640 0.960 80.0
3.840 0.720 0.860 80.0
3.840 0.720 0.960 80.0
3.840 0.800 0.860 80.0
3.840 0.800 0.910 80.0
3.840 0.800 0.960 80.0
3.920 0.000 0.860 80.0
3.920 0.000 0.910 80.0
3.920 0.000 0.960 80.0
3.920 0.080 0.860 80.0
3.920 0.080 0.960 80.0
3.920 0.160 0.860 80.0
3.920 0.160 0.960 80.0
3.920 0.240 0.860 80.0
3.920 0.240 0.960 80.0
3.920 0.320 0.860 80.0
3.920 0.320 0.960 80.0
3.920 0.400 0.860 80.0
3.920 0.400 0.960 80.0
3.920 0.480 0.860 80.0
3.920 0.480 0.960 80.0
3.920 0.560 0.860 80.0
3.920 0.560 0.960 80.0
3.920 0.640 0.860 80.0
3.920 0.640 0.960 80.0
3.920 0.720 0.860 80.0
3.920 0.720 0.960 80.0
3.920 0.800 0.860 80.0
3.920 0.800 0.910 80.0
3.920 0.800 0.960 80.0
3.921 -0.050 0.000 80.0
3.921 -0.050 0.075 80.0
3.921 -0.050 0.150 80.0
3.921 0.079 0.000 80.0
3.921 0.079 0.150 80.0
3.921 0.207 0.000 80.0
3.921 0.207 0.150 80.0
3.921 0.336 0.000 80.0
3.921 0.336 0.150 80.0
3.921 0.464 0.000 80.0
3.921 0.464 0.150 80.0
3.921 0.593 0.000 80.0
3.921 0.593 0.150 80.0
3.921 0.721 0.000 80.0
3.921 0.721 0.150 80.0
3.921 0.850 0.000 80.0
3.921 0.850 0.075 80.0
3.921 0.850 0.150 80.0
4.000 0.000 0.860 80.0
4.000 0.000 0.910 80.0
4.000 0.000 0.960 80.0
4.000 0.080 0.860 80.0
4.000 0.080 0.910 80.0
4.000 0.080 0.960 80.0
4.000 0.160 0.860 80.0
4.000 0.160 0.910 80.0
4.000 0.160 0.960 80.0
4.000 0.240 0.860 80.0
4.000 0.240 0.910 80.0
4.000 0.240 0.960 80.0
4.000 0.320 0.860 80.0
4.000 0.320 0.910 80.0
4.000 0.320 0.960 80.0
4.000 0.400 0.860 80.0
4.000 0.400 0.910 80.0
4.000 0.400 0.960 80.0
4.000 0.480 0.860 80.0
4.000 0.480 0.910 80.0
4.000 0.480 0.960 80.0
4.000 0.560 0.860 80.0
4.000 0.560 0.910 80.0
4.000 0.560 0.960 80.0
4.000 0.640 0.860 80.0
4.000 0.640 0.910 80.0
4.000 0.640 0.960 80.0
4.000 0.720 0.860 80.0
4.000 0.720 0.910 80.0
4.000 0.720 0.960 80.0
4.000 0.800 0.860 80.0
4.000 0.800 0.910 80.0
4.000 0.800 0.960 80.0
4.050 -0.050 0.000 80.0
4.050 -0.050 0.075 80.0
4.050 -0.050 0.150 80.0
4.050 0.079 0.000 80.0
4.050 0.079 0.075 80.0
4.050 0.079 0.150 80.0
4.050 0.207 0.000 80.0
4.050 0.207 0.075 80.0
4.050 0.207 0.150 80.0
4.050 0.336 0.000 80.0
4.050 0.336 0.075 80.0
4.050 0.336 0.150 80.0
4.050 0.464 0.000 80.0
4.050 0.464 0.075 80.0
4.050 0.464 0.150 80.0
4.050 0.593 0.000 80.0
4.050 0.593 0.075 80.0
4.050 0.593 0.150 80.0
4.050 0.721 0.000 80.0
4.050 0.721 0.075 80.0
4.050 0.721 0.150 80.0
4.050 0.850 0.000 80.0
4.050 0.850 0.075 80.0
4.050 0.850 0.150 80.0
