# .PCD v0.7 - Point Cloud Data file format
VERSION 0.7
FIELDS x y z intensity
SIZE 4 4 4 4
TYPE F F F F
COUNT 1 1 1 1
WIDTH 3264
HEIGHT 1
VIEWPOINT 0 0 0 1 0 0 0
POINTS 3264
DATA ascii
1.980 -0.750 0.000 80.0
1.978 -0.713 0.000 80.0
1.970 -0.678 0.000 80.0
1.959 -0.643 0.000 80.0
1.942 -0.610 0.000 80.0
1.922 -0.580 0.000 80.0
1.898 -0.552 0.000 80.0
1.870 -0.528 0.000 80.0
1.840 -0.508 0.000 80.0
1.807 -0.491 0.000 80.0
1.772 -0.480 0.000 80.0
1.737 -0.472 0.000 80.0
1.700 -0.470 0.000 80.0
1.663 -0.472 0.000 80.0
1.628 -0.480 0.000 80.0
1.593 -0.491 0.000 80.0
1.560 -0.508 0.000 80.0
1.530 -0.528 0.000 80.0
1.502 -0.552 0.000 80.0
1.478 -0.580 0.000 80.0
1.458 -0.610 0.000 80.0
1.441 -0.643 0.000 80.0
1.430 -0.678 0.000 80.0
1.422 -0.713 0.000 80.0
1.420 -0.750 0.000 80.0
1.422 -0.787 0.000 80.0
1.430 -0.822 0.000 80.0
1.441 -0.857 0.000 80.0
1.458 -0.890 0.000 80.0
1.478 -0.920 0.000 80.0
1.502 -0.948 0.000 80.0
1.530 -0.972 0.000 80.0
1.560 -0.992 0.000 80.0
1.593 -1.009 0.000 80.0
1.628 -1.020 0.000 80.0
1.663 -1.028 0.000 80.0
1.700 -1.030 0.000 80.0
1.737 -1.028 0.000 80.0
1.772 -1.020 0.000 80.0
1.807 -1.009 0.000 80.0
1.840 -0.992 0.000 80.0
1.870 -0.972 0.000 80.0
1.898 -0.948 0.000 80.0
1.922 -0.920 0.000 80.0
1.942 -0.890 0.000 80.0
1.959 -0.857 0.000 80.0
1.970 -0.822 0.000 80.0
1.978 -0.787 0.000 80.0
1.980 -0.750 0.080 80.0
1.978 -0.713 0.080 80.0
1.970 -0.678 0.080 80.0
1.959 -0.643 0.080 80.0
1.942 -0.610 0.080 80.0
1.922 -0.580 0.080 80.0
1.898 -0.552 0.080 80.0
1.870 -0.528 0.080 80.0
1.840 -0.508 0.080 80.0
1.807 -0.491 0.080 80.0
1.772 -0.480 0.080 80.0
1.737 -0.472 0.080 80.0
1.700 -0.470 0.080 80.0
1.663 -0.472 0.080 80.0
1.628 -0.480 0.080 80.0
1.593 -0.491 0.080 80.0
1.560 -0.508 0.080 80.0
1.530 -0.528 0.080 80.0
1.502 -0.552 0.080 80.0
1.478 -0.580 0.080 80.0
1.458 -0.610 0.080 80.0
1.441 -0.643 0.080 80.0
1.430 -0.678 0.080 80.0
1.422 -0.713 0.080 80.0
1.420 -0.750 0.080 80.0
1.422 -0.787 0.080 80.0
1.430 -0.822 0.080 80.0
1.441 -0.857 0.080 80.0
1.458 -0.890 0.080 80.0
1.478 -0.920 0.080 80.0
1.502 -0.948 0.080 80.0
1.530 -0.972 0.080 80.0
1.560 -0.992 0.080 80.0
1.593 -1.009 0.080 80.0
1.628 -1.020 0.080 80.0
1.663 -1.028 0.080 80.0
1.700 -1.030 0.080 80.0
1.737 -1.028 0.080 80.0
1.772 -1.020 0.080 80.0
1.807 -1.009 0.080 80.0
1.840 -0.992 0.080 80.0
1.870 -0.972 0.080 80.0
1.898 -0.948 0.080 80.0
1.922 -0.920 0.080 80.0
1.942 -0.890 0.080 80.0
1.959 -0.857 0.080 80.0
1.970 -0.822 0.080 80.0
1.978 -0.787 0.080 80.0
1.980 -0.750 0.160 80.0
1.978 -0.713 0.160 80.0
1.970 -0.678 0.160 80.0
1.959 -0.643 0.160 80.0
1.942 -0.610 0.160 80.0
1.922 -0.580 0.160 80.0
1.898 -0.552 0.160 80.0
1.870 -0.528 0.160 80.0
1.840 -0.508 0.160 80.0
1.807 -0.491 0.160 80.0
1.772 -0.480 0.160 80.0
1.737 -0.472 0.160 80.0
1.700 -0.470 0.160 80.0
1.663 -0.472 0.160 80.0
1.628 -0.480 0.160 80.0
1.593 -0.491 0.160 80.0
1.560 -0.508 0.160 80.0
1.530 -0.528 0.160 80.0
1.502 -0.552 0.160 80.0
1.478 -0.580 0.160 80.0
1.458 -0.610 0.160 80.0
1.441 -0.643 0.160 80.0
1.430 -0.678 0.160 80.0
1.422 -0.713 0.160 80.0
1.420 -0.750 0.160 80.0
1.422 -0.787 0.160 80.0
1.430 -0.822 0.160 80.0
1.441 -0.857 0.160 80.0
1.458 -0.890 0.160 80.0
1.478 -0.920 0.160 80.0
1.502 -0.948 0.160 80.0
1.530 -0.972 0.160 80.0
1.560 -0.992 0.160 80.0
1.593 -1.009 0.160 80.0
1.628 -1.020 0.160 80.0
1.663 -1.028 0.160 80.0
1.700 -1.030 0.160 80.0
1.737 -1.028 0.160 80.0
1.772 -1.020 0.160 80.0
1.807 -1.009 0.160 80.0
1.840 -0.992 0.160 80.0
1.870 -0.972 0.160 80.0
1.898 -0.948 0.160 80.0
1.922 -0.920 0.160 80.0
1.942 -0.890 0.160 80.0
1.959 -0.857 0.160 80.0
1.970 -0.822 0.160 80.0
1.978 -0.787 0.160 80.0
1.980 -0.750 0.240 80.0
1.978 -0.713 0.240 80.0
1.970 -0.678 0.240 80.0
1.959 -0.643 0.240 80.0
1.942 -0.610 0.240 80.0
1.922 -0.580 0.240 80.0
1.898 -0.552 0.240 80.0
1.870 -0.528 0.240 80.0
1.840 -0.508 0.240 80.0
1.807 -0.491 0.240 80.0
1.772 -0.480 0.240 80.0
1.737 -0.472 0.240 80.0
1.700 -0.470 0.240 80.0
1.663 -0.472 0.240 80.0
1.628 -0.480 0.240 80.0
1.593 -0.491 0.240 80.0
1.560 -0.508 0.240 80.0
1.530 -0.528 0.240 80.0
1.502 -0.552 0.240 80.0
1.478 -0.580 0.240 80.0
1.458 -0.610 0.240 80.0
1.441 -0.643 0.240 80.0
1.430 -0.678 0.240 80.0
1.422 -0.713 0.240 80.0
1.420 -0.750 0.240 80.0
1.422 -0.787 0.240 80.0
1.430 -0.822 0.240 80.0
1.441 -0.857 0.240 80.0
1.458 -0.890 0.240 80.0
1.478 -0.920 0.240 80.0
1.502 -0.948 0.240 80.0
1.530 -0.972 0.240 80.0
1.560 -0.992 0.240 80.0
1.593 -1.009 0.240 80.0
1.628 -1.020 0.240 80.0
1.663 -1.028 0.240 80.0
1.700 -1.030 0.240 80.0
1.737 -1.028 0.240 80.0
1.772 -1.020 0.240 80.0
1.807 -1.009 0.240 80.0
1.840 -0.992 0.240 80.0
1.870 -0.972 0.240 80.0
1.898 -0.948 0.240 80.0
1.922 -0.920 0.240 80.0
1.942 -0.890 0.240 80.0
1.959 -0.857 0.240 80.0
1.970 -0.822 0.240 80.0
1.978 -0.787 0.240 80.0
1.980 -0.750 0.320 80.0
1.978 -0.713 0.320 80.0
1.970 -0.678 0.320 80.0
1.959 -0.643 0.320 80.0
1.942 -0.610 0.320 80.0
1.922 -0.580 0.320 80.0
1.898 -0.552 0.320 80.0
1.870 -0.528 0.320 80.0
1.840 -0.508 0.320 80.0
1.807 -0.491 0.320 80.0
1.772 -0.480 0.320 80.0
1.737 -0.472 0.320 80.0
1.700 -0.470 0.320 80.0
1.663 -0.472 0.320 80.0
1.628 -0.480 0.320 80.0
1.593 -0.491 0.320 80.0
1.560 -0.508 0.320 80.0
1.530 -0.528 0.320 80.0
1.502 -0.552 0.320 80.0
1.478 -0.580 0.320 80.0
1.458 -0.610 0.320 80.0
1.441 -0.643 0.320 80.0
1.430 -0.678 0.320 80.0
1.422 -0.713 0.320 80.0
1.420 -0.750 0.320 80.0
1.422 -0.787 0.320 80.0
1.430 -0.822 0.320 80.0
1.441 -0.857 0.320 80.0
1.458 -0.890 0.320 80.0
1.478 -0.920 0.320 80.0
1.502 -0.948 0.320 80.0
1.530 -0.972 0.320 80.0
1.560 -0.992 0.320 80.0
1.593 -1.009 0.320 80.0
1.628 -1.020 0.320 80.0
1.663 -1.028 0.320 80.0
1.700 -1.030 0.320 80.0
1.737 -1.028 0.320 80.0
1.772 -1.020 0.320 80.0
1.807 -1.009 0.320 80.0
1.840 -0.992 0.320 80.0
1.870 -0.972 0.320 80.0
1.898 -0.948 0.320 80.0
1.922 -0.920 0.320 80.0
1.942 -0.890 0.320 80.0
1.959 -0.857 0.320 80.0
1.970 -0.822 0.320 80.0
1.978 -0.787 0.320 80.0
1.980 -0.750 0.400 80.0
1.978 -0.713 0.400 80.0
1.970 -0.678 0.400 80.0
1.959 -0.643 0.400 80.0
1.942 -0.610 0.400 80.0
1.922 -0.580 0.400 80.0
1.898 -0.552 0.400 80.0
1.870 -0.528 0.400 80.0
1.840 -0.508 0.400 80.0
1.807 -0.491 0.400 80.0
1.772 -0.480 0.400 80.0
1.737 -0.472 0.400 80.0
1.700 -0.470 0.400 80.0
1.663 -0.472 0.400 80.0
1.628 -0.480 0.400 80.0
1.593 -0.491 0.400 80.0
1.560 -0.508 0.400 80.0
1.530 -0.528 0.400 80.0
1.502 -0.552 0.400 80.0
1.478 -0.580 0.400 80.0
1.458 -0.610 0.400 80.0
1.441 -0.643 0.400 80.0
1.430 -0.678 0.400 80.0
1.422 -0.713 0.400 80.0
1.420 -0.750 0.400 80.0
1.422 -0.787 0.400 80.0
1.430 -0.822 0.400 80.0
1.441 -0.857 0.400 80.0
1.458 -0.890 0.400 80.0
1.478 -0.920 0.400 80.0
1.502 -0.948 0.400 80.0
1.530 -0.972 0.400 80.0
1.560 -0.992 0.400 80.0
1.593 -1.009 0.400 80.0
1.628 -1.020 0.400 80.0
1.663 -1.028 0.400 80.0
1.700 -1.030 0.400 80.0
1.737 -1.028 0.400 80.0
1.772 -1.020 0.400 80.0
1.807 -1.009 0.400 80.0
1.840 -0.992 0.400 80.0
1.870 -0.972 0.400 80.0
1.898 -0.948 0.400 80.0
1.922 -0.920 0.400 80.0
1.942 -0.890 0.400 80.0
1.959 -0.857 0.400 80.0
1.970 -0.822 0.400 80.0
1.978 -0.787 0.400 80.0
1.980 -0.750 0.480 80.0
1.978 -0.713 0.480 80.0
1.970 -0.678 0.480 80.0
1.959 -0.643 0.480 80.0
1.942 -0.610 0.480 80.0
1.922 -0.580 0.480 80.0
1.898 -0.552 0.480 80.0
1.870 -0.528 0.480 80.0
1.840 -0.508 0.480 80.0
1.807 -0.491 0.480 80.0
1.772 -0.480 0.480 80.0
1.737 -0.472 0.480 80.0
1.700 -0.470 0.480 80.0
1.663 -0.472 0.480 80.0
1.628 -0.480 0.480 80.0
1.593 -0.491 0.480 80.0
1.560 -0.508 0.480 80.0
1.530 -0.528 0.480 80.0
1.502 -0.552 0.480 80.0
1.478 -0.580 0.480 80.0
1.458 -0.610 0.480 80.0
1.441 -0.643 0.480 80.0
1.430 -0.678 0.480 80.0
1.422 -0.713 0.480 80.0
1.420 -0.750 0.480 80.0
1.422 -0.787 0.480 80.0
1.430 -0.822 0.480 80.0
1.441 -0.857 0.480 80.0
1.458 -0.890 0.480 80.0
1.478 -0.920 0.480 80.0
1.502 -0.948 0.480 80.0
1.530 -0.972 0.480 80.0
1.560 -0.992 0.480 80.0
1.593 -1.009 0.480 80.0
1.628 -1.020 0.480 80.0
1.663 -1.028 0.480 80.0
1.700 -1.030 0.480 80.0
1.737 -1.028 0.480 80.0
1.772 -1.020 0.480 80.0
1.807 -1.009 0.480 80.0
1.840 -0.992 0.480 80.0
1.870 -0.972 0.480 80.0
1.898 -0.948 0.480 80.0
1.922 -0.920 0.480 80.0
1.942 -0.890 0.480 80.0
1.959 -0.857 0.480 80.0
1.970 -0.822 0.480 80.0
1.978 -0.787 0.480 80.0
1.980 -0.750 0.560 80.0
1.978 -0.713 0.560 80.0
1.970 -0.678 0.560 80.0
1.959 -0.643 0.560 80.0
1.942 -0.610 0.560 80.0
1.922 -0.580 0.560 80.0
1.898 -0.552 0.560 80.0
1.870 -0.528 0.560 80.0
1.840 -0.508 0.560 80.0
1.807 -0.491 0.560 80.0
1.772 -0.480 0.560 80.0
1.737 -0.472 0.560 80.0
1.700 -0.470 0.560 80.0
1.663 -0.472 0.560 80.0
1.628 -0.480 0.560 80.0
1.593 -0.491 0.560 80.0
1.560 -0.508 0.560 80.0
1.530 -0.528 0.560 80.0
1.502 -0.552 0.560 80.0
1.478 -0.580 0.560 80.0
1.458 -0.610 0.560 80.0
1.441 -0.643 0.560 80.0
1.430 -0.678 0.560 80.0
1.422 -0.713 0.560 80.0
1.420 -0.750 0.560 80.0
1.422 -0.787 0.560 80.0
1.430 -0.822 0.560 80.0
1.441 -0.857 0.560 80.0
1.458 -0.890 0.560 80.0
1.478 -0.920 0.560 80.0
1.502 -0.948 0.560 80.0
1.530 -0.972 0.560 80.0
1.560 -0.992 0.560 80.0
1.593 -1.009 0.560 80.0
1.628 -1.020 0.560 80.0
1.663 -1.028 0.560 80.0
1.700 -1.030 0.560 80.0
1.737 -1.028 0.560 80.0
1.772 -1.020 0.560 80.0
1.807 -1.009 0.560 80.0
1.840 -0.992 0.560 80.0
1.870 -0.972 0.560 80.0
1.898 -0.948 0.560 80.0
1.922 -0.920 0.560 80.0
1.942 -0.890 0.560 80.0
1.959 -0.857 0.560 80.0
1.970 -0.822 0.560 80.0
1.978 -0.787 0.560 80.0
1.980 -0.750 0.640 80.0
1.978 -0.713 0.640 80.0
1.970 -0.678 0.640 80.0
1.959 -0.643 0.640 80.0
1.942 -0.610 0.640 80.0
1.922 -0.580 0.640 80.0
1.898 -0.552 0.640 80.0
1.870 -0.528 0.640 80.0
1.840 -0.508 0.640 80.0
1.807 -0.491 0.640 80.0
1.772 -0.480 0.640 80.0
1.737 -0.472 0.640 80.0
1.700 -0.470 0.640 80.0
1.663 -0.472 0.640 80.0
1.628 -0.480 0.640 80.0
1.593 -0.491 0.640 80.0
1.560 -0.508 0.640 80.0
1.530 -0.528 0.640 80.0
1.502 -0.552 0.640 80.0
1.478 -0.580 0.640 80.0
1.458 -0.610 0.640 80.0
1.441 -0.643 0.640 80.0
1.430 -0.678 0.640 80.0
1.422 -0.713 0.640 80.0
1.420 -0.750 0.640 80.0
1.422 -0.787 0.640 80.0
1.430 -0.822 0.640 80.0
1.441 -0.857 0.640 80.0
1.458 -0.890 0.640 80.0
1.478 -0.920 0.640 80.0
1.502 -0.948 0.640 80.0
1.530 -0.972 0.640 80.0
1.560 -0.992 0.640 80.0
1.593 -1.009 0.640 80.0
1.628 -1.020 0.640 80.0
1.663 -1.028 0.640 80.0
1.700 -1.030 0.640 80.0
1.737 -1.028 0.640 80.0
1.772 -1.020 0.640 80.0
1.807 -1.009 0.640 80.0
1.840 -0.992 0.640 80.0
1.870 -0.972 0.640 80.0
1.898 -0.948 0.640 80.0
1.922 -0.920 0.640 80.0
1.942 -0.890 0.640 80.0
1.959 -0.857 0.640 80.0
1.970 -0.822 0.640 80.0
1.978 -0.787 0.640 80.0
1.980 -0.750 0.720 80.0
1.978 -0.713 0.720 80.0
1.970 -0.678 0.720 80.0
1.959 -0.643 0.720 80.0
1.942 -0.610 0.720 80.0
1.922 -0.580 0.720 80.0
1.898 -0.552 0.720 80.0
1.870 -0.528 0.720 80.0
1.840 -0.508 0.720 80.0
1.807 -0.491 0.720 80.0
1.772 -0.480 0.720 80.0
1.737 -0.472 0.720 80.0
1.700 -0.470 0.720 80.0
1.663 -0.472 0.720 80.0
1.628 -0.480 0.720 80.0
1.593 -0.491 0.720 80.0
1.560 -0.508 0.720 80.0
1.530 -0.528 0.720 80.0
1.502 -0.552 0.720 80.0
1.478 -0.580 0.720 80.0
1.458 -0.610 0.720 80.0
1.441 -0.643 0.720 80.0
1.430 -0.678 0.720 80.0
1.422 -0.713 0.720 80.0
1.420 -0.750 0.720 80.0
1.422 -0.787 0.720 80.0
1.430 -0.822 0.720 80.0
1.441 -0.857 0.720 80.0
1.458 -0.890 0.720 80.0
1.478 -0.920 0.720 80.0
1.502 -0.948 0.720 80.0
1.530 -0.972 0.720 80.0
1.560 -0.992 0.720 80.0
1.593 -1.009 0.720 80.0
1.628 -1.020 0.720 80.0
1.663 -1.028 0.720 80.0
1.700 -1.030 0.720 80.0
1.737 -1.028 0.720 80.0
1.772 -1.020 0.720 80.0
1.807 -1.009 0.720 80.0
1.840 -0.992 0.720 80.0
1.870 -0.972 0.720 80.0
1.898 -0.948 0.720 80.0
1.922 -0.920 0.720 80.0
1.942 -0.890 0.720 80.0
1.959 -0.857 0.720 80.0
1.970 -0.822 0.720 80.0
1.978 -0.787 0.720 80.0
1.980 -0.750 0.800 80.0
1.978 -0.713 0.800 80.0
1.970 -0.678 0.800 80.0
1.959 -0.643 0.800 80.0
1.942 -0.610 0.800 80.0
1.922 -0.580 0.800 80.0
1.898 -0.552 0.800 80.0
1.870 -0.528 0.800 80.0
1.840 -0.508 0.800 80.0
1.807 -0.491 0.800 80.0
1.772 -0.480 0.800 80.0
1.737 -0.472 0.800 80.0
1.700 -0.470 0.800 80.0
1.663 -0.472 0.800 80.0
1.628 -0.480 0.800 80.0
1.593 -0.491 0.800 80.0
1.560 -0.508 0.800 80.0
1.530 -0.528 0.800 80.0
1.502 -0.552 0.800 80.0
1.478 -0.580 0.800 80.0
1.458 -0.610 0.800 80.0
1.441 -0.643 0.800 80.0
1.430 -0.678 0.800 80.0
1.422 -0.713 0.800 80.0
1.420 -0.750 0.800 80.0
1.422 -0.787 0.800 80.0
1.430 -0.822 0.800 80.0
1.441 -0.857 0.800 80.0
1.458 -0.890 0.800 80.0
1.478 -0.920 0.800 80.0
1.502 -0.948 0.800 80.0
1.530 -0.972 0.800 80.0
1.560 -0.992 0.800 80.0
1.593 -1.009 0.800 80.0
1.628 -1.020 0.800 80.0
1.663 -1.028 0.800 80.0
1.700 -1.030 0.800 80.0
1.737 -1.028 0.800 80.0
1.772 -1.020 0.800 80.0
1.807 -1.009 0.800 80.0
1.840 -0.992 0.800 80.0
1.870 -0.972 0.800 80.0
1.898 -0.948 0.800 80.0
1.922 -0.920 0.800 80.0
1.942 -0.890 0.800 80.0
1.959 -0.857 0.800 80.0
1.970 -0.822 0.800 80.0
1.978 -0.787 0.800 80.0
1.980 -0.750 0.880 80.0
1.978 -0.713 0.880 80.0
1.970 -0.678 0.880 80.0
1.959 -0.643 0.880 80.0
1.942 -0.610 0.880 80.0
1.922 -0.580 0.880 80.0
1.898 -0.552 0.880 80.0
1.870 -0.528 0.880 80.0
1.840 -0.508 0.880 80.0
1.807 -0.491 0.880 80.0
1.772 -0.480 0.880 80.0
1.737 -0.472 0.880 80.0
1.700 -0.470 0.880 80.0
1.663 -0.472 0.880 80.0
1.628 -0.480 0.880 80.0
1.593 -0.491 0.880 80.0
1.560 -0.508 0.880 80.0
1.530 -0.528 0.880 80.0
1.502 -0.552 0.880 80.0
1.478 -0.580 0.880 80.0
1.458 -0.610 0.880 80.0
1.441 -0.643 0.880 80.0
1.430 -0.678 0.880 80.0
1.422 -0.713 0.880 80.0
1.420 -0.750 0.880 80.0
1.422 -0.787 0.880 80.0
1.430 -0.822 0.880 80.0
1.441 -0.857 0.880 80.0
1.458 -0.890 0.880 80.0
1.478 -0.920 0.880 80.0
1.502 -0.948 0.880 80.0
1.530 -0.972 0.880 80.0
1.560 -0.992 0.880 80.0
1.593 -1.009 0.880 80.0
1.628 -1.020 0.880 80.0
1.663 -1.028 0.880 80.0
1.700 -1.030 0.880 80.0
1.737 -1.028 0.880 80.0
1.772 -1.020 0.880 80.0
1.807 -1.009 0.880 80.0
1.840 -0.992 0.880 80.0
1.870 -0.972 0.880 80.0
1.898 -0.948 0.880 80.0
1.922 -0.920 0.880 80.0
1.942 -0.890 0.880 80.0
1.959 -0.857 0.880 80.0
1.970 -0.822 0.880 80.0
1.978 -0.787 0.880 80.0
1.980 -0.750 0.960 80.0
1.978 -0.713 0.960 80.0
1.970 -0.678 0.960 80.0
1.959 -0.643 0.960 80.0
1.942 -0.610 0.960 80.0
1.922 -0.580 0.960 80.0
1.898 -0.552 0.960 80.0
1.870 -0.528 0.960 80.0
1.840 -0.508 0.960 80.0
1.807 -0.491 0.960 80.0
1.772 -0.480 0.960 80.0
1.737 -0.472 0.960 80.0
1.700 -0.470 0.960 80.0
1.663 -0.472 0.960 80.0
1.628 -0.480 0.960 80.0
1.593 -0.491 0.960 80.0
1.560 -0.508 0.960 80.0
1.530 -0.528 0.960 80.0
1.502 -0.552 0.960 80.0
1.478 -0.580 0.960 80.0
1.458 -0.610 0.960 80.0
1.441 -0.643 0.960 80.0
1.430 -0.678 0.960 80.0
1.422 -0.713 0.960 80.0
1.420 -0.750 0.960 80.0
1.422 -0.787 0.960 80.0
1.430 -0.822 0.960 80.0
1.441 -0.857 0.960 80.0
1.458 -0.890 0.960 80.0
1.478 -0.920 0.960 80.0
1.502 -0.948 0.960 80.0
1.530 -0.972 0.960 80.0
1.560 -0.992 0.960 80.0
1.593 -1.009 0.960 80.0
1.628 -1.020 0.960 80.0
1.663 -1.028 0.960 80.0
1.700 -1.030 0.960 80.0
1.737 -1.028 0.960 80.0
1.772 -1.020 0.960 80.0
1.807 -1.009 0.960 80.0
1.840 -0.992 0.960 80.0
1.870 -0.972 0.960 80.0
1.898 -0.948 0.960 80.0
1.922 -0.920 0.960 80.0
1.942 -0.890 0.960 80.0
1.959 -0.857 0.960 80.0
1.970 -0.822 0.960 80.0
1.978 -0.787 0.960 80.0
1.980 -0.750 1.040 80.0
1.978 -0.713 1.040 80.0
1.970 -0.678 1.040 80.0
1.959 -0.643 1.040 80.0
1.942 -0.610 1.040 80.0
1.922 -0.580 1.040 80.0
1.898 -0.552 1.040 80.0
1.870 -0.528 1.040 80.0
1.840 -0.508 1.040 80.0
1.807 -0.491 1.040 80.0
1.772 -0.480 1.040 80.0
1.737 -0.472 1.040 80.0
1.700 -0.470 1.040 80.0
1.663 -0.472 1.040 80.0
1.628 -0.480 1.040 80.0
1.593 -0.491 1.040 80.0
1.560 -0.508 1.040 80.0
1.530 -0.528 1.040 80.0
1.502 -0.552 1.040 80.0
1.478 -0.580 1.040 80.0
1.458 -0.610 1.040 80.0
1.441 -0.643 1.040 80.0
1.430 -0.678 1.040 80.0
1.422 -0.713 1.040 80.0
1.420 -0.750 1.040 80.0
1.422 -0.787 1.040 80.0
1.430 -0.822 1.040 80.0
1.441 -0.857 1.040 80.0
1.458 -0.890 1.040 80.0
1.478 -0.920 1.040 80.0
1.502 -0.948 1.040 80.0
1.530 -0.972 1.040 80.0
1.560 -0.992 1.040 80.0
1.593 -1.009 1.040 80.0
1.628 -1.020 1.040 80.0
1.663 -1.028 1.040 80.0
1.700 -1.030 1.040 80.0
1.737 -1.028 1.040 80.0
1.772 -1.020 1.040 80.0
1.807 -1.009 1.040 80.0
1.840 -0.992 1.040 80.0
1.870 -0.972 1.040 80.0
1.898 -0.948 1.040 80.0
1.922 -0.920 1.040 80.0
1.942 -0.890 1.040 80.0
1.959 -0.857 1.040 80.0
1.970 -0.822 1.040 80.0
1.978 -0.787 1.040 80.0
1.980 -0.750 1.120 80.0
1.978 -0.713 1.120 80.0
1.970 -0.678 1.120 80.0
1.959 -0.643 1.120 80.0
1.942 -0.610 1.120 80.0
1.922 -0.580 1.120 80.0
1.898 -0.552 1.120 80.0
1.870 -0.528 1.120 80.0
1.840 -0.508 1.120 80.0
1.807 -0.491 1.120 80.0
1.772 -0.480 1.120 80.0
1.737 -0.472 1.120 80.0
1.700 -0.470 1.120 80.0
1.663 -0.472 1.120 80.0
1.628 -0.480 1.120 80.0
1.593 -0.491 1.120 80.0
1.560 -0.508 1.120 80.0
1.530 -0.528 1.120 80.0
1.502 -0.552 1.120 80.0
1.478 -0.580 1.120 80.0
1.458 -0.610 1.120 80.0
1.441 -0.643 1.120 80.0
1.430 -0.678 1.120 80.0
1.422 -0.713 1.120 80.0
1.420 -0.750 1.120 80.0
1.422 -0.787 1.120 80.0
1.430 -0.822 1.120 80.0
1.441 -0.857 1.120 80.0
1.458 -0.890 1.120 80.0
1.478 -0.920 1.120 80.0
1.502 -0.948 1.120 80.0
1.530 -0.972 1.120 80.0
1.560 -0.992 1.120 80.0
1.593 -1.009 1.120 80.0
1.628 -1.020 1.120 80.0
1.663 -1.028 1.120 80.0
1.700 -1.030 1.120 80.0
1.737 -1.028 1.120 80.0
1.772 -1.020 1.120 80.0
1.807 -1.009 1.120 80.0
1.840 -0.992 1.120 80.0
1.870 -0.972 1.120 80.0
1.898 -0.948 1.120 80.0
1.922 -0.920 1.120 80.0
1.942 -0.890 1.120 80.0
1.959 -0.857 1.120 80.0
1.970 -0.822 1.120 80.0
1.978 -0.787 1.120 80.0
1.980 -0.750 1.200 80.0
1.978 -0.713 1.200 80.0
1.970 -0.678 1.200 80.0
1.959 -0.643 1.200 80.0
1.942 -0.610 1.200 80.0
1.922 -0.580 1.200 80.0
1.898 -0.552 1.200 80.0
1.870 -0.528 1.200 80.0
1.840 -0.508 1.200 80.0
1.807 -0.491 1.200 80.0
1.772 -0.480 1.200 80.0
1.737 -0.472 1.200 80.0
1.700 -0.470 1.200 80.0
1.663 -0.472 1.200 80.0
1.628 -0.480 1.200 80.0
1.593 -0.491 1.200 80.0
1.560 -0.508 1.200 80.0
1.530 -0.528 1.200 80.0
1.502 -0.552 1.200 80.0
1.478 -0.580 1.200 80.0
1.458 -0.610 1.200 80.0
1.441 -0.643 1.200 80.0
1.430 -0.678 1.200 80.0
1.422 -0.713 1.200 80.0
1.420 -0.750 1.200 80.0
1.422 -0.787 1.200 80.0
1.430 -0.822 1.200 80.0
1.441 -0.857 1.200 80.0
1.458 -0.890 1.200 80.0
1.478 -0.920 1.200 80.0
1.502 -0.948 1.200 80.0
1.530 -0.972 1.200 80.0
1.560 -0.992 1.200 80.0
1.593 -1.009 1.200 80.0
1.628 -1.020 1.200 80.0
1.663 -1.028 1.200 80.0
1.700 -1.030 1.200 80.0
1.737 -1.028 1.200 80.0
1.772 -1.020 1.200 80.0
1.807 -1.009 1.200 80.0
1.840 -0.992 1.200 80.0
1.870 -0.972 1.200 80.0
1.898 -0.948 1.200 80.0
1.922 -0.920 1.200 80.0
1.942 -0.890 1.200 80.0
1.959 -0.857 1.200 80.0
1.970 -0.822 1.200 80.0
1.978 -0.787 1.200 80.0
1.980 -0.750 1.280 80.0
1.978 -0.713 1.280 80.0
1.970 -0.678 1.280 80.0
1.959 -0.643 1.280 80.0
1.942 -0.610 1.280 80.0
1.922 -0.580 1.280 80.0
1.898 -0.552 1.280 80.0
1.870 -0.528 1.280 80.0
1.840 -0.508 1.280 80.0
1.807 -0.491 1.280 80.0
1.772 -0.480 1.280 80.0
1.737 -0.472 1.280 80.0
1.700 -0.470 1.280 80.0
1.663 -0.472 1.280 80.0
1.628 -0.480 1.280 80.0
1.593 -0.491 1.280 80.0
1.560 -0.508 1.280 80.0
1.530 -0.528 1.280 80.0
1.502 -0.552 1.280 80.0
1.478 -0.580 1.280 80.0
1.458 -0.610 1.280 80.0
1.441 -0.643 1.280 80.0
1.430 -0.678 1.280 80.0
1.422 -0.713 1.280 80.0
1.420 -0.750 1.280 80.0
1.422 -0.787 1.280 80.0
1.430 -0.822 1.280 80.0
1.441 -0.857 1.280 80.0
1.458 -0.890 1.280 80.0
1.478 -0.920 1.280 80.0
1.502 -0.948 1.280 80.0
1.530 -0.972 1.280 80.0
1.560 -0.992 1.280 80.0
1.593 -1.009 1.280 80.0
1.628 -1.020 1.280 80.0
1.663 -1.028 1.280 80.0
1.700 -1.030 1.280 80.0
1.737 -1.028 1.280 80.0
1.772 -1.020 1.280 80.0
1.807 -1.009 1.280 80.0
1.840 -0.992 1.280 80.0
1.870 -0.972 1.280 80.0
1.898 -0.948 1.280 80.0
1.922 -0.920 1.280 80.0
1.942 -0.890 1.280 80.0
1.959 -0.857 1.280 80.0
1.970 -0.822 1.280 80.0
1.978 -0.787 1.280 80.0
1.980 -0.750 1.360 80.0
1.978 -0.713 1.360 80.0
1.970 -0.678 1.360 80.0
1.959 -0.643 1.360 80.0
1.942 -0.610 1.360 80.0
1.922 -0.580 1.360 80.0
1.898 -0.552 1.360 80.0
1.870 -0.528 1.360 80.0
1.840 -0.508 1.360 80.0
1.807 -0.491 1.360 80.0
1.772 -0.480 1.360 80.0
1.737 -0.472 1.360 80.0
1.700 -0.470 1.360 80.0
1.663 -0.472 1.360 80.0
1.628 -0.480 1.360 80.0
1.593 -0.491 1.360 80.0
1.560 -0.508 1.360 80.0
1.530 -0.528 1.360 80.0
1.502 -0.552 1.360 80.0
1.478 -0.580 1.360 80.0
1.458 -0.610 1.360 80.0
1.441 -0.643 1.360 80.0
1.430 -0.678 1.360 80.0
1.422 -0.713 1.360 80.0
1.420 -0.750 1.360 80.0
1.422 -0.787 1.360 80.0
1.430 -0.822 1.360 80.0
1.441 -0.857 1.360 80.0
1.458 -0.890 1.360 80.0
1.478 -0.920 1.360 80.0
1.502 -0.948 1.360 80.0
1.530 -0.972 1.360 80.0
1.560 -0.992 1.360 80.0
1.593 -1.009 1.360 80.0
1.628 -1.020 1.360 80.0
1.663 -1.028 1.360 80.0
1.700 -1.030 1.360 80.0
1.737 -1.028 1.360 80.0
1.772 -1.020 1.360 80.0
1.807 -1.009 1.360 80.0
1.840 -0.992 1.360 80.0
1.870 -0.972 1.360 80.0
1.898 -0.948 1.360 80.0
1.922 -0.920 1.360 80.0
1.942 -0.890 1.360 80.0
1.959 -0.857 1.360 80.0
1.970 -0.822 1.360 80.0
1.978 -0.787 1.360 80.0
1.980 -0.750 1.440 80.0
1.978 -0.713 1.440 80.0
1.970 -0.678 1.440 80.0
1.959 -0.643 1.440 80.0
1.942 -0.610 1.440 80.0
1.922 -0.580 1.440 80.0
1.898 -0.552 1.440 80.0
1.870 -0.528 1.440 80.0
1.840 -0.508 1.440 80.0
1.807 -0.491 1.440 80.0
1.772 -0.480 1.440 80.0
1.737 -0.472 1.440 80.0
1.700 -0.470 1.440 80.0
1.663 -0.472 1.440 80.0
1.628 -0.480 1.440 80.0
1.593 -0.491 1.440 80.0
1.560 -0.508 1.440 80.0
1.530 -0.528 1.440 80.0
1.502 -0.552 1.440 80.0
1.478 -0.580 1.440 80.0
1.458 -0.610 1.440 80.0
1.441 -0.643 1.440 80.0
1.430 -0.678 1.440 80.0
1.422 -0.713 1.440 80.0
1.420 -0.750 1.440 80.0
1.422 -0.787 1.440 80.0
1.430 -0.822 1.440 80.0
1.441 -0.857 1.440 80.0
1.458 -0.890 1.440 80.0
1.478 -0.920 1.440 80.0
1.502 -0.948 1.440 80.0
1.530 -0.972 1.440 80.0
1.560 -0.992 1.440 80.0
1.593 -1.009 1.440 80.0
1.628 -1.020 1.440 80.0
1.663 -1.028 1.440 80.0
1.700 -1.030 1.440 80.0
1.737 -1.028 1.440 80.0
1.772 -1.020 1.440 80.0
1.807 -1.009 1.440 80.0
1.840 -0.992 1.440 80.0
1.870 -0.972 1.440 80.0
1.898 -0.948 1.440 80.0
1.922 -0.920 1.440 80.0
1.942 -0.890 1.440 80.0
1.959 -0.857 1.440 80.0
1.970 -0.822 1.440 80.0
1.978 -0.787 1.440 80.0
1.980 -0.750 1.520 80.0
1.978 -0.713 1.520 80.0
1.970 -0.678 1.520 80.0
1.959 -0.643 1.520 80.0
1.942 -0.610 1.520 80.0
1.922 -0.580 1.520 80.0
1.898 -0.552 1.520 80.0
1.870 -0.528 1.520 80.0
1.840 -0.508 1.520 80.0
1.807 -0.491 1.520 80.0
1.772 -0.480 1.520 80.0
1.737 -0.472 1.520 80.0
1.700 -0.470 1.520 80.0
1.663 -0.472 1.520 80.0
1.628 -0.480 1.520 80.0
1.593 -0.491 1.520 80.0
1.560 -0.508 1.520 80.0
1.530 -0.528 1.520 80.0
1.502 -0.552 1.520 80.0
1.478 -0.580 1.520 80.0
1.458 -0.610 1.520 80.0
1.441 -0.643 1.520 80.0
1.430 -0.678 1.520 80.0
1.422 -0.713 1.520 80.0
1.420 -0.750 1.520 80.0
1.422 -0.787 1.520 80.0
1.430 -0.822 1.520 80.0
1.441 -0.857 1.520 80.0
1.458 -0.890 1.520 80.0
1.478 -0.920 1.520 80.0
1.502 -0.948 1.520 80.0
1.530 -0.972 1.520 80.0
1.560 -0.992 1.520 80.0
1.593 -1.009 1.520 80.0
1.628 -1.020 1.520 80.0
1.663 -1.028 1.520 80.0
1.700 -1.030 1.520 80.0
1.737 -1.028 1.520 80.0
1.772 -1.020 1.520 80.0
1.807 -1.009 1.520 80.0
1.840 -0.992 1.520 80.0
1.870 -0.972 1.520 80.0
1.898 -0.948 1.520 80.0
1.922 -0.920 1.520 80.0
1.942 -0.890 1.520 80.0
1.959 -0.857 1.520 80.0
1.970 -0.822 1.520 80.0
1.978 -0.787 1.520 80.0
1.980 -0.750 1.600 80.0
1.978 -0.713 1.600 80.0
1.970 -0.678 1.600 80.0
1.959 -0.643 1.600 80.0
1.942 -0.610 1.600 80.0
1.922 -0.580 1.600 80.0
1.898 -0.552 1.600 80.0
1.870 -0.528 1.600 80.0
1.840 -0.508 1.600 80.0
1.807 -0.491 1.600 80.0
1.772 -0.480 1.600 80.0
1.737 -0.472 1.600 80.0
1.700 -0.470 1.600 80.0
1.663 -0.472 1.600 80.0
1.628 -0.480 1.600 80.0
1.593 -0.491 1.600 80.0
1.560 -0.508 1.600 80.0
1.530 -0.528 1.600 80.0
1.502 -0.552 1.600 80.0
1.478 -0.580 1.600 80.0
1.458 -0.610 1.600 80.0
1.441 -0.643 1.600 80.0
1.430 -0.678 1.600 80.0
1.422 -0.713 1.600 80.0
1.420 -0.750 1.600 80.0
1.422 -0.787 1.600 80.0
1.430 -0.822 1.600 80.0
1.441 -0.857 1.600 80.0
1.458 -0.890 1.600 80.0
1.478 -0.920 1.600 80.0
1.502 -0.948 1.600 80.0
1.530 -0.972 1.600 80.0
1.560 -0.992 1.600 80.0
1.593 -1.009 1.600 80.0
1.628 -1.020 1.600 80.0
1.663 -1.028 1.600 80.0
1.700 -1.030 1.600 80.0
1.737 -1.028 1.600 80.0
1.772 -1.020 1.600 80.0
1.807 -1.009 1.600 80.0
1.840 -0.992 1.600 80.0
1.870 -0.972 1.600 80.0
1.898 -0.948 1.600 80.0
1.922 -0.920 1.600 80.0
1.942 -0.890 1.600 80.0
1.959 -0.857 1.600 80.0
1.970 -0.822 1.600 80.0
1.978 -0.787 1.600 80.0
1.980 -0.750 1.680 80.0
1.978 -0.713 1.680 80.0
1.970 -0.678 1.680 80.0
1.959 -0.643 1.680 80.0
1.942 -0.610 1.680 80.0
1.922 -0.580 1.680 80.0
1.898 -0.552 1.680 80.0
1.870 -0.528 1.680 80.0
1.840 -0.508 1.680 80.0
1.807 -0.491 1.680 80.0
1.772 -0.480 1.680 80.0
1.737 -0.472 1.680 80.0
1.700 -0.470 1.680 80.0
1.663 -0.472 1.680 80.0
1.628 -0.480 1.680 80.0
1.593 -0.491 1.680 80.0
1.560 -0.508 1.680 80.0
1.530 -0.528 1.680 80.0
1.502 -0.552 1.680 80.0
1.478 -0.580 1.680 80.0
1.458 -0.610 1.680 80.0
1.441 -0.643 1.680 80.0
1.430 -0.678 1.680 80.0
1.422 -0.713 1.680 80.0
1.420 -0.750 1.680 80.0
1.422 -0.787 1.680 80.0
1.430 -0.822 1.680 80.0
1.441 -0.857 1.680 80.0
1.458 -0.890 1.680 80.0
1.478 -0.920 1.680 80.0
1.502 -0.948 1.680 80.0
1.530 -0.972 1.680 80.0
1.560 -0.992 1.680 80.0
1.593 -1.009 1.680 80.0
1.628 -1.020 1.680 80.0
1.663 -1.028 1.680 80.0
1.700 -1.030 1.680 80.0
1.737 -1.028 1.680 80.0
1.772 -1.020 1.680 80.0
1.807 -1.009 1.680 80.0
1.840 -0.992 1.680 80.0
1.870 -0.972 1.680 80.0
1.898 -0.948 1.680 80.0
1.922 -0.920 1.680 80.0
1.942 -0.890 1.680 80.0
1.959 -0.857 1.680 80.0
1.970 -0.822 1.680 80.0
1.978 -0.787 1.680 80.0
1.980 -0.750 1.760 80.0
1.978 -0.713 1.760 80.0
1.970 -0.678 1.760 80.0
1.959 -0.643 1.760 80.0
1.942 -0.610 1.760 80.0
1.922 -0.580 1.760 80.0
1.898 -0.552 1.760 80.0
1.870 -0.528 1.760 80.0
1.840 -0.508 1.760 80.0
1.807 -0.491 1.760 80.0
1.772 -0.480 1.760 80.0
1.737 -0.472 1.760 80.0
1.700 -0.470 1.760 80.0
1.663 -0.472 1.760 80.0
1.628 -0.480 1.760 80.0
1.593 -0.491 1.760 80.0
1.560 -0.508 1.760 80.0
1.530 -0.528 1.760 80.0
1.502 -0.552 1.760 80.0
1.478 -0.580 1.760 80.0
1.458 -0.610 1.760 80.0
1.441 -0.643 1.760 80.0
1.430 -0.678 1.760 80.0
1.422 -0.713 1.760 80.0
1.420 -0.750 1.760 80.0
1.422 -0.787 1.760 80.0
1.430 -0.822 1.760 80.0
1.441 -0.857 1.760 80.0
1.458 -0.890 1.760 80.0
1.478 -0.920 1.760 80.0
1.502 -0.948 1.760 80.0
1.530 -0.972 1.760 80.0
1.560 -0.992 1.760 80.0
1.593 -1.009 1.760 80.0
1.628 -1.020 1.760 80.0
1.663 -1.028 1.760 80.0
1.700 -1.030 1.760 80.0
1.737 -1.028 1.760 80.0
1.772 -1.020 1.760 80.0
1.807 -1.009 1.760 80.0
1.840 -0.992 1.760 80.0
1.870 -0.972 1.760 80.0
1.898 -0.948 1.760 80.0
1.922 -0.920 1.760 80.0
1.942 -0.890 1.760 80.0
1.959 -0.857 1.760 80.0
1.970 -0.822 1.760 80.0
1.978 -0.787 1.760 80.0
1.980 -0.750 1.840 80.0
1.978 -0.713 1.840 80.0
1.970 -0.678 1.840 80.0
1.959 -0.643 1.840 80.0
1.942 -0.610 1.840 80.0
1.922 -0.580 1.840 80.0
1.898 -0.552 1.840 80.0
1.870 -0.528 1.840 80.0
1.840 -0.508 1.840 80.0
1.807 -0.491 1.840 80.0
1.772 -0.480 1.840 80.0
1.737 -0.472 1.840 80.0
1.700 -0.470 1.840 80.0
1.663 -0.472 1.840 80.0
1.628 -0.480 1.840 80.0
1.593 -0.491 1.840 80.0
1.560 -0.508 1.840 80.0
1.530 -0.528 1.840 80.0
1.502 -0.552 1.840 80.0
1.478 -0.580 1.840 80.0
1.458 -0.610 1.840 80.0
1.441 -0.643 1.840 80.0
1.430 -0.678 1.840 80.0
1.422 -0.713 1.840 80.0
1.420 -0.750 1.840 80.0
1.422 -0.787 1.840 80.0
1.430 -0.822 1.840 80.0
1.441 -0.857 1.840 80.0
1.458 -0.890 1.840 80.0
1.478 -0.920 1.840 80.0
1.502 -0.948 1.840 80.0
1.530 -0.972 1.840 80.0
1.560 -0.992 1.840 80.0
1.593 -1.009 1.840 80.0
1.628 -1.020 1.840 80.0
1.663 -1.028 1.840 80.0
1.700 -1.030 1.840 80.0
1.737 -1.028 1.840 80.0
1.772 -1.020 1.840 80.0
1.807 -1.009 1.840 80.0
1.840 -0.992 1.840 80.0
1.870 -0.972 1.840 80.0
1.898 -0.948 1.840 80.0
1.922 -0.920 1.840 80.0
1.942 -0.890 1.840 80.0
1.959 -0.857 1.840 80.0
1.970 -0.822 1.840 80.0
1.978 -0.787 1.840 80.0
1.980 -0.750 1.920 80.0
1.978 -0.713 1.920 80.0
1.970 -0.678 1.920 80.0
1.959 -0.643 1.920 80.0
1.942 -0.610 1.920 80.0
1.922 -0.580 1.920 80.0
1.898 -0.552 1.920 80.0
1.870 -0.528 1.920 80.0
1.840 -0.508 1.920 80.0
1.807 -0.491 1.920 80.0
1.772 -0.480 1.920 80.0
1.737 -0.472 1.920 80.0
1.700 -0.470 1.920 80.0
1.663 -0.472 1.920 80.0
1.628 -0.480 1.920 80.0
1.593 -0.491 1.920 80.0
1.560 -0.508 1.920 80.0
1.530 -0.528 1.920 80.0
1.502 -0.552 1.920 80.0
1.478 -0.580 1.920 80.0
1.458 -0.610 1.920 80.0
1.441 -0.643 1.920 80.0
1.430 -0.678 1.920 80.0
1.422 -0.713 1.920 80.0
1.420 -0.750 1.920 80.0
1.422 -0.787 1.920 80.0
1.430 -0.822 1.920 80.0
1.441 -0.857 1.920 80.0
1.458 -0.890 1.920 80.0
1.478 -0.920 1.920 80.0
1.502 -0.948 1.920 80.0
1.530 -0.972 1.920 80.0
1.560 -0.992 1.920 80.0
1.593 -1.009 1.920 80.0
1.628 -1.020 1.920 80.0
1.663 -1.028 1.920 80.0
1.700 -1.030 1.920 80.0
1.737 -1.028 1.920 80.0
1.772 -1.020 1.920 80.0
1.807 -1.009 1.920 80.0
1.840 -0.992 1.920 80.0
1.870 -0.972 1.920 80.0
1.898 -0.948 1.920 80.0
1.922 -0.920 1.920 80.0
1.942 -0.890 1.920 80.0
1.959 -0.857 1.920 80.0
1.970 -0.822 1.920 80.0
1.978 -0.787 1.920 80.0
1.980 -0.750 2.000 80.0
1.978 -0.713 2.000 80.0
1.970 -0.678 2.000 80.0
1.959 -0.643 2.000 80.0
1.942 -0.610 2.000 80.0
1.922 -0.580 2.000 80.0
1.898 -0.552 2.000 80.0
1.870 -0.528 2.000 80.0
1.840 -0.508 2.000 80.0
1.807 -0.491 2.000 80.0
1.772 -0.480 2.000 80.0
1.737 -0.472 2.000 80.0
1.700 -0.470 2.000 80.0
1.663 -0.472 2.000 80.0
1.628 -0.480 2.000 80.0
1.593 -0.491 2.000 80.0
1.560 -0.508 2.000 80.0
1.530 -0.528 2.000 80.0
1.502 -0.552 2.000 80.0
1.478 -0.580 2.000 80.0
1.458 -0.610 2.000 80.0
1.441 -0.643 2.000 80.0
1.430 -0.678 2.000 80.0
1.422 -0.713 2.000 80.0
1.420 -0.750 2.000 80.0
1.422 -0.787 2.000 80.0
1.430 -0.822 2.000 80.0
1.441 -0.857 2.000 80.0
1.458 -0.890 2.000 80.0
1.478 -0.920 2.000 80.0
1.502 -0.948 2.000 80.0
1.530 -0.972 2.000 80.0
1.560 -0.992 2.000 80.0
1.593 -1.009 2.000 80.0
1.628 -1.020 2.000 80.0
1.663 -1.028 2.000 80.0
1.700 -1.030 2.000 80.0
1.737 -1.028 2.000 80.0
1.772 -1.020 2.000 80.0
1.807 -1.009 2.000 80.0
1.840 -0.992 2.000 80.0
1.870 -0.972 2.000 80.0
1.898 -0.948 2.000 80.0
1.922 -0.920 2.000 80.0
1.942 -0.890 2.000 80.0
1.959 -0.857 2.000 80.0
1.970 -0.822 2.000 80.0
1.978 -0.787 2.000 80.0
1.980 -0.750 2.080 80.0
1.978 -0.713 2.080 80.0
1.970 -0.678 2.080 80.0
1.959 -0.643 2.080 80.0
1.942 -0.610 2.080 80.0
1.922 -0.580 2.080 80.0
1.898 -0.552 2.080 80.0
1.870 -0.528 2.080 80.0
1.840 -0.508 2.080 80.0
1.807 -0.491 2.080 80.0
1.772 -0.480 2.080 80.0
1.737 -0.472 2.080 80.0
1.700 -0.470 2.080 80.0
1.663 -0.472 2.080 80.0
1.628 -0.480 2.080 80.0
1.593 -0.491 2.080 80.0
1.560 -0.508 2.080 80.0
1.530 -0.528 2.080 80.0
1.502 -0.552 2.080 80.0
1.478 -0.580 2.080 80.0
1.458 -0.610 2.080 80.0
1.441 -0.643 2.080 80.0
1.430 -0.678 2.080 80.0
1.422 -0.713 2.080 80.0
1.420 -0.750 2.080 80.0
1.422 -0.787 2.080 80.0
1.430 -0.822 2.080 80.0
1.441 -0.857 2.080 80.0
1.458 -0.890 2.080 80.0
1.478 -0.920 2.080 80.0
1.502 -0.948 2.080 80.0
1.530 -0.972 2.080 80.0
1.560 -0.992 2.080 80.0
1.593 -1.009 2.080 80.0
1.628 -1.020 2.080 80.0
1.663 -1.028 2.080 80.0
1.700 -1.030 2.080 80.0
1.737 -1.028 2.080 80.0
1.772 -1.020 2.080 80.0
1.807 -1.009 2.080 80.0
1.840 -0.992 2.080 80.0
1.870 -0.972 2.080 80.0
1.898 -0.948 2.080 80.0
1.922 -0.920 2.080 80.0
1.942 -0.890 2.080 80.0
1.959 -0.857 2.080 80.0
1.970 -0.822 2.080 80.0
1.978 -0.787 2.080 80.0
1.980 -0.750 2.160 80.0
1.978 -0.713 2.160 80.0
1.970 -0.678 2.160 80.0
1.959 -0.643 2.160 80.0
1.942 -0.610 2.160 80.0
1.922 -0.580 2.160 80.0
1.898 -0.552 2.160 80.0
1.870 -0.528 2.160 80.0
1.840 -0.508 2.160 80.0
1.807 -0.491 2.160 80.0
1.772 -0.480 2.160 80.0
1.737 -0.472 2.160 80.0
1.700 -0.470 2.160 80.0
1.663 -0.472 2.160 80.0
1.628 -0.480 2.160 80.0
1.593 -0.491 2.160 80.0
1.560 -0.508 2.160 80.0
1.530 -0.528 2.160 80.0
1.502 -0.552 2.160 80.0
1.478 -0.580 2.160 80.0
1.458 -0.610 2.160 80.0
1.441 -0.643 2.160 80.0
1.430 -0.678 2.160 80.0
1.422 -0.713 2.160 80.0
1.420 -0.750 2.160 80.0
1.422 -0.787 2.160 80.0
1.430 -0.822 2.160 80.0
1.441 -0.857 2.160 80.0
1.458 -0.890 2.160 80.0
1.478 -0.920 2.160 80.0
1.502 -0.948 2.160 80.0
1.530 -0.972 2.160 80.0
1.560 -0.992 2.160 80.0
1.593 -1.009 2.160 80.0
1.628 -1.020 2.160 80.0
1.663 -1.028 2.160 80.0
1.700 -1.030 2.160 80.0
1.737 -1.028 2.160 80.0
1.772 -1.020 2.160 80.0
1.807 -1.009 2.160 80.0
1.840 -0.992 2.160 80.0
1.870 -0.972 2.160 80.0
1.898 -0.948 2.160 80.0
1.922 -0.920 2.160 80.0
1.942 -0.890 2.160 80.0
1.959 -0.857 2.160 80.0
1.970 -0.822 2.160 80.0
1.978 -0.787 2.160 80.0
1.980 -0.750 2.240 80.0
1.978 -0.713 2.240 80.0
1.970 -0.678 2.240 80.0
1.959 -0.643 2.240 80.0
1.942 -0.610 2.240 80.0
1.922 -0.580 2.240 80.0
1.898 -0.552 2.240 80.0
1.870 -0.528 2.240 80.0
1.840 -0.508 2.240 80.0
1.807 -0.491 2.240 80.0
1.772 -0.480 2.240 80.0
1.737 -0.472 2.240 80.0
1.700 -0.470 2.240 80.0
1.663 -0.472 2.240 80.0
1.628 -0.480 2.240 80.0
1.593 -0.491 2.240 80.0
1.560 -0.508 2.240 80.0
1.530 -0.528 2.240 80.0
1.502 -0.552 2.240 80.0
1.478 -0.580 2.240 80.0
1.458 -0.610 2.240 80.0
1.441 -0.643 2.240 80.0
1.430 -0.678 2.240 80.0
1.422 -0.713 2.240 80.0
1.420 -0.750 2.240 80.0
1.422 -0.787 2.240 80.0
1.430 -0.822 2.240 80.0
1.441 -0.857 2.240 80.0
1.458 -0.890 2.240 80.0
1.478 -0.920 2.240 80.0
1.502 -0.948 2.240 80.0
1.530 -0.972 2.240 80.0
1.560 -0.992 2.240 80.0
1.593 -1.009 2.240 80.0
1.628 -1.020 2.240 80.0
1.663 -1.028 2.240 80.0
1.700 -1.030 2.240 80.0
1.737 -1.028 2.240 80.0
1.772 -1.020 2.240 80.0
1.807 -1.009 2.240 80.0
1.840 -0.992 2.240 80.0
1.870 -0.972 2.240 80.0
1.898 -0.948 2.240 80.0
1.922 -0.920 2.240 80.0
1.942 -0.890 2.240 80.0
1.959 -0.857 2.240 80.0
1.970 -0.822 2.240 80.0
1.978 -0.787 2.240 80.0
1.980 -0.750 2.320 80.0
1.978 -0.713 2.320 80.0
1.970 -0.678 2.320 80.0
1.959 -0.643 2.320 80.0
1.942 -0.610 2.320 80.0
1.922 -0.580 2.320 80.0
1.898 -0.552 2.320 80.0
1.870 -0.528 2.320 80.0
1.840 -0.508 2.320 80.0
1.807 -0.491 2.320 80.0
1.772 -0.480 2.320 80.0
1.737 -0.472 2.320 80.0
1.700 -0.470 2.320 80.0
1.663 -0.472 2.320 80.0
1.628 -0.480 2.320 80.0
1.593 -0.491 2.320 80.0
1.560 -0.508 2.320 80.0
1.530 -0.528 2.320 80.0
1.502 -0.552 2.320 80.0
1.478 -0.580 2.320 80.0
1.458 -0.610 2.320 80.0
1.441 -0.643 2.320 80.0
1.430 -0.678 2.320 80.0
1.422 -0.713 2.320 80.0
1.420 -0.750 2.320 80.0
1.422 -0.787 2.320 80.0
1.430 -0.822 2.320 80.0
1.441 -0.857 2.320 80.0
1.458 -0.890 2.320 80.0
1.478 -0.920 2.320 80.0
1.502 -0.948 2.320 80.0
1.530 -0.972 2.320 80.0
1.560 -0.992 2.320 80.0
1.593 -1.009 2.320 80.0
1.628 -1.020 2.320 80.0
1.663 -1.028 2.320 80.0
1.700 -1.030 2.320 80.0
1.737 -1.028 2.320 80.0
1.772 -1.020 2.320 80.0
1.807 -1.009 2.320 80.0
1.840 -0.992 2.320 80.0
1.870 -0.972 2.320 80.0
1.898 -0.948 2.320 80.0
1.922 -0.920 2.320 80.0
1.942 -0.890 2.320 80.0
1.959 -0.857 2.320 80.0
1.970 -0.822 2.320 80.0
1.978 -0.787 2.320 80.0
1.980 -0.750 2.400 80.0
1.978 -0.713 2.400 80.0
1.970 -0.678 2.400 80.0
1.959 -0.643 2.400 80.0
1.942 -0.610 2.400 80.0
1.922 -0.580 2.400 80.0
1.898 -0.552 2.400 80.0
1.870 -0.528 2.400 80.0
1.840 -0.508 2.400 80.0
1.807 -0.491 2.400 80.0
1.772 -0.480 2.400 80.0
1.737 -0.472 2.400 80.0
1.700 -0.470 2.400 80.0
1.663 -0.472 2.400 80.0
1.628 -0.480 2.400 80.0
1.593 -0.491 2.400 80.0
1.560 -0.508 2.400 80.0
1.530 -0.528 2.400 80.0
1.502 -0.552 2.400 80.0
1.478 -0.580 2.400 80.0
1.458 -0.610 2.400 80.0
1.441 -0.643 2.400 80.0
1.430 -0.678 2.400 80.0
1.422 -0.713 2.400 80.0
1.420 -0.750 2.400 80.0
1.422 -0.787 2.400 80.0
1.430 -0.822 2.400 80.0
1.441 -0.857 2.400 80.0
1.458 -0.890 2.400 80.0
1.478 -0.920 2.400 80.0
1.502 -0.948 2.400 80.0
1.530 -0.972 2.400 80.0
1.560 -0.992 2.400 80.0
1.593 -1.009 2.400 80.0
1.628 -1.020 2.400 80.0
1.663 -1.028 2.400 80.0
1.700 -1.030 2.400 80.0
1.737 -1.028 2.400 80.0
1.772 -1.020 2.400 80.0
1.807 -1.009 2.400 80.0
1.840 -0.992 2.400 80.0
1.870 -0.972 2.400 80.0
1.898 -0.948 2.400 80.0
1.922 -0.920 2.400 80.0
1.942 -0.890 2.400 80.0
1.959 -0.857 2.400 80.0
1.970 -0.822 2.400 80.0
1.978 -0.787 2.400 80.0
1.700 -0.750 2.400 80.0
1.700 -0.750 2.400 80.0
1.700 -0.750 2.400 80.0
1.700 -0.750 2.400 80.0
1.700 -0.750 2.400 80.0
1.700 -0.750 2.400 80.0
1.700 -0.750 2.400 80.0
1.700 -0.750 2.400 80.0
1.700 -0.750 2.400 80.0
1.700 -0.750 2.400 80.0
1.700 -0.750 2.400 80.0
1.700 -0.750 2.400 80.0
1.700 -0.750 2.400 80.0
1.700 -0.750 2.400 80.0
1.700 -0.750 2.400 80.0
1.700 -0.750 2.400 80.0
1.700 -0.750 2.400 80.0
1.700 -0.750 2.400 80.0
1.700 -0.750 2.400 80.0
1.700 -0.750 2.400 80.0
1.700 -0.750 2.400 80.0
1.700 -0.750 2.400 80.0
1.700 -0.750 2.400 80.0
1.700 -0.750 2.400 80.0
1.756 -0.750 2.400 80.0
1.754 -0.736 2.400 80.0
1.748 -0.722 2.400 80.0
1.740 -0.710 2.400 80.0
1.728 -0.702 2.400 80.0
1.714 -0.696 2.400 80.0
1.700 -0.694 2.400 80.0
1.686 -0.696 2.400 80.0
1.672 -0.702 2.400 80.0
1.660 -0.710 2.400 80.0
1.652 -0.722 2.400 80.0
1.646 -0.736 2.400 80.0
1.644 -0.750 2.400 80.0
1.646 -0.764 2.400 80.0
1.652 -0.778 2.400 80.0
1.660 -0.790 2.400 80.0
1.672 -0.798 2.400 80.0
1.686 -0.804 2.400 80.0
1.700 -0.806 2.400 80.0
1.714 -0.804 2.400 80.0
1.728 -0.798 2.400 80.0
1.740 -0.790 2.400 80.0
1.748 -0.778 2.400 80.0
1.754 -0.764 2.400 80.0
1.812 -0.750 2.400 80.0
1.808 -0.721 2.400 80.0
1.797 -0.694 2.400 80.0
1.779 -0.671 2.400 80.0
1.756 -0.653 2.400 80.0
1.729 -0.642 2.400 80.0
1.700 -0.638 2.400 80.0
1.671 -0.642 2.400 80.0
1.644 -0.653 2.400 80.0
1.621 -0.671 2.400 80.0
1.603 -0.694 2.400 80.0
1.592 -0.721 2.400 80.0
1.588 -0.750 2.400 80.0
1.592 -0.779 2.400 80.0
1.603 -0.806 2.400 80.0
1.621 -0.829 2.400 80.0
1.644 -0.847 2.400 80.0
1.671 -0.858 2.400 80.0
1.700 -0.862 2.400 80.0
1.729 -0.858 2.400 80.0
1.756 -0.847 2.400 80.0
1.779 -0.829 2.400 80.0
1.797 -0.806 2.400 80.0
1.808 -0.779 2.400 80.0
1.868 -0.750 2.400 80.0
1.862 -0.707 2.400 80.0
1.845 -0.666 2.400 80.0
1.819 -0.631 2.400 80.0
1.784 -0.605 2.400 80.0
1.743 -0.588 2.400 80.0
1.700 -0.582 2.400 80.0
1.657 -0.588 2.400 80.0
1.616 -0.605 2.400 80.0
1.581 -0.631 2.400 80.0
1.555 -0.666 2.400 80.0
1.538 -0.707 2.400 80.0
1.532 -0.750 2.400 80.0
1.538 -0.793 2.400 80.0
1.555 -0.834 2.400 80.0
1.581 -0.869 2.400 80.0
1.616 -0.895 2.400 80.0
1.657 -0.912 2.400 80.0
1.700 -0.918 2.400 80.0
1.743 -0.912 2.400 80.0
1.784 -0.895 2.400 80.0
1.819 -0.869 2.400 80.0
1.845 -0.834 2.400 80.0
1.862 -0.793 2.400 80.0
1.924 -0.750 2.400 80.0
1.916 -0.692 2.400 80.0
1.894 -0.638 2.400 80.0
1.858 -0.592 2.400 80.0
1.812 -0.556 2.400 80.0
1.758 -0.534 2.400 80.0
1.700 -0.526 2.400 80.0
1.642 -0.534 2.400 80.0
1.588 -0.556 2.400 80.0
1.542 -0.592 2.400 80.0
1.506 -0.638 2.400 80.0
1.484 -0.692 2.400 80.0
1.476 -0.750 2.400 80.0
1.484 -0.808 2.400 80.0
1.506 -0.862 2.400 80.0
1.542 -0.908 2.400 80.0
1.588 -0.944 2.400 80.0
1.642 -0.966 2.400 80.0
1.700 -0.974 2.400 80.0
1.758 -0.966 2.400 80.0
1.812 -0.944 2.400 80.0
1.858 -0.908 2.400 80.0
1.894 -0.862 2.400 80.0
1.916 -0.808 2.400 80.0
1.980 -0.750 2.400 80.0
1.970 -0.678 2.400 80.0
1.942 -0.610 2.400 80.0
1.898 -0.552 2.400 80.0
1.840 -0.508 2.400 80.0
1.772 -0.480 2.400 80.0
1.700 -0.470 2.400 80.0
1.628 -0.480 2.400 80.0
1.560 -0.508 2.400 80.0
1.502 -0.552 2.400 80.0
1.458 -0.610 2.400 80.0
1.430 -0.678 2.400 80.0
1.420 -0.750 2.400 80.0
1.430 -0.822 2.400 80.0
1.458 -0.890 2.400 80.0
1.502 -0.948 2.400 80.0
1.560 -0.992 2.400 80.0
1.628 -1.020 2.400 80.0
1.700 -1.030 2.400 80.0
1.772 -1.020 2.400 80.0
1.840 -0.992 2.400 80.0
1.898 -0.948 2.400 80.0
1.942 -0.890 2.400 80.0
1.970 -0.822 2.400 80.0
3.170 0.950 0.000 80.0
3.167 0.992 0.000 80.0
3.159 1.033 0.000 80.0
3.146 1.072 0.000 80.0
3.127 1.110 0.000 80.0
3.104 1.145 0.000 80.0
3.076 1.176 0.000 80.0
3.045 1.204 0.000 80.0
3.010 1.227 0.000 80.0
2.972 1.246 0.000 80.0
2.933 1.259 0.000 80.0
2.892 1.267 0.000 80.0
2.850 1.270 0.000 80.0
2.808 1.267 0.000 80.0
2.767 1.259 0.000 80.0
2.728 1.246 0.000 80.0
2.690 1.227 0.000 80.0
2.655 1.204 0.000 80.0
2.624 1.176 0.000 80.0
2.596 1.145 0.000 80.0
2.573 1.110 0.000 80.0
2.554 1.072 0.000 80.0
2.541 1.033 0.000 80.0
2.533 0.992 0.000 80.0
2.530 0.950 0.000 80.0
2.533 0.908 0.000 80.0
2.541 0.867 0.000 80.0
2.554 0.828 0.000 80.0
2.573 0.790 0.000 80.0
2.596 0.755 0.000 80.0
2.624 0.724 0.000 80.0
2.655 0.696 0.000 80.0
2.690 0.673 0.000 80.0
2.728 0.654 0.000 80.0
2.767 0.641 0.000 80.0
2.808 0.633 0.000 80.0
2.850 0.630 0.000 80.0
2.892 0.633 0.000 80.0
2.933 0.641 0.000 80.0
2.972 0.654 0.000 80.0
3.010 0.673 0.000 80.0
3.045 0.696 0.000 80.0
3.076 0.724 0.000 80.0
3.104 0.755 0.000 80.0
3.127 0.790 0.000 80.0
3.146 0.828 0.000 80.0
3.159 0.867 0.000 80.0
3.167 0.908 0.000 80.0
3.170 0.950 0.083 80.0
3.167 0.992 0.083 80.0
3.159 1.033 0.083 80.0
3.146 1.072 0.083 80.0
3.127 1.110 0.083 80.0
3.104 1.145 0.083 80.0
3.076 1.176 0.083 80.0
3.045 1.204 0.083 80.0
3.010 1.227 0.083 80.0
2.972 1.246 0.083 80.0
2.933 1.259 0.083 80.0
2.892 1.267 0.083 80.0
2.850 1.270 0.083 80.0
2.808 1.267 0.083 80.0
2.767 1.259 0.083 80.0
2.728 1.246 0.083 80.0
2.690 1.227 0.083 80.0
2.655 1.204 0.083 80.0
2.624 1.176 0.083 80.0
2.596 1.145 0.083 80.0
2.573 1.110 0.083 80.0
2.554 1.072 0.083 80.0
2.541 1.033 0.083 80.0
2.533 0.992 0.083 80.0
2.530 0.950 0.083 80.0
2.533 0.908 0.083 80.0
2.541 0.867 0.083 80.0
2.554 0.828 0.083 80.0
2.573 0.790 0.083 80.0
2.596 0.755 0.083 80.0
2.624 0.724 0.083 80.0
2.655 0.696 0.083 80.0
2.690 0.673 0.083 80.0
2.728 0.654 0.083 80.0
2.767 0.641 0.083 80.0
2.808 0.633 0.083 80.0
2.850 0.630 0.083 80.0
2.892 0.633 0.083 80.0
2.933 0.641 0.083 80.0
2.972 0.654 0.083 80.0
3.010 0.673 0.083 80.0
3.045 0.696 0.083 80.0
3.076 0.724 0.083 80.0
3.104 0.755 0.083 80.0
3.127 0.790 0.083 80.0
3.146 0.828 0.083 80.0
3.159 0.867 0.083 80.0
3.167 0.908 0.083 80.0
3.170 0.950 0.167 80.0
3.167 0.992 0.167 80.0
3.159 1.033 0.167 80.0
3.146 1.072 0.167 80.0
3.127 1.110 0.167 80.0
3.104 1.145 0.167 80.0
3.076 1.176 0.167 80.0
3.045 1.204 0.167 80.0
3.010 1.227 0.167 80.0
2.972 1.246 0.167 80.0
2.933 1.259 0.167 80.0
2.892 1.267 0.167 80.0
2.850 1.270 0.167 80.0
2.808 1.267 0.167 80.0
2.767 1.259 0.167 80.0
2.728 1.246 0.167 80.0
2.690 1.227 0.167 80.0
2.655 1.204 0.167 80.0
2.624 1.176 0.167 80.0
2.596 1.145 0.167 80.0
2.573 1.110 0.167 80.0
2.554 1.072 0.167 80.0
2.541 1.033 0.167 80.0
2.533 0.992 0.167 80.0
2.530 0.950 0.167 80.0
2.533 0.908 0.167 80.0
2.541 0.867 0.167 80.0
2.554 0.828 0.167 80.0
2.573 0.790 0.167 80.0
2.596 0.755 0.167 80.0
2.624 0.724 0.167 80.0
2.655 0.696 0.167 80.0
2.690 0.673 0.167 80.0
2.728 0.654 0.167 80.0
2.767 0.641 0.167 80.0
2.808 0.633 0.167 80.0
2.850 0.630 0.167 80.0
2.892 0.633 0.167 80.0
2.933 0.641 0.167 80.0
2.972 0.654 0.167 80.0
3.010 0.673 0.167 80.0
3.045 0.696 0.167 80.0
3.076 0.724 0.167 80.0
3.104 0.755 0.167 80.0
3.127 0.790 0.167 80.0
3.146 0.828 0.167 80.0
3.159 0.867 0.167 80.0
3.167 0.908 0.167 80.0
3.170 0.950 0.250 80.0
3.167 0.992 0.250 80.0
3.159 1.033 0.250 80.0
3.146 1.072 0.250 80.0
3.127 1.110 0.250 80.0
3.104 1.145 0.250 80.0
3.076 1.176 0.250 80.0
3.045 1.204 0.250 80.0
3.010 1.227 0.250 80.0
2.972 1.246 0.250 80.0
2.933 1.259 0.250 80.0
2.892 1.267 0.250 80.0
2.850 1.270 0.250 80.0
2.808 1.267 0.250 80.0
2.767 1.259 0.250 80.0
2.728 1.246 0.250 80.0
2.690 1.227 0.250 80.0
2.655 1.204 0.250 80.0
2.624 1.176 0.250 80.0
2.596 1.145 0.250 80.0
2.573 1.110 0.250 80.0
2.554 1.072 0.250 80.0
2.541 1.033 0.250 80.0
2.533 0.992 0.250 80.0
2.530 0.950 0.250 80.0
2.533 0.908 0.250 80.0
2.541 0.867 0.250 80.0
2.554 0.828 0.250 80.0
2.573 0.790 0.250 80.0
2.596 0.755 0.250 80.0
2.624 0.724 0.250 80.0
2.655 0.696 0.250 80.0
2.690 0.673 0.250 80.0
2.728 0.654 0.250 80.0
2.767 0.641 0.250 80.0
2.808 0.633 0.250 80.0
2.850 0.630 0.250 80.0
2.892 0.633 0.250 80.0
2.933 0.641 0.250 80.0
2.972 0.654 0.250 80.0
3.010 0.673 0.250 80.0
3.045 0.696 0.250 80.0
3.076 0.724 0.250 80.0
3.104 0.755 0.250 80.0
3.127 0.790 0.250 80.0
3.146 0.828 0.250 80.0
3.159 0.867 0.250 80.0
3.167 0.908 0.250 80.0
3.170 0.950 0.333 80.0
3.167 0.992 0.333 80.0
3.159 1.033 0.333 80.0
3.146 1.072 0.333 80.0
3.127 1.110 0.333 80.0
3.104 1.145 0.333 80.0
3.076 1.176 0.333 80.0
3.045 1.204 0.333 80.0
3.010 1.227 0.333 80.0
2.972 1.246 0.333 80.0
2.933 1.259 0.333 80.0
2.892 1.267 0.333 80.0
2.850 1.270 0.333 80.0
2.808 1.267 0.333 80.0
2.767 1.259 0.333 80.0
2.728 1.246 0.333 80.0
2.690 1.227 0.333 80.0
2.655 1.204 0.333 80.0
2.624 1.176 0.333 80.0
2.596 1.145 0.333 80.0
2.573 1.110 0.333 80.0
2.554 1.072 0.333 80.0
2.541 1.033 0.333 80.0
2.533 0.992 0.333 80.0
2.530 0.950 0.333 80.0
2.533 0.908 0.333 80.0
2.541 0.867 0.333 80.0
2.554 0.828 0.333 80.0
2.573 0.790 0.333 80.0
2.596 0.755 0.333 80.0
2.624 0.724 0.333 80.0
2.655 0.696 0.333 80.0
2.690 0.673 0.333 80.0
2.728 0.654 0.333 80.0
2.767 0.641 0.333 80.0
2.808 0.633 0.333 80.0
2.850 0.630 0.333 80.0
2.892 0.633 0.333 80.0
2.933 0.641 0.333 80.0
2.972 0.654 0.333 80.0
3.010 0.673 0.333 80.0
3.045 0.696 0.333 80.0
3.076 0.724 0.333 80.0
3.104 0.755 0.333 80.0
3.127 0.790 0.333 80.0
3.146 0.828 0.333 80.0
3.159 0.867 0.333 80.0
3.167 0.908 0.333 80.0
3.170 0.950 0.417 80.0
3.167 0.992 0.417 80.0
3.159 1.033 0.417 80.0
3.146 1.072 0.417 80.0
3.127 1.110 0.417 80.0
3.104 1.145 0.417 80.0
3.076 1.176 0.417 80.0
3.045 1.204 0.417 80.0
3.010 1.227 0.417 80.0
2.972 1.246 0.417 80.0
2.933 1.259 0.417 80.0
2.892 1.267 0.417 80.0
2.850 1.270 0.417 80.0
2.808 1.267 0.417 80.0
2.767 1.259 0.417 80.0
2.728 1.246 0.417 80.0
2.690 1.227 0.417 80.0
2.655 1.204 0.417 80.0
2.624 1.176 0.417 80.0
2.596 1.145 0.417 80.0
2.573 1.110 0.417 80.0
2.554 1.072 0.417 80.0
2.541 1.033 0.417 80.0
2.533 0.992 0.417 80.0
2.530 0.950 0.417 80.0
2.533 0.908 0.417 80.0
2.541 0.867 0.417 80.0
2.554 0.828 0.417 80.0
2.573 0.790 0.417 80.0
2.596 0.755 0.417 80.0
2.624 0.724 0.417 80.0
2.655 0.696 0.417 80.0
2.690 0.673 0.417 80.0
2.728 0.654 0.417 80.0
2.767 0.641 0.417 80.0
2.808 0.633 0.417 80.0
2.850 0.630 0.417 80.0
2.892 0.633 0.417 80.0
2.933 0.641 0.417 80.0
2.972 0.654 0.417 80.0
3.010 0.673 0.417 80.0
3.045 0.696 0.417 80.0
3.076 0.724 0.417 80.0
3.104 0.755 0.417 80.0
3.127 0.790 0.417 80.0
3.146 0.828 0.417 80.0
3.159 0.867 0.417 80.0
3.167 0.908 0.417 80.0
3.170 0.950 0.500 80.0
3.167 0.992 0.500 80.0
3.159 1.033 0.500 80.0
3.146 1.072 0.500 80.0
3.127 1.110 0.500 80.0
3.104 1.145 0.500 80.0
3.076 1.176 0.500 80.0
3.045 1.204 0.500 80.0
3.010 1.227 0.500 80.0
2.972 1.246 0.500 80.0
2.933 1.259 0.500 80.0
2.892 1.267 0.500 80.0
2.850 1.270 0.500 80.0
2.808 1.267 0.500 80.0
2.767 1.259 0.500 80.0
2.728 1.246 0.500 80.0
2.690 1.227 0.500 80.0
2.655 1.204 0.500 80.0
2.624 1.176 0.500 80.0
2.596 1.145 0.500 80.0
2.573 1.110 0.500 80.0
2.554 1.072 0.500 80.0
2.541 1.033 0.500 80.0
2.533 0.992 0.500 80.0
2.530 0.950 0.500 80.0
2.533 0.908 0.500 80.0
2.541 0.867 0.500 80.0
2.554 0.828 0.500 80.0
2.573 0.790 0.500 80.0
2.596 0.755 0.500 80.0
2.624 0.724 0.500 80.0
2.655 0.696 0.500 80.0
2.690 0.673 0.500 80.0
2.728 0.654 0.500 80.0
2.767 0.641 0.500 80.0
2.808 0.633 0.500 80.0
2.850 0.630 0.500 80.0
2.892 0.633 0.500 80.0
2.933 0.641 0.500 80.0
2.972 0.654 0.500 80.0
3.010 0.673 0.500 80.0
3.045 0.696 0.500 80.0
3.076 0.724 0.500 80.0
3.104 0.755 0.500 80.0
3.127 0.790 0.500 80.0
3.146 0.828 0.500 80.0
3.159 0.867 0.500 80.0
3.167 0.908 0.500 80.0
3.170 0.950 0.583 80.0
3.167 0.992 0.583 80.0
3.159 1.033 0.583 80.0
3.146 1.072 0.583 80.0
3.127 1.110 0.583 80.0
3.104 1.145 0.583 80.0
3.076 1.176 0.583 80.0
3.045 1.204 0.583 80.0
3.010 1.227 0.583 80.0
2.972 1.246 0.583 80.0
2.933 1.259 0.583 80.0
2.892 1.267 0.583 80.0
2.850 1.270 0.583 80.0
2.808 1.267 0.583 80.0
2.767 1.259 0.583 80.0
2.728 1.246 0.583 80.0
2.690 1.227 0.583 80.0
2.655 1.204 0.583 80.0
2.624 1.176 0.583 80.0
2.596 1.145 0.583 80.0
2.573 1.110 0.583 80.0
2.554 1.072 0.583 80.0
2.541 1.033 0.583 80.0
2.533 0.992 0.583 80.0
2.530 0.950 0.583 80.0
2.533 0.908 0.583 80.0
2.541 0.867 0.583 80.0
2.554 0.828 0.583 80.0
2.573 0.790 0.583 80.0
2.596 0.755 0.583 80.0
2.624 0.724 0.583 80.0
2.655 0.696 0.583 80.0
2.690 0.673 0.583 80.0
2.728 0.654 0.583 80.0
2.767 0.641 0.583 80.0
2.808 0.633 0.583 80.0
2.850 0.630 0.583 80.0
2.892 0.633 0.583 80.0
2.933 0.641 0.583 80.0
2.972 0.654 0.583 80.0
3.010 0.673 0.583 80.0
3.045 0.696 0.583 80.0
3.076 0.724 0.583 80.0
3.104 0.755 0.583 80.0
3.127 0.790 0.583 80.0
3.146 0.828 0.583 80.0
3.159 0.867 0.583 80.0
3.167 0.908 0.583 80.0
3.170 0.950 0.667 80.0
3.167 0.992 0.667 80.0
3.159 1.033 0.667 80.0
3.146 1.072 0.667 80.0
3.127 1.110 0.667 80.0
3.104 1.145 0.667 80.0
3.076 1.176 0.667 80.0
3.045 1.204 0.667 80.0
3.010 1.227 0.667 80.0
2.972 1.246 0.667 80.0
2.933 1.259 0.667 80.0
2.892 1.267 0.667 80.0
2.850 1.270 0.667 80.0
2.808 1.267 0.667 80.0
2.767 1.259 0.667 80.0
2.728 1.246 0.667 80.0
2.690 1.227 0.667 80.0
2.655 1.204 0.667 80.0
2.624 1.176 0.667 80.0
2.596 1.145 0.667 80.0
2.573 1.110 0.667 80.0
2.554 1.072 0.667 80.0
2.541 1.033 0.667 80.0
2.533 0.992 0.667 80.0
2.530 0.950 0.667 80.0
2.533 0.908 0.667 80.0
2.541 0.867 0.667 80.0
2.554 0.828 0.667 80.0
2.573 0.790 0.667 80.0
2.596 0.755 0.667 80.0
2.624 0.724 0.667 80.0
2.655 0.696 0.667 80.0
2.690 0.673 0.667 80.0
2.728 0.654 0.667 80.0
2.767 0.641 0.667 80.0
2.808 0.633 0.667 80.0
2.850 0.630 0.667 80.0
2.892 0.633 0.667 80.0
2.933 0.641 0.667 80.0
2.972 0.654 0.667 80.0
3.010 0.673 0.667 80.0
3.045 0.696 0.667 80.0
3.076 0.724 0.667 80.0
3.104 0.755 0.667 80.0
3.127 0.790 0.667 80.0
3.146 0.828 0.667 80.0
3.159 0.867 0.667 80.0
3.167 0.908 0.667 80.0
3.170 0.950 0.750 80.0
3.167 0.992 0.750 80.0
3.159 1.033 0.750 80.0
3.146 1.072 0.750 80.0
3.127 1.110 0.750 80.0
3.104 1.145 0.750 80.0
3.076 1.176 0.750 80.0
3.045 1.204 0.750 80.0
3.010 1.227 0.750 80.0
2.972 1.246 0.750 80.0
2.933 1.259 0.750 80.0
2.892 1.267 0.750 80.0
2.850 1.270 0.750 80.0
2.808 1.267 0.750 80.0
2.767 1.259 0.750 80.0
2.728 1.246 0.750 80.0
2.690 1.227 0.750 80.0
2.655 1.204 0.750 80.0
2.624 1.176 0.750 80.0
2.596 1.145 0.750 80.0
2.573 1.110 0.750 80.0
2.554 1.072 0.750 80.0
2.541 1.033 0.750 80.0
2.533 0.992 0.750 80.0
2.530 0.950 0.750 80.0
2.533 0.908 0.750 80.0
2.541 0.867 0.750 80.0
2.554 0.828 0.750 80.0
2.573 0.790 0.750 80.0
2.596 0.755 0.750 80.0
2.624 0.724 0.750 80.0
2.655 0.696 0.750 80.0
2.690 0.673 0.750 80.0
2.728 0.654 0.750 80.0
2.767 0.641 0.750 80.0
2.808 0.633 0.750 80.0
2.850 0.630 0.750 80.0
2.892 0.633 0.750 80.0
2.933 0.641 0.750 80.0
2.972 0.654 0.750 80.0
3.010 0.673 0.750 80.0
3.045 0.696 0.750 80.0
3.076 0.724 0.750 80.0
3.104 0.755 0.750 80.0
3.127 0.790 0.750 80.0
3.146 0.828 0.750 80.0
3.159 0.867 0.750 80.0
3.167 0.908 0.750 80.0
3.170 0.950 0.833 80.0
3.167 0.992 0.833 80.0
3.159 1.033 0.833 80.0
3.146 1.072 0.833 80.0
3.127 1.110 0.833 80.0
3.104 1.145 0.833 80.0
3.076 1.176 0.833 80.0
3.045 1.204 0.833 80.0
3.010 1.227 0.833 80.0
2.972 1.246 0.833 80.0
2.933 1.259 0.833 80.0
2.892 1.267 0.833 80.0
2.850 1.270 0.833 80.0
2.808 1.267 0.833 80.0
2.767 1.259 0.833 80.0
2.728 1.246 0.833 80.0
2.690 1.227 0.833 80.0
2.655 1.204 0.833 80.0
2.624 1.176 0.833 80.0
2.596 1.145 0.833 80.0
2.573 1.110 0.833 80.0
2.554 1.072 0.833 80.0
2.541 1.033 0.833 80.0
2.533 0.992 0.833 80.0
2.530 0.950 0.833 80.0
2.533 0.908 0.833 80.0
2.541 0.867 0.833 80.0
2.554 0.828 0.833 80.0
2.573 0.790 0.833 80.0
2.596 0.755 0.833 80.0
2.624 0.724 0.833 80.0
2.655 0.696 0.833 80.0
2.690 0.673 0.833 80.0
2.728 0.654 0.833 80.0
2.767 0.641 0.833 80.0
2.808 0.633 0.833 80.0
2.850 0.630 0.833 80.0
2.892 0.633 0.833 80.0
2.933 0.641 0.833 80.0
2.972 0.654 0.833 80.0
3.010 0.673 0.833 80.0
3.045 0.696 0.833 80.0
3.076 0.724 0.833 80.0
3.104 0.755 0.833 80.0
3.127 0.790 0.833 80.0
3.146 0.828 0.833 80.0
3.159 0.867 0.833 80.0
3.167 0.908 0.833 80.0
3.170 0.950 0.917 80.0
3.167 0.992 0.917 80.0
3.159 1.033 0.917 80.0
3.146 1.072 0.917 80.0
3.127 1.110 0.917 80.0
3.104 1.145 0.917 80.0
3.076 1.176 0.917 80.0
3.045 1.204 0.917 80.0
3.010 1.227 0.917 80.0
2.972 1.246 0.917 80.0
2.933 1.259 0.917 80.0
2.892 1.267 0.917 80.0
2.850 1.270 0.917 80.0
2.808 1.267 0.917 80.0
2.767 1.259 0.917 80.0
2.728 1.246 0.917 80.0
2.690 1.227 0.917 80.0
2.655 1.204 0.917 80.0
2.624 1.176 0.917 80.0
2.596 1.145 0.917 80.0
2.573 1.110 0.917 80.0
2.554 1.072 0.917 80.0
2.541 1.033 0.917 80.0
2.533 0.992 0.917 80.0
2.530 0.950 0.917 80.0
2.533 0.908 0.917 80.0
2.541 0.867 0.917 80.0
2.554 0.828 0.917 80.0
2.573 0.790 0.917 80.0
2.596 0.755 0.917 80.0
2.624 0.724 0.917 80.0
2.655 0.696 0.917 80.0
2.690 0.673 0.917 80.0
2.728 0.654 0.917 80.0
2.767 0.641 0.917 80.0
2.808 0.633 0.917 80.0
2.850 0.630 0.917 80.0
2.892 0.633 0.917 80.0
2.933 0.641 0.917 80.0
2.972 0.654 0.917 80.0
3.010 0.673 0.917 80.0
3.045 0.696 0.917 80.0
3.076 0.724 0.917 80.0
3.104 0.755 0.917 80.0
3.127 0.790 0.917 80.0
3.146 0.828 0.917 80.0
3.159 0.867 0.917 80.0
3.167 0.908 0.917 80.0
3.170 0.950 1.000 80.0
3.167 0.992 1.000 80.0
3.159 1.033 1.000 80.0
3.146 1.072 1.000 80.0
3.127 1.110 1.000 80.0
3.104 1.145 1.000 80.0
3.076 1.176 1.000 80.0
3.045 1.204 1.000 80.0
3.010 1.227 1.000 80.0
2.972 1.246 1.000 80.0
2.933 1.259 1.000 80.0
2.892 1.267 1.000 80.0
2.850 1.270 1.000 80.0
2.808 1.267 1.000 80.0
2.767 1.259 1.000 80.0
2.728 1.246 1.000 80.0
2.690 1.227 1.000 80.0
2.655 1.204 1.000 80.0
2.624 1.176 1.000 80.0
2.596 1.145 1.000 80.0
2.573 1.110 1.000 80.0
2.554 1.072 1.000 80.0
2.541 1.033 1.000 80.0
2.533 0.992 1.000 80.0
2.530 0.950 1.000 80.0
2.533 0.908 1.000 80.0
2.541 0.867 1.000 80.0
2.554 0.828 1.000 80.0
2.573 0.790 1.000 80.0
2.596 0.755 1.000 80.0
2.624 0.724 1.000 80.0
2.655 0.696 1.000 80.0
2.690 0.673 1.000 80.0
2.728 0.654 1.000 80.0
2.767 0.641 1.000 80.0
2.808 0.633 1.000 80.0
2.850 0.630 1.000 80.0
2.892 0.633 1.000 80.0
2.933 0.641 1.000 80.0
2.972 0.654 1.000 80.0
3.010 0.673 1.000 80.0
3.045 0.696 1.000 80.0
3.076 0.724 1.000 80.0
3.104 0.755 1.000 80.0
3.127 0.790 1.000 80.0
3.146 0.828 1.000 80.0
3.159 0.867 1.000 80.0
3.167 0.908 1.000 80.0
3.170 0.950 1.083 80.0
3.167 0.992 1.083 80.0
3.159 1.033 1.083 80.0
3.146 1.072 1.083 80.0
3.127 1.110 1.083 80.0
3.104 1.145 1.083 80.0
3.076 1.176 1.083 80.0
3.045 1.204 1.083 80.0
3.010 1.227 1.083 80.0
2.972 1.246 1.083 80.0
2.933 1.259 1.083 80.0
2.892 1.267 1.083 80.0
2.850 1.270 1.083 80.0
2.808 1.267 1.083 80.0
2.767 1.259 1.083 80.0
2.728 1.246 1.083 80.0
2.690 1.227 1.083 80.0
2.655 1.204 1.083 80.0
2.624 1.176 1.083 80.0
2.596 1.145 1.083 80.0
2.573 1.110 1.083 80.0
2.554 1.072 1.083 80.0
2.541 1.033 1.083 80.0
2.533 0.992 1.083 80.0
2.530 0.950 1.083 80.0
2.533 0.908 1.083 80.0
2.541 0.867 1.083 80.0
2.554 0.828 1.083 80.0
2.573 0.790 1.083 80.0
2.596 0.755 1.083 80.0
2.624 0.724 1.083 80.0
2.655 0.696 1.083 80.0
2.690 0.673 1.083 80.0
2.728 0.654 1.083 80.0
2.767 0.641 1.083 80.0
2.808 0.633 1.083 80.0
2.850 0.630 1.083 80.0
2.892 0.633 1.083 80.0
2.933 0.641 1.083 80.0
2.972 0.654 1.083 80.0
3.010 0.673 1.083 80.0
3.045 0.696 1.083 80.0
3.076 0.724 1.083 80.0
3.104 0.755 1.083 80.0
3.127 0.790 1.083 80.0
3.146 0.828 1.083 80.0
3.159 0.867 1.083 80.0
3.167 0.908 1.083 80.0
3.170 0.950 1.167 80.0
3.167 0.992 1.167 80.0
3.159 1.033 1.167 80.0
3.146 1.072 1.167 80.0
3.127 1.110 1.167 80.0
3.104 1.145 1.167 80.0
3.076 1.176 1.167 80.0
3.045 1.204 1.167 80.0
3.010 1.227 1.167 80.0
2.972 1.246 1.167 80.0
2.933 1.259 1.167 80.0
2.892 1.267 1.167 80.0
2.850 1.270 1.167 80.0
2.808 1.267 1.167 80.0
2.767 1.259 1.167 80.0
2.728 1.246 1.167 80.0
2.690 1.227 1.167 80.0
2.655 1.204 1.167 80.0
2.624 1.176 1.167 80.0
2.596 1.145 1.167 80.0
2.573 1.110 1.167 80.0
2.554 1.072 1.167 80.0
2.541 1.033 1.167 80.0
2.533 0.992 1.167 80.0
2.530 0.950 1.167 80.0
2.533 0.908 1.167 80.0
2.541 0.867 1.167 80.0
2.554 0.828 1.167 80.0
2.573 0.790 1.167 80.0
2.596 0.755 1.167 80.0
2.624 0.724 1.167 80.0
2.655 0.696 1.167 80.0
2.690 0.673 1.167 80.0
2.728 0.654 1.167 80.0
2.767 0.641 1.167 80.0
2.808 0.633 1.167 80.0
2.850 0.630 1.167 80.0
2.892 0.633 1.167 80.0
2.933 0.641 1.167 80.0
2.972 0.654 1.167 80.0
3.010 0.673 1.167 80.0
3.045 0.696 1.167 80.0
3.076 0.724 1.167 80.0
3.104 0.755 1.167 80.0
3.127 0.790 1.167 80.0
3.146 0.828 1.167 80.0
3.159 0.867 1.167 80.0
3.167 0.908 1.167 80.0
3.170 0.950 1.250 80.0
3.167 0.992 1.250 80.0
3.159 1.033 1.250 80.0
3.146 1.072 1.250 80.0
3.127 1.110 1.250 80.0
3.104 1.145 1.250 80.0
3.076 1.176 1.250 80.0
3.045 1.204 1.250 80.0
3.010 1.227 1.250 80.0
2.972 1.246 1.250 80.0
2.933 1.259 1.250 80.0
2.892 1.267 1.250 80.0
2.850 1.270 1.250 80.0
2.808 1.267 1.250 80.0
2.767 1.259 1.250 80.0
2.728 1.246 1.250 80.0
2.690 1.227 1.250 80.0
2.655 1.204 1.250 80.0
2.624 1.176 1.250 80.0
2.596 1.145 1.250 80.0
2.573 1.110 1.250 80.0
2.554 1.072 1.250 80.0
2.541 1.033 1.250 80.0
2.533 0.992 1.250 80.0
2.530 0.950 1.250 80.0
2.533 0.908 1.250 80.0
2.541 0.867 1.250 80.0
2.554 0.828 1.250 80.0
2.573 0.790 1.250 80.0
2.596 0.755 1.250 80.0
2.624 0.724 1.250 80.0
2.655 0.696 1.250 80.0
2.690 0.673 1.250 80.0
2.728 0.654 1.250 80.0
2.767 0.641 1.250 80.0
2.808 0.633 1.250 80.0
2.850 0.630 1.250 80.0
2.892 0.633 1.250 80.0
2.933 0.641 1.250 80.0
2.972 0.654 1.250 80.0
3.010 0.673 1.250 80.0
3.045 0.696 1.250 80.0
3.076 0.724 1.250 80.0
3.104 0.755 1.250 80.0
3.127 0.790 1.250 80.0
3.146 0.828 1.250 80.0
3.159 0.867 1.250 80.0
3.167 0.908 1.250 80.0
3.170 0.950 1.333 80.0
3.167 0.992 1.333 80.0
3.159 1.033 1.333 80.0
3.146 1.072 1.333 80.0
3.127 1.110 1.333 80.0
3.104 1.145 1.333 80.0
3.076 1.176 1.333 80.0
3.045 1.204 1.333 80.0
3.010 1.227 1.333 80.0
2.972 1.246 1.333 80.0
2.933 1.259 1.333 80.0
2.892 1.267 1.333 80.0
2.850 1.270 1.333 80.0
2.808 1.267 1.333 80.0
2.767 1.259 1.333 80.0
2.728 1.246 1.333 80.0
2.690 1.227 1.333 80.0
2.655 1.204 1.333 80.0
2.624 1.176 1.333 80.0
2.596 1.145 1.333 80.0
2.573 1.110 1.333 80.0
2.554 1.072 1.333 80.0
2.541 1.033 1.333 80.0
2.533 0.992 1.333 80.0
2.530 0.950 1.333 80.0
2.533 0.908 1.333 80.0
2.541 0.867 1.333 80.0
2.554 0.828 1.333 80.0
2.573 0.790 1.333 80.0
2.596 0.755 1.333 80.0
2.624 0.724 1.333 80.0
2.655 0.696 1.333 80.0
2.690 0.673 1.333 80.0
2.728 0.654 1.333 80.0
2.767 0.641 1.333 80.0
2.808 0.633 1.333 80.0
2.850 0.630 1.333 80.0
2.892 0.633 1.333 80.0
2.933 0.641 1.333 80.0
2.972 0.654 1.333 80.0
3.010 0.673 1.333 80.0
3.045 0.696 1.333 80.0
3.076 0.724 1.333 80.0
3.104 0.755 1.333 80.0
3.127 0.790 1.333 80.0
3.146 0.828 1.333 80.0
3.159 0.867 1.333 80.0
3.167 0.908 1.333 80.0
3.170 0.950 1.417 80.0
3.167 0.992 1.417 80.0
3.159 1.033 1.417 80.0
3.146 1.072 1.417 80.0
3.127 1.110 1.417 80.0
3.104 1.145 1.417 80.0
3.076 1.176 1.417 80.0
3.045 1.204 1.417 80.0
3.010 1.227 1.417 80.0
2.972 1.246 1.417 80.0
2.933 1.259 1.417 80.0
2.892 1.267 1.417 80.0
2.850 1.270 1.417 80.0
2.808 1.267 1.417 80.0
2.767 1.259 1.417 80.0
2.728 1.246 1.417 80.0
2.690 1.227 1.417 80.0
2.655 1.204 1.417 80.0
2.624 1.176 1.417 80.0
2.596 1.145 1.417 80.0
2.573 1.110 1.417 80.0
2.554 1.072 1.417 80.0
2.541 1.033 1.417 80.0
2.533 0.992 1.417 80.0
2.530 0.950 1.417 80.0
2.533 0.908 1.417 80.0
2.541 0.867 1.417 80.0
2.554 0.828 1.417 80.0
2.573 0.790 1.417 80.0
2.596 0.755 1.417 80.0
2.624 0.724 1.417 80.0
2.655 0.696 1.417 80.0
2.690 0.673 1.417 80.0
2.728 0.654 1.417 80.0
2.767 0.641 1.417 80.0
2.808 0.633 1.417 80.0
2.850 0.630 1.417 80.0
2.892 0.633 1.417 80.0
2.933 0.641 1.417 80.0
2.972 0.654 1.417 80.0
3.010 0.673 1.417 80.0
3.045 0.696 1.417 80.0
3.076 0.724 1.417 80.0
3.104 0.755 1.417 80.0
3.127 0.790 1.417 80.0
3.146 0.828 1.417 80.0
3.159 0.867 1.417 80.0
3.167 0.908 1.417 80.0
3.170 0.950 1.500 80.0
3.167 0.992 1.500 80.0
3.159 1.033 1.500 80.0
3.146 1.072 1.500 80.0
3.127 1.110 1.500 80.0
3.104 1.145 1.500 80.0
3.076 1.176 1.500 80.0
3.045 1.204 1.500 80.0
3.010 1.227 1.500 80.0
2.972 1.246 1.500 80.0
2.933 1.259 1.500 80.0
2.892 1.267 1.500 80.0
2.850 1.270 1.500 80.0
2.808 1.267 1.500 80.0
2.767 1.259 1.500 80.0
2.728 1.246 1.500 80.0
2.690 1.227 1.500 80.0
2.655 1.204 1.500 80.0
2.624 1.176 1.500 80.0
2.596 1.145 1.500 80.0
2.573 1.110 1.500 80.0
2.554 1.072 1.500 80.0
2.541 1.033 1.500 80.0
2.533 0.992 1.500 80.0
2.530 0.950 1.500 80.0
2.533 0.908 1.500 80.0
2.541 0.867 1.500 80.0
2.554 0.828 1.500 80.0
2.573 0.790 1.500 80.0
2.596 0.755 1.500 80.0
2.624 0.724 1.500 80.0
2.655 0.696 1.500 80.0
2.690 0.673 1.500 80.0
2.728 0.654 1.500 80.0
2.767 0.641 1.500 80.0
2.808 0.633 1.500 80.0
2.850 0.630 1.500 80.0
2.892 0.633 1.500 80.0
2.933 0.641 1.500 80.0
2.972 0.654 1.500 80.0
3.010 0.673 1.500 80.0
3.045 0.696 1.500 80.0
3.076 0.724 1.500 80.0
3.104 0.755 1.500 80.0
3.127 0.790 1.500 80.0
3.146 0.828 1.500 80.0
3.159 0.867 1.500 80.0
3.167 0.908 1.500 80.0
3.170 0.950 1.583 80.0
3.167 0.992 1.583 80.0
3.159 1.033 1.583 80.0
3.146 1.072 1.583 80.0
3.127 1.110 1.583 80.0
3.104 1.145 1.583 80.0
3.076 1.176 1.583 80.0
3.045 1.204 1.583 80.0
3.010 1.227 1.583 80.0
2.972 1.246 1.583 80.0
2.933 1.259 1.583 80.0
2.892 1.267 1.583 80.0
2.850 1.270 1.583 80.0
2.808 1.267 1.583 80.0
2.767 1.259 1.583 80.0
2.728 1.246 1.583 80.0
2.690 1.227 1.583 80.0
2.655 1.204 1.583 80.0
2.624 1.176 1.583 80.0
2.596 1.145 1.583 80.0
2.573 1.110 1.583 80.0
2.554 1.072 1.583 80.0
2.541 1.033 1.583 80.0
2.533 0.992 1.583 80.0
2.530 0.950 1.583 80.0
2.533 0.908 1.583 80.0
2.541 0.867 1.583 80.0
2.554 0.828 1.583 80.0
2.573 0.790 1.583 80.0
2.596 0.755 1.583 80.0
2.624 0.724 1.583 80.0
2.655 0.696 1.583 80.0
2.690 0.673 1.583 80.0
2.728 0.654 1.583 80.0
2.767 0.641 1.583 80.0
2.808 0.633 1.583 80.0
2.850 0.630 1.583 80.0
2.892 0.633 1.583 80.0
2.933 0.641 1.583 80.0
2.972 0.654 1.583 80.0
3.010 0.673 1.583 80.0
3.045 0.696 1.583 80.0
3.076 0.724 1.583 80.0
3.104 0.755 1.583 80.0
3.127 0.790 1.583 80.0
3.146 0.828 1.583 80.0
3.159 0.867 1.583 80.0
3.167 0.908 1.583 80.0
3.170 0.950 1.667 80.0
3.167 0.992 1.667 80.0
3.159 1.033 1.667 80.0
3.146 1.072 1.667 80.0
3.127 1.110 1.667 80.0
3.104 1.145 1.667 80.0
3.076 1.176 1.667 80.0
3.045 1.204 1.667 80.0
3.010 1.227 1.667 80.0
2.972 1.246 1.667 80.0
2.933 1.259 1.667 80.0
2.892 1.267 1.667 80.0
2.850 1.270 1.667 80.0
2.808 1.267 1.667 80.0
2.767 1.259 1.667 80.0
2.728 1.246 1.667 80.0
2.690 1.227 1.667 80.0
2.655 1.204 1.667 80.0
2.624 1.176 1.667 80.0
2.596 1.145 1.667 80.0
2.573 1.110 1.667 80.0
2.554 1.072 1.667 80.0
2.541 1.033 1.667 80.0
2.533 0.992 1.667 80.0
2.530 0.950 1.667 80.0
2.533 0.908 1.667 80.0
2.541 0.867 1.667 80.0
2.554 0.828 1.667 80.0
2.573 0.790 1.667 80.0
2.596 0.755 1.667 80.0
2.624 0.724 1.667 80.0
2.655 0.696 1.667 80.0
2.690 0.673 1.667 80.0
2.728 0.654 1.667 80.0
2.767 0.641 1.667 80.0
2.808 0.633 1.667 80.0
2.850 0.630 1.667 80.0
2.892 0.633 1.667 80.0
2.933 0.641 1.667 80.0
2.972 0.654 1.667 80.0
3.010 0.673 1.667 80.0
3.045 0.696 1.667 80.0
3.076 0.724 1.667 80.0
3.104 0.755 1.667 80.0
3.127 0.790 1.667 80.0
3.146 0.828 1.667 80.0
3.159 0.867 1.667 80.0
3.167 0.908 1.667 80.0
3.170 0.950 1.750 80.0
3.167 0.992 1.750 80.0
3.159 1.033 1.750 80.0
3.146 1.072 1.750 80.0
3.127 1.110 1.750 80.0
3.104 1.145 1.750 80.0
3.076 1.176 1.750 80.0
3.045 1.204 1.750 80.0
3.010 1.227 1.750 80.0
2.972 1.246 1.750 80.0
2.933 1.259 1.750 80.0
2.892 1.267 1.750 80.0
2.850 1.270 1.750 80.0
2.808 1.267 1.750 80.0
2.767 1.259 1.750 80.0
2.728 1.246 1.750 80.0
2.690 1.227 1.750 80.0
2.655 1.204 1.750 80.0
2.624 1.176 1.750 80.0
2.596 1.145 1.750 80.0
2.573 1.110 1.750 80.0
2.554 1.072 1.750 80.0
2.541 1.033 1.750 80.0
2.533 0.992 1.750 80.0
2.530 0.950 1.750 80.0
2.533 0.908 1.750 80.0
2.541 0.867 1.750 80.0
2.554 0.828 1.750 80.0
2.573 0.790 1.750 80.0
2.596 0.755 1.750 80.0
2.624 0.724 1.750 80.0
2.655 0.696 1.750 80.0
2.690 0.673 1.750 80.0
2.728 0.654 1.750 80.0
2.767 0.641 1.750 80.0
2.808 0.633 1.750 80.0
2.850 0.630 1.750 80.0
2.892 0.633 1.750 80.0
2.933 0.641 1.750 80.0
2.972 0.654 1.750 80.0
3.010 0.673 1.750 80.0
3.045 0.696 1.750 80.0
3.076 0.724 1.750 80.0
3.104 0.755 1.750 80.0
3.127 0.790 1.750 80.0
3.146 0.828 1.750 80.0
3.159 0.867 1.750 80.0
3.167 0.908 1.750 80.0
3.170 0.950 1.833 80.0
3.167 0.992 1.833 80.0
3.159 1.033 1.833 80.0
3.146 1.072 1.833 80.0
3.127 1.110 1.833 80.0
3.104 1.145 1.833 80.0
3.076 1.176 1.833 80.0
3.045 1.204 1.833 80.0
3.010 1.227 1.833 80.0
2.972 1.246 1.833 80.0
2.933 1.259 1.833 80.0
2.892 1.267 1.833 80.0
2.850 1.270 1.833 80.0
2.808 1.267 1.833 80.0
2.767 1.259 1.833 80.0
2.728 1.246 1.833 80.0
2.690 1.227 1.833 80.0
2.655 1.204 1.833 80.0
2.624 1.176 1.833 80.0
2.596 1.145 1.833 80.0
2.573 1.110 1.833 80.0
2.554 1.072 1.833 80.0
2.541 1.033 1.833 80.0
2.533 0.992 1.833 80.0
2.530 0.950 1.833 80.0
2.533 0.908 1.833 80.0
2.541 0.867 1.833 80.0
2.554 0.828 1.833 80.0
2.573 0.790 1.833 80.0
2.596 0.755 1.833 80.0
2.624 0.724 1.833 80.0
2.655 0.696 1.833 80.0
2.690 0.673 1.833 80.0
2.728 0.654 1.833 80.0
2.767 0.641 1.833 80.0
2.808 0.633 1.833 80.0
2.850 0.630 1.833 80.0
2.892 0.633 1.833 80.0
2.933 0.641 1.833 80.0
2.972 0.654 1.833 80.0
3.010 0.673 1.833 80.0
3.045 0.696 1.833 80.0
3.076 0.724 1.833 80.0
3.104 0.755 1.833 80.0
3.127 0.790 1.833 80.0
3.146 0.828 1.833 80.0
3.159 0.867 1.833 80.0
3.167 0.908 1.833 80.0
3.170 0.950 1.917 80.0
3.167 0.992 1.917 80.0
3.159 1.033 1.917 80.0
3.146 1.072 1.917 80.0
3.127 1.110 1.917 80.0
3.104 1.145 1.917 80.0
3.076 1.176 1.917 80.0
3.045 1.204 1.917 80.0
3.010 1.227 1.917 80.0
2.972 1.246 1.917 80.0
2.933 1.259 1.917 80.0
2.892 1.267 1.917 80.0
2.850 1.270 1.917 80.0
2.808 1.267 1.917 80.0
2.767 1.259 1.917 80.0
2.728 1.246 1.917 80.0
2.690 1.227 1.917 80.0
2.655 1.204 1.917 80.0
2.624 1.176 1.917 80.0
2.596 1.145 1.917 80.0
2.573 1.110 1.917 80.0
2.554 1.072 1.917 80.0
2.541 1.033 1.917 80.0
2.533 0.992 1.917 80.0
2.530 0.950 1.917 80.0
2.533 0.908 1.917 80.0
2.541 0.867 1.917 80.0
2.554 0.828 1.917 80.0
2.573 0.790 1.917 80.0
2.596 0.755 1.917 80.0
2.624 0.724 1.917 80.0
2.655 0.696 1.917 80.0
2.690 0.673 1.917 80.0
2.728 0.654 1.917 80.0
2.767 0.641 1.917 80.0
2.808 0.633 1.917 80.0
2.850 0.630 1.917 80.0
2.892 0.633 1.917 80.0
2.933 0.641 1.917 80.0
2.972 0.654 1.917 80.0
3.010 0.673 1.917 80.0
3.045 0.696 1.917 80.0
3.076 0.724 1.917 80.0
3.104 0.755 1.917 80.0
3.127 0.790 1.917 80.0
3.146 0.828 1.917 80.0
3.159 0.867 1.917 80.0
3.167 0.908 1.917 80.0
3.170 0.950 2.000 80.0
3.167 0.992 2.000 80.0
3.159 1.033 2.000 80.0
3.146 1.072 2.000 80.0
3.127 1.110 2.000 80.0
3.104 1.145 2.000 80.0
3.076 1.176 2.000 80.0
3.045 1.204 2.000 80.0
3.010 1.227 2.000 80.0
2.972 1.246 2.000 80.0
2.933 1.259 2.000 80.0
2.892 1.267 2.000 80.0
2.850 1.270 2.000 80.0
2.808 1.267 2.000 80.0
2.767 1.259 2.000 80.0
2.728 1.246 2.000 80.0
2.690 1.227 2.000 80.0
2.655 1.204 2.000 80.0
2.624 1.176 2.000 80.0
2.596 1.145 2.000 80.0
2.573 1.110 2.000 80.0
2.554 1.072 2.000 80.0
2.541 1.033 2.000 80.0
2.533 0.992 2.000 80.0
2.530 0.950 2.000 80.0
2.533 0.908 2.000 80.0
2.541 0.867 2.000 80.0
2.554 0.828 2.000 80.0
2.573 0.790 2.000 80.0
2.596 0.755 2.000 80.0
2.624 0.724 2.000 80.0
2.655 0.696 2.000 80.0
2.690 0.673 2.000 80.0
2.728 0.654 2.000 80.0
2.767 0.641 2.000 80.0
2.808 0.633 2.000 80.0
2.850 0.630 2.000 80.0
2.892 0.633 2.000 80.0
2.933 0.641 2.000 80.0
2.972 0.654 2.000 80.0
3.010 0.673 2.000 80.0
3.045 0.696 2.000 80.0
3.076 0.724 2.000 80.0
3.104 0.755 2.000 80.0
3.127 0.790 2.000 80.0
3.146 0.828 2.000 80.0
3.159 0.867 2.000 80.0
3.167 0.908 2.000 80.0
3.170 0.950 2.083 80.0
3.167 0.992 2.083 80.0
3.159 1.033 2.083 80.0
3.146 1.072 2.083 80.0
3.127 1.110 2.083 80.0
3.104 1.145 2.083 80.0
3.076 1.176 2.083 80.0
3.045 1.204 2.083 80.0
3.010 1.227 2.083 80.0
2.972 1.246 2.083 80.0
2.933 1.259 2.083 80.0
2.892 1.267 2.083 80.0
2.850 1.270 2.083 80.0
2.808 1.267 2.083 80.0
2.767 1.259 2.083 80.0
2.728 1.246 2.083 80.0
2.690 1.227 2.083 80.0
2.655 1.204 2.083 80.0
2.624 1.176 2.083 80.0
2.596 1.145 2.083 80.0
2.573 1.110 2.083 80.0
2.554 1.072 2.083 80.0
2.541 1.033 2.083 80.0
2.533 0.992 2.083 80.0
2.530 0.950 2.083 80.0
2.533 0.908 2.083 80.0
2.541 0.867 2.083 80.0
2.554 0.828 2.083 80.0
2.573 0.790 2.083 80.0
2.596 0.755 2.083 80.0
2.624 0.724 2.083 80.0
2.655 0.696 2.083 80.0
2.690 0.673 2.083 80.0
2.728 0.654 2.083 80.0
2.767 0.641 2.083 80.0
2.808 0.633 2.083 80.0
2.850 0.630 2.083 80.0
2.892 0.633 2.083 80.0
2.933 0.641 2.083 80.0
2.972 0.654 2.083 80.0
3.010 0.673 2.083 80.0
3.045 0.696 2.083 80.0
3.076 0.724 2.083 80.0
3.104 0.755 2.083 80.0
3.127 0.790 2.083 80.0
3.146 0.828 2.083 80.0
3.159 0.867 2.083 80.0
3.167 0.908 2.083 80.0
3.170 0.950 2.167 80.0
3.167 0.992 2.167 80.0
3.159 1.033 2.167 80.0
3.146 1.072 2.167 80.0
3.127 1.110 2.167 80.0
3.104 1.145 2.167 80.0
3.076 1.176 2.167 80.0
3.045 1.204 2.167 80.0
3.010 1.227 2.167 80.0
2.972 1.246 2.167 80.0
2.933 1.259 2.167 80.0
2.892 1.267 2.167 80.0
2.850 1.270 2.167 80.0
2.808 1.267 2.167 80.0
2.767 1.259 2.167 80.0
2.728 1.246 2.167 80.0
2.690 1.227 2.167 80.0
2.655 1.204 2.167 80.0
2.624 1.176 2.167 80.0
2.596 1.145 2.167 80.0
2.573 1.110 2.167 80.0
2.554 1.072 2.167 80.0
2.541 1.033 2.167 80.0
2.533 0.992 2.167 80.0
2.530 0.950 2.167 80.0
2.533 0.908 2.167 80.0
2.541 0.867 2.167 80.0
2.554 0.828 2.167 80.0
2.573 0.790 2.167 80.0
2.596 0.755 2.167 80.0
2.624 0.724 2.167 80.0
2.655 0.696 2.167 80.0
2.690 0.673 2.167 80.0
2.728 0.654 2.167 80.0
2.767 0.641 2.167 80.0
2.808 0.633 2.167 80.0
2.850 0.630 2.167 80.0
2.892 0.633 2.167 80.0
2.933 0.641 2.167 80.0
2.972 0.654 2.167 80.0
3.010 0.673 2.167 80.0
3.045 0.696 2.167 80.0
3.076 0.724 2.167 80.0
3.104 0.755 2.167 80.0
3.127 0.790 2.167 80.0
3.146 0.828 2.167 80.0
3.159 0.867 2.167 80.0
3.167 0.908 2.167 80.0
3.170 0.950 2.250 80.0
3.167 0.992 2.250 80.0
3.159 1.033 2.250 80.0
3.146 1.072 2.250 80.0
3.127 1.110 2.250 80.0
3.104 1.145 2.250 80.0
3.076 1.176 2.250 80.0
3.045 1.204 2.250 80.0
3.010 1.227 2.250 80.0
2.972 1.246 2.250 80.0
2.933 1.259 2.250 80.0
2.892 1.267 2.250 80.0
2.850 1.270 2.250 80.0
2.808 1.267 2.250 80.0
2.767 1.259 2.250 80.0
2.728 1.246 2.250 80.0
2.690 1.227 2.250 80.0
2.655 1.204 2.250 80.0
2.624 1.176 2.250 80.0
2.596 1.145 2.250 80.0
2.573 1.110 2.250 80.0
2.554 1.072 2.250 80.0
2.541 1.033 2.250 80.0
2.533 0.992 2.250 80.0
2.530 0.950 2.250 80.0
2.533 0.908 2.250 80.0
2.541 0.867 2.250 80.0
2.554 0.828 2.250 80.0
2.573 0.790 2.250 80.0
2.596 0.755 2.250 80.0
2.624 0.724 2.250 80.0
2.655 0.696 2.250 80.0
2.690 0.673 2.250 80.0
2.728 0.654 2.250 80.0
2.767 0.641 2.250 80.0
2.808 0.633 2.250 80.0
2.850 0.630 2.250 80.0
2.892 0.633 2.250 80.0
2.933 0.641 2.250 80.0
2.972 0.654 2.250 80.0
3.010 0.673 2.250 80.0
3.045 0.696 2.250 80.0
3.076 0.724 2.250 80.0
3.104 0.755 2.250 80.0
3.127 0.790 2.250 80.0
3.146 0.828 2.250 80.0
3.159 0.867 2.250 80.0
3.167 0.908 2.250 80.0
3.170 0.950 2.333 80.0
3.167 0.992 2.333 80.0
3.159 1.033 2.333 80.0
3.146 1.072 2.333 80.0
3.127 1.110 2.333 80.0
3.104 1.145 2.333 80.0
3.076 1.176 2.333 80.0
3.045 1.204 2.333 80.0
3.010 1.227 2.333 80.0
2.972 1.246 2.333 80.0
2.933 1.259 2.333 80.0
2.892 1.267 2.333 80.0
2.850 1.270 2.333 80.0
2.808 1.267 2.333 80.0
2.767 1.259 2.333 80.0
2.728 1.246 2.333 80.0
2.690 1.227 2.333 80.0
2.655 1.204 2.333 80.0
2.624 1.176 2.333 80.0
2.596 1.145 2.333 80.0
2.573 1.110 2.333 80.0
2.554 1.072 2.333 80.0
2.541 1.033 2.333 80.0
2.533 0.992 2.333 80.0
2.530 0.950 2.333 80.0
2.533 0.908 2.333 80.0
2.541 0.867 2.333 80.0
2.554 0.828 2.333 80.0
2.573 0.790 2.333 80.0
2.596 0.755 2.333 80.0
2.624 0.724 2.333 80.0
2.655 0.696 2.333 80.0
2.690 0.673 2.333 80.0
2.728 0.654 2.333 80.0
2.767 0.641 2.333 80.0
2.808 0.633 2.333 80.0
2.850 0.630 2.333 80.0
2.892 0.633 2.333 80.0
2.933 0.641 2.333 80.0
2.972 0.654 2.333 80.0
3.010 0.673 2.333 80.0
3.045 0.696 2.333 80.0
3.076 0.724 2.333 80.0
3.104 0.755 2.333 80.0
3.127 0.790 2.333 80.0
3.146 0.828 2.333 80.0
3.159 0.867 2.333 80.0
3.167 0.908 2.333 80.0
3.170 0.950 2.417 80.0
3.167 0.992 2.417 80.0
3.159 1.033 2.417 80.0
3.146 1.072 2.417 80.0
3.127 1.110 2.417 80.0
3.104 1.145 2.417 80.0
3.076 1.176 2.417 80.0
3.045 1.204 2.417 80.0
3.010 1.227 2.417 80.0
2.972 1.246 2.417 80.0
2.933 1.259 2.417 80.0
2.892 1.267 2.417 80.0
2.850 1.270 2.417 80.0
2.808 1.267 2.417 80.0
2.767 1.259 2.417 80.0
2.728 1.246 2.417 80.0
2.690 1.227 2.417 80.0
2.655 1.204 2.417 80.0
2.624 1.176 2.417 80.0
2.596 1.145 2.417 80.0
2.573 1.110 2.417 80.0
2.554 1.072 2.417 80.0
2.541 1.033 2.417 80.0
2.533 0.992 2.417 80.0
2.530 0.950 2.417 80.0
2.533 0.908 2.417 80.0
2.541 0.867 2.417 80.0
2.554 0.828 2.417 80.0
2.573 0.790 2.417 80.0
2.596 0.755 2.417 80.0
2.624 0.724 2.417 80.0
2.655 0.696 2.417 80.0
2.690 0.673 2.417 80.0
2.728 0.654 2.417 80.0
2.767 0.641 2.417 80.0
2.808 0.633 2.417 80.0
2.850 0.630 2.417 80.0
2.892 0.633 2.417 80.0
2.933 0.641 2.417 80.0
2.972 0.654 2.417 80.0
3.010 0.673 2.417 80.0
3.045 0.696 2.417 80.0
3.076 0.724 2.417 80.0
3.104 0.755 2.417 80.0
3.127 0.790 2.417 80.0
3.146 0.828 2.417 80.0
3.159 0.867 2.417 80.0
3.167 0.908 2.417 80.0
3.170 0.950 2.500 80.0
3.167 0.992 2.500 80.0
3.159 1.033 2.500 80.0
3.146 1.072 2.500 80.0
3.127 1.110 2.500 80.0
3.104 1.145 2.500 80.0
3.076 1.176 2.500 80.0
3.045 1.204 2.500 80.0
3.010 1.227 2.500 80.0
2.972 1.246 2.500 80.0
2.933 1.259 2.500 80.0
2.892 1.267 2.500 80.0
2.850 1.270 2.500 80.0
2.808 1.267 2.500 80.0
2.767 1.259 2.500 80.0
2.728 1.246 2.500 80.0
2.690 1.227 2.500 80.0
2.655 1.204 2.500 80.0
2.624 1.176 2.500 80.0
2.596 1.145 2.500 80.0
2.573 1.110 2.500 80.0
2.554 1.072 2.500 80.0
2.541 1.033 2.500 80.0
2.533 0.992 2.500 80.0
2.530 0.950 2.500 80.0
2.533 0.908 2.500 80.0
2.541 0.867 2.500 80.0
2.554 0.828 2.500 80.0
2.573 0.790 2.500 80.0
2.596 0.755 2.500 80.0
2.624 0.724 2.500 80.0
2.655 0.696 2.500 80.0
2.690 0.673 2.500 80.0
2.728 0.654 2.500 80.0
2.767 0.641 2.500 80.0
2.808 0.633 2.500 80.0
2.850 0.630 2.500 80.0
2.892 0.633 2.500 80.0
2.933 0.641 2.500 80.0
2.972 0.654 2.500 80.0
3.010 0.673 2.500 80.0
3.045 0.696 2.500 80.0
3.076 0.724 2.500 80.0
3.104 0.755 2.500 80.0
3.127 0.790 2.500 80.0
3.146 0.828 2.500 80.0
3.159 0.867 2.500 80.0
3.167 0.908 2.500 80.0
2.850 0.950 2.500 80.0
2.850 0.950 2.500 80.0
2.850 0.950 2.500 80.0
2.850 0.950 2.500 80.0
2.850 0.950 2.500 80.0
2.850 0.950 2.500 80.0
2.850 0.950 2.500 80.0
2.850 0.950 2.500 80.0
2.850 0.950 2.500 80.0
2.850 0.950 2.500 80.0
2.850 0.950 2.500 80.0
2.850 0.950 2.500 80.0
2.850 0.950 2.500 80.0
2.850 0.950 2.500 80.0
2.850 0.950 2.500 80.0
2.850 0.950 2.500 80.0
2.850 0.950 2.500 80.0
2.850 0.950 2.500 80.0
2.850 0.950 2.500 80.0
2.850 0.950 2.500 80.0
2.850 0.950 2.500 80.0
2.850 0.950 2.500 80.0
2.850 0.950 2.500 80.0
2.850 0.950 2.500 80.0
2.914 0.950 2.500 80.0
2.912 0.967 2.500 80.0
2.905 0.982 2.500 80.0
2.895 0.995 2.500 80.0
2.882 1.005 2.500 80.0
2.867 1.012 2.500 80.0
2.850 1.014 2.500 80.0
2.833 1.012 2.500 80.0
2.818 1.005 2.500 80.0
2.805 0.995 2.500 80.0
2.795 0.982 2.500 80.0
2.788 0.967 2.500 80.0
2.786 0.950 2.500 80.0
2.788 0.933 2.500 80.0
2.795 0.918 2.500 80.0
2.805 0.905 2.500 80.0
2.818 0.895 2.500 80.0
2.833 0.888 2.500 80.0
2.850 0.886 2.500 80.0
2.867 0.888 2.500 80.0
2.882 0.895 2.500 80.0
2.895 0.905 2.500 80.0
2.905 0.918 2.500 80.0
2.912 0.933 2.500 80.0
2.978 0.950 2.500 80.0
2.974 0.983 2.500 80.0
2.961 1.014 2.500 80.0
2.941 1.041 2.500 80.0
2.914 1.061 2.500 80.0
2.883 1.074 2.500 80.0
2.850 1.078 2.500 80.0
2.817 1.074 2.500 80.0
2.786 1.061 2.500 80.0
2.759 1.041 2.500 80.0
2.739 1.014 2.500 80.0
2.726 0.983 2.500 80.0
2.722 0.950 2.500 80.0
2.726 0.917 2.500 80.0
2.739 0.886 2.500 80.0
2.759 0.859 2.500 80.0
2.786 0.839 2.500 80.0
2.817 0.826 2.500 80.0
2.850 0.822 2.500 80.0
2.883 0.826 2.500 80.0
2.914 0.839 2.500 80.0
2.941 0.859 2.500 80.0
2.961 0.886 2.500 80.0
2.974 0.917 2.500 80.0
3.042 0.950 2.500 80.0
3.035 1.000 2.500 80.0
3.016 1.046 2.500 80.0
2.986 1.086 2.500 80.0
2.946 1.116 2.500 80.0
2.900 1.135 2.500 80.0
2.850 1.142 2.500 80.0
2.800 1.135 2.500 80.0
2.754 1.116 2.500 80.0
2.714 1.086 2.500 80.0
2.684 1.046 2.500 80.0
2.665 1.000 2.500 80.0
2.658 0.950 2.500 80.0
2.665 0.900 2.500 80.0
2.684 0.854 2.500 80.0
2.714 0.814 2.500 80.0
2.754 0.784 2.500 80.0
2.800 0.765 2.500 80.0
2.850 0.758 2.500 80.0
2.900 0.765 2.500 80.0
2.946 0.784 2.500 80.0
2.986 0.814 2.500 80.0
3.016 0.854 2.500 80.0
3.035 0.900 2.500 80.0
3.106 0.950 2.500 80.0
3.097 1.016 2.500 80.0
3.072 1.078 2.500 80.0
3.031 1.131 2.500 80.0
2.978 1.172 2.500 80.0
2.916 1.197 2.500 80.0
2.850 1.206 2.500 80.0
2.784 1.197 2.500 80.0
2.722 1.172 2.500 80.0
2.669 1.131 2.500 80.0
2.628 1.078 2.500 80.0
2.603 1.016 2.500 80.0
2.594 0.950 2.500 80.0
2.603 0.884 2.500 80.0
2.628 0.822 2.500 80.0
2.669 0.769 2.500 80.0
2.722 0.728 2.500 80.0
2.784 0.703 2.500 80.0
2.850 0.694 2.500 80.0
2.916 0.703 2.500 80.0
2.978 0.728 2.500 80.0
3.031 0.769 2.500 80.0
3.072 0.822 2.500 80.0
3.097 0.884 2.500 80.0
3.170 0.950 2.500 80.0
3.159 1.033 2.500 80.0
3.127 1.110 2.500 80.0
3.076 1.176 2.500 80.0
3.010 1.227 2.500 80.0
2.933 1.259 2.500 80.0
2.850 1.270 2.500 80.0
2.767 1.259 2.500 80.0
2.690 1.227 2.500 80.0
2.624 1.176 2.500 80.0
2.573 1.110 2.500 80.0
2.541 1.033 2.500 80.0
2.530 0.950 2.500 80.0
2.541 0.867 2.500 80.0
2.573 0.790 2.500 80.0
2.624 0.724 2.500 80.0
2.690 0.673 2.500 80.0
2.767 0.641 2.500 80.0
2.850 0.630 2.500 80.0
2.933 0.641 2.500 80.0
3.010 0.673 2.500 80.0
3.076 0.724 2.500 80.0
3.127 0.790 2.500 80.0
3.159 0.867 2.500 80.0
